STARTFONT 2.1
FONT -DIGITAL-VT220-medium-I-Normal-80col-60-600-75-75-c-300-iso10646-1
SIZE 60 75 75
FONTBOUNDINGBOX 49 60 -9 -12
STARTPROPERTIES 21
FOUNDRY "DIGITAL"
FAMILY_NAME "vt220"
WEIGHT_NAME "medium"
RELATIVE_SETWIDTH 50
SLANT "I"
SETWIDTH_NAME "Normal"
ADD_STYLE_NAME "80col"
PIXEL_SIZE 60
POINT_SIZE 600
RESOLUTION_X 75
RESOLUTION_Y 75
SPACING "c"
CHARSET_REGISTRY "ISO10646"
CHARSET_ENCODING "1"
CAP_HEIGHT 42
X_HEIGHT 30
WEIGHT 10
QUAD_WIDTH 30
FONT_ASCENT 48
FONT_DESCENT 12
AVERAGE_WIDTH 300
ENDPROPERTIES
CHARS 237
STARTCHAR U+00FD
ENCODING 253
SWIDTH 1000 0
DWIDTH 30 0
BBX 49 60 -9 -12
BITMAP
00000000000000
00000000000000
00000000000000
00000000000000
00000000000000
00000000000000
00000000000000
00000000000000
00000000000000
00000000000000
00000000000000
00000000000000
00000000000000
00000000000000
00000000000000
00000000000000
00000000000000
00000000000000
00000000000000
00000000000000
00000000000000
00000000000000
00000000000000
00000000000000
00000000000000
00000000000000
00000000000000
00000000000000
00000000000000
00000000000000
00000000000000
00000000000000
00000000000000
00000000000000
00000000000000
00000000000000
00000000000000
00000000000000
00000000000000
00000000000000
00000000000000
00000000000000
00000000000000
00000000000000
00000000000000
00000000000000
00000000000000
00000000000000
00000000000000
00000000000000
00000000000000
00000000000000
00000000000000
00000000000000
00000000000000
00000000000000
00000000000000
00000000000000
00000000000000
00000000000000
ENDCHAR
STARTCHAR U+25A1
ENCODING 9633
SWIDTH 1000 0
DWIDTH 30 0
BBX 49 60 -9 -12
BITMAP
00000000000000
00000000000000
00000000000000
00000000000000
00000000000000
00000000000000
00007FFFFF8000
00007FFFFF8000
00007FFFFF8000
0000FFFFFF0000
0000FFFFFF0000
0000FFFFFF0000
0001F8007E0000
0001F8007E0000
0001F8007E0000
0003F000FC0000
0003F000FC0000
0003F000FC0000
0007E001F80000
0007E001F80000
0007E001F80000
000FC003F00000
000FC003F00000
000FC003F00000
001F8007E00000
001F8007E00000
001F8007E00000
003F000FC00000
003F000FC00000
003F000FC00000
007E001F800000
007E001F800000
007E001F800000
00FC003F000000
00FC003F000000
00FC003F000000
01F8007E000000
01F8007E000000
01F8007E000000
03F000FC000000
03F000FC000000
03F000FC000000
07FFFFF8000000
07FFFFF8000000
07FFFFF8000000
0FFFFFF0000000
0FFFFFF0000000
0FFFFFF0000000
00000000000000
00000000000000
00000000000000
00000000000000
00000000000000
00000000000000
00000000000000
00000000000000
00000000000000
00000000000000
00000000000000
00000000000000
ENDCHAR
STARTCHAR U+00FE
ENCODING 254
SWIDTH 1000 0
DWIDTH 30 0
BBX 49 60 -9 -12
BITMAP
00000000000000
00000000000000
00000000000000
00000000000000
00000000000000
00000000000000
00007E00000000
00007E00000000
00007E00000000
0000FC00000000
0000FC00000000
0000FC00000000
0001F800000000
0001F800000000
0001F800000000
0003F000000000
0003F000000000
0003F000000000
0007FFFFC00000
0007FFFFC00000
0007FFFFC00000
000FFFFF800000
000FFFFF800000
000FFFFF800000
001FF007E00000
001FF007E00000
001FF007E00000
003FE00FC00000
003FE00FC00000
003FE00FC00000
007FC01F800000
007FC01F800000
007FC01F800000
00FF803F000000
00FF803F000000
00FF803F000000
01FFFFF0000000
01FFFFF0000000
01FFFFF0000000
03FFFFE0000000
03FFFFE0000000
03FFFFE0000000
07E00000000000
07E00000000000
07E00000000000
0FC00000000000
0FC00000000000
0FC00000000000
1F800000000000
1F800000000000
1F800000000000
3F000000000000
3F000000000000
3F000000000000
7E000000000000
7E000000000000
7E000000000000
FC000000000000
FC000000000000
FC000000000000
ENDCHAR
STARTCHAR U+00FF
ENCODING 255
SWIDTH 1000 0
DWIDTH 30 0
BBX 49 60 -9 -12
BITMAP
00000000000000
00000000000000
00000000000000
00000000000000
00000000000000
00000000000000
00000FC0FC0000
00000FC0FC0000
00000FC0FC0000
00001F81F80000
00001F81F80000
00001F81F80000
00000000000000
00000000000000
00000000000000
00000000000000
00000000000000
00000000000000
0007E00FC00000
0007E00FC00000
0007E00FC00000
000FC01F800000
000FC01F800000
000FC01F800000
001F803F000000
001F803F000000
001F803F000000
003F007E000000
003F007E000000
003F007E000000
007E07FC000000
007E07FC000000
007E07FC000000
00FC0FF8000000
00FC0FF8000000
00FC0FF8000000
003FFFF0000000
003FFFF0000000
003FFFF0000000
007FFFE0000000
007FFFE0000000
007FFFE0000000
00000FC0000000
00000FC0000000
00000FC0000000
00001F80000000
00001F80000000
00001F80000000
1F803F00000000
1F803F00000000
1F803F00000000
3F007E00000000
3F007E00000000
3F007E00000000
0FFFE000000000
0FFFE000000000
0FFFE000000000
1FFFC000000000
1FFFC000000000
1FFFC000000000
ENDCHAR
STARTCHAR U+00FC
ENCODING 252
SWIDTH 1000 0
DWIDTH 30 0
BBX 49 60 -9 -12
BITMAP
00000000000000
00000000000000
00000000000000
00000000000000
00000000000000
00000000000000
00000FC0FC0000
00000FC0FC0000
00000FC0FC0000
00001F81F80000
00001F81F80000
00001F81F80000
00000000000000
00000000000000
00000000000000
00000000000000
00000000000000
00000000000000
0007E00FC00000
0007E00FC00000
0007E00FC00000
000FC01F800000
000FC01F800000
000FC01F800000
001F803F000000
001F803F000000
001F803F000000
003F007E000000
003F007E000000
003F007E000000
007E00FC000000
007E00FC000000
007E00FC000000
00FC01F8000000
00FC01F8000000
00FC01F8000000
01F803F0000000
01F803F0000000
01F803F0000000
03F007E0000000
03F007E0000000
03F007E0000000
00FFFFF8000000
00FFFFF8000000
00FFFFF8000000
01FFFFF0000000
01FFFFF0000000
01FFFFF0000000
00000000000000
00000000000000
00000000000000
00000000000000
00000000000000
00000000000000
00000000000000
00000000000000
00000000000000
00000000000000
00000000000000
00000000000000
ENDCHAR
STARTCHAR U+00FB
ENCODING 251
SWIDTH 1000 0
DWIDTH 30 0
BBX 49 60 -9 -12
BITMAP
0000007FF80000
0000007FF80000
0000007FF80000
000000FFF00000
000000FFF00000
000000FFF00000
00000FC0FC0000
00000FC0FC0000
00000FC0FC0000
00001F81F80000
00001F81F80000
00001F81F80000
00000000000000
00000000000000
00000000000000
00000000000000
00000000000000
00000000000000
0007E00FC00000
0007E00FC00000
0007E00FC00000
000FC01F800000
000FC01F800000
000FC01F800000
001F803F000000
001F803F000000
001F803F000000
003F007E000000
003F007E000000
003F007E000000
007E00FC000000
007E00FC000000
007E00FC000000
00FC01F8000000
00FC01F8000000
00FC01F8000000
01F803F0000000
01F803F0000000
01F803F0000000
03F007E0000000
03F007E0000000
03F007E0000000
00FFFFF8000000
00FFFFF8000000
00FFFFF8000000
01FFFFF0000000
01FFFFF0000000
01FFFFF0000000
00000000000000
00000000000000
00000000000000
00000000000000
00000000000000
00000000000000
00000000000000
00000000000000
00000000000000
00000000000000
00000000000000
00000000000000
ENDCHAR
STARTCHAR U+00FA
ENCODING 250
SWIDTH 1000 0
DWIDTH 30 0
BBX 49 60 -9 -12
BITMAP
00000000000000
00000000000000
00000000000000
00000000000000
00000000000000
00000000000000
0000003FE00000
0000003FE00000
0000003FE00000
0000007FC00000
0000007FC00000
0000007FC00000
00003FE0000000
00003FE0000000
00003FE0000000
00007FC0000000
00007FC0000000
00007FC0000000
0007E00FC00000
0007E00FC00000
0007E00FC00000
000FC01F800000
000FC01F800000
000FC01F800000
001F803F000000
001F803F000000
001F803F000000
003F007E000000
003F007E000000
003F007E000000
007E00FC000000
007E00FC000000
007E00FC000000
00FC01F8000000
00FC01F8000000
00FC01F8000000
01F803F0000000
01F803F0000000
01F803F0000000
03F007E0000000
03F007E0000000
03F007E0000000
00FFFFF8000000
00FFFFF8000000
00FFFFF8000000
01FFFFF0000000
01FFFFF0000000
01FFFFF0000000
00000000000000
00000000000000
00000000000000
00000000000000
00000000000000
00000000000000
00000000000000
00000000000000
00000000000000
00000000000000
00000000000000
00000000000000
ENDCHAR
STARTCHAR U+00F9
ENCODING 249
SWIDTH 1000 0
DWIDTH 30 0
BBX 49 60 -9 -12
BITMAP
00000000000000
00000000000000
00000000000000
00000000000000
00000000000000
00000000000000
00000FF8000000
00000FF8000000
00000FF8000000
00001FF0000000
00001FF0000000
00001FF0000000
000000FF800000
000000FF800000
000000FF800000
000001FF000000
000001FF000000
000001FF000000
0007E00FC00000
0007E00FC00000
0007E00FC00000
000FC01F800000
000FC01F800000
000FC01F800000
001F803F000000
001F803F000000
001F803F000000
003F007E000000
003F007E000000
003F007E000000
007E00FC000000
007E00FC000000
007E00FC000000
00FC01F8000000
00FC01F8000000
00FC01F8000000
01F803F0000000
01F803F0000000
01F803F0000000
03F007E0000000
03F007E0000000
03F007E0000000
00FFFFF8000000
00FFFFF8000000
00FFFFF8000000
01FFFFF0000000
01FFFFF0000000
01FFFFF0000000
00000000000000
00000000000000
00000000000000
00000000000000
00000000000000
00000000000000
00000000000000
00000000000000
00000000000000
00000000000000
00000000000000
00000000000000
ENDCHAR
STARTCHAR U+00F8
ENCODING 248
SWIDTH 1000 0
DWIDTH 30 0
BBX 49 60 -9 -12
BITMAP
00000000000000
00000000000000
00000000000000
00000000000000
00000000000000
00000000000000
00000000000000
00000000000000
00000000000000
00000000000000
00000000000000
00000000000000
000000007E0000
000000007E0000
000000007E0000
00000000FC0000
00000000FC0000
00000000FC0000
0000FFFFC00000
0000FFFFC00000
0000FFFFC00000
0001FFFF800000
0001FFFF800000
0001FFFF800000
001F81FFE00000
001F81FFE00000
001F81FFE00000
003F03FFC00000
003F03FFC00000
003F03FFC00000
007E3F1F800000
007E3F1F800000
007E3F1F800000
00FC7E3F000000
00FC7E3F000000
00FC7E3F000000
01FFE07E000000
01FFE07E000000
01FFE07E000000
03FFC0FC000000
03FFC0FC000000
03FFC0FC000000
00FFFFC0000000
00FFFFC0000000
00FFFFC0000000
01FFFF80000000
01FFFF80000000
01FFFF80000000
1F800000000000
1F800000000000
1F800000000000
3F000000000000
3F000000000000
3F000000000000
00000000000000
00000000000000
00000000000000
00000000000000
00000000000000
00000000000000
ENDCHAR
STARTCHAR U+0153
ENCODING 339
SWIDTH 1000 0
DWIDTH 30 0
BBX 49 60 -9 -12
BITMAP
00000000000000
00000000000000
00000000000000
00000000000000
00000000000000
00000000000000
00000000000000
00000000000000
00000000000000
00000000000000
00000000000000
00000000000000
00000000000000
00000000000000
00000000000000
00000000000000
00000000000000
00000000000000
0000FFFFC00000
0000FFFFC00000
0000FFFFC00000
0001FFFF800000
0001FFFF800000
0001FFFF800000
001F8FC7E00000
001F8FC7E00000
001F8FC7E00000
003F1F8FC00000
003F1F8FC00000
003F1F8FC00000
007E3FFF800000
007E3FFF800000
007E3FFF800000
00FC7FFF000000
00FC7FFF000000
00FC7FFF000000
01F8FC00000000
01F8FC00000000
01F8FC00000000
03F1F800000000
03F1F800000000
03F1F800000000
00FFFFF8000000
00FFFFF8000000
00FFFFF8000000
01FFFFF0000000
01FFFFF0000000
01FFFFF0000000
00000000000000
00000000000000
00000000000000
00000000000000
00000000000000
00000000000000
00000000000000
00000000000000
00000000000000
00000000000000
00000000000000
00000000000000
ENDCHAR
STARTCHAR U+00F6
ENCODING 246
SWIDTH 1000 0
DWIDTH 30 0
BBX 49 60 -9 -12
BITMAP
00000000000000
00000000000000
00000000000000
00000000000000
00000000000000
00000000000000
00000FC0FC0000
00000FC0FC0000
00000FC0FC0000
00001F81F80000
00001F81F80000
00001F81F80000
00000000000000
00000000000000
00000000000000
00000000000000
00000000000000
00000000000000
0000FFFFC00000
0000FFFFC00000
0000FFFFC00000
0001FFFF800000
0001FFFF800000
0001FFFF800000
001F8007E00000
001F8007E00000
001F8007E00000
003F000FC00000
003F000FC00000
003F000FC00000
007E001F800000
007E001F800000
007E001F800000
00FC003F000000
00FC003F000000
00FC003F000000
01F8007E000000
01F8007E000000
01F8007E000000
03F000FC000000
03F000FC000000
03F000FC000000
00FFFFC0000000
00FFFFC0000000
00FFFFC0000000
01FFFF80000000
01FFFF80000000
01FFFF80000000
00000000000000
00000000000000
00000000000000
00000000000000
00000000000000
00000000000000
00000000000000
00000000000000
00000000000000
00000000000000
00000000000000
00000000000000
ENDCHAR
STARTCHAR U+00F5
ENCODING 245
SWIDTH 1000 0
DWIDTH 30 0
BBX 49 60 -9 -12
BITMAP
000003FE3F0000
000003FE3F0000
000003FE3F0000
000007FC7E0000
000007FC7E0000
000007FC7E0000
00007E3FE00000
00007E3FE00000
00007E3FE00000
0000FC7FC00000
0000FC7FC00000
0000FC7FC00000
00000000000000
00000000000000
00000000000000
00000000000000
00000000000000
00000000000000
0000FFFFC00000
0000FFFFC00000
0000FFFFC00000
0001FFFF800000
0001FFFF800000
0001FFFF800000
001F8007E00000
001F8007E00000
001F8007E00000
003F000FC00000
003F000FC00000
003F000FC00000
007E001F800000
007E001F800000
007E001F800000
00FC003F000000
00FC003F000000
00FC003F000000
01F8007E000000
01F8007E000000
01F8007E000000
03F000FC000000
03F000FC000000
03F000FC000000
00FFFFC0000000
00FFFFC0000000
00FFFFC0000000
01FFFF80000000
01FFFF80000000
01FFFF80000000
00000000000000
00000000000000
00000000000000
00000000000000
00000000000000
00000000000000
00000000000000
00000000000000
00000000000000
00000000000000
00000000000000
00000000000000
ENDCHAR
STARTCHAR U+00F4
ENCODING 244
SWIDTH 1000 0
DWIDTH 30 0
BBX 49 60 -9 -12
BITMAP
0000007FF80000
0000007FF80000
0000007FF80000
000000FFF00000
000000FFF00000
000000FFF00000
00000FC0FC0000
00000FC0FC0000
00000FC0FC0000
00001F81F80000
00001F81F80000
00001F81F80000
00000000000000
00000000000000
00000000000000
00000000000000
00000000000000
00000000000000
0000FFFFC00000
0000FFFFC00000
0000FFFFC00000
0001FFFF800000
0001FFFF800000
0001FFFF800000
001F8007E00000
001F8007E00000
001F8007E00000
003F000FC00000
003F000FC00000
003F000FC00000
007E001F800000
007E001F800000
007E001F800000
00FC003F000000
00FC003F000000
00FC003F000000
01F8007E000000
01F8007E000000
01F8007E000000
03F000FC000000
03F000FC000000
03F000FC000000
00FFFFC0000000
00FFFFC0000000
00FFFFC0000000
01FFFF80000000
01FFFF80000000
01FFFF80000000
00000000000000
00000000000000
00000000000000
00000000000000
00000000000000
00000000000000
00000000000000
00000000000000
00000000000000
00000000000000
00000000000000
00000000000000
ENDCHAR
STARTCHAR U+00F3
ENCODING 243
SWIDTH 1000 0
DWIDTH 30 0
BBX 49 60 -9 -12
BITMAP
00000000000000
00000000000000
00000000000000
00000000000000
00000000000000
00000000000000
0000003FE00000
0000003FE00000
0000003FE00000
0000007FC00000
0000007FC00000
0000007FC00000
00003FE0000000
00003FE0000000
00003FE0000000
00007FC0000000
00007FC0000000
00007FC0000000
0000FFFFC00000
0000FFFFC00000
0000FFFFC00000
0001FFFF800000
0001FFFF800000
0001FFFF800000
001F8007E00000
001F8007E00000
001F8007E00000
003F000FC00000
003F000FC00000
003F000FC00000
007E001F800000
007E001F800000
007E001F800000
00FC003F000000
00FC003F000000
00FC003F000000
01F8007E000000
01F8007E000000
01F8007E000000
03F000FC000000
03F000FC000000
03F000FC000000
00FFFFC0000000
00FFFFC0000000
00FFFFC0000000
01FFFF80000000
01FFFF80000000
01FFFF80000000
00000000000000
00000000000000
00000000000000
00000000000000
00000000000000
00000000000000
00000000000000
00000000000000
00000000000000
00000000000000
00000000000000
00000000000000
ENDCHAR
STARTCHAR U+00F2
ENCODING 242
SWIDTH 1000 0
DWIDTH 30 0
BBX 49 60 -9 -12
BITMAP
00000000000000
00000000000000
00000000000000
00000000000000
00000000000000
00000000000000
000001FF000000
000001FF000000
000001FF000000
000003FE000000
000003FE000000
000003FE000000
0000001FF00000
0000001FF00000
0000001FF00000
0000003FE00000
0000003FE00000
0000003FE00000
0000FFFFC00000
0000FFFFC00000
0000FFFFC00000
0001FFFF800000
0001FFFF800000
0001FFFF800000
001F8007E00000
001F8007E00000
001F8007E00000
003F000FC00000
003F000FC00000
003F000FC00000
007E001F800000
007E001F800000
007E001F800000
00FC003F000000
00FC003F000000
00FC003F000000
01F8007E000000
01F8007E000000
01F8007E000000
03F000FC000000
03F000FC000000
03F000FC000000
00FFFFC0000000
00FFFFC0000000
00FFFFC0000000
01FFFF80000000
01FFFF80000000
01FFFF80000000
00000000000000
00000000000000
00000000000000
00000000000000
00000000000000
00000000000000
00000000000000
00000000000000
00000000000000
00000000000000
00000000000000
00000000000000
ENDCHAR
STARTCHAR U+00F1
ENCODING 241
SWIDTH 1000 0
DWIDTH 30 0
BBX 49 60 -9 -12
BITMAP
000003FE3F0000
000003FE3F0000
000003FE3F0000
000007FC7E0000
000007FC7E0000
000007FC7E0000
00007E3FE00000
00007E3FE00000
00007E3FE00000
0000FC7FC00000
0000FC7FC00000
0000FC7FC00000
00000000000000
00000000000000
00000000000000
00000000000000
00000000000000
00000000000000
0007FFFFC00000
0007FFFFC00000
0007FFFFC00000
000FFFFF800000
000FFFFF800000
000FFFFF800000
001FF007E00000
001FF007E00000
001FF007E00000
003FE00FC00000
003FE00FC00000
003FE00FC00000
007E001F800000
007E001F800000
007E001F800000
00FC003F000000
00FC003F000000
00FC003F000000
01F8007E000000
01F8007E000000
01F8007E000000
03F000FC000000
03F000FC000000
03F000FC000000
07E001F8000000
07E001F8000000
07E001F8000000
0FC003F0000000
0FC003F0000000
0FC003F0000000
00000000000000
00000000000000
00000000000000
00000000000000
00000000000000
00000000000000
00000000000000
00000000000000
00000000000000
00000000000000
00000000000000
00000000000000
ENDCHAR
STARTCHAR U+00F0
ENCODING 240
SWIDTH 1000 0
DWIDTH 30 0
BBX 49 60 -9 -12
BITMAP
0000000FC7E000
0000000FC7E000
0000000FC7E000
0000001F8FC000
0000001F8FC000
0000001F8FC000
00000007FC0000
00000007FC0000
00000007FC0000
0000000FF80000
0000000FF80000
0000000FF80000
000000FC7E0000
000000FC7E0000
000000FC7E0000
000001F8FC0000
000001F8FC0000
000001F8FC0000
0000FFFFF80000
0000FFFFF80000
0000FFFFF80000
0001FFFFF00000
0001FFFFF00000
0001FFFFF00000
001F803FE00000
001F803FE00000
001F803FE00000
003F007FC00000
003F007FC00000
003F007FC00000
007E001F800000
007E001F800000
007E001F800000
00FC003F000000
00FC003F000000
00FC003F000000
01F803F0000000
01F803F0000000
01F803F0000000
03F007E0000000
03F007E0000000
03F007E0000000
00FFFE00000000
00FFFE00000000
00FFFE00000000
01FFFC00000000
01FFFC00000000
01FFFC00000000
00000000000000
00000000000000
00000000000000
00000000000000
00000000000000
00000000000000
00000000000000
00000000000000
00000000000000
00000000000000
00000000000000
00000000000000
ENDCHAR
STARTCHAR U+00EF
ENCODING 239
SWIDTH 1000 0
DWIDTH 30 0
BBX 49 60 -9 -12
BITMAP
00000000000000
00000000000000
00000000000000
00000000000000
00000000000000
00000000000000
00000FC0FC0000
00000FC0FC0000
00000FC0FC0000
00001F81F80000
00001F81F80000
00001F81F80000
00000000000000
00000000000000
00000000000000
00000000000000
00000000000000
00000000000000
00001FF0000000
00001FF0000000
00001FF0000000
00003FE0000000
00003FE0000000
00003FE0000000
00000FC0000000
00000FC0000000
00000FC0000000
00001F80000000
00001F80000000
00001F80000000
00003F00000000
00003F00000000
00003F00000000
00007E00000000
00007E00000000
00007E00000000
0000FC00000000
0000FC00000000
0000FC00000000
0001F800000000
0001F800000000
0001F800000000
00FFFFC0000000
00FFFFC0000000
00FFFFC0000000
01FFFF80000000
01FFFF80000000
01FFFF80000000
00000000000000
00000000000000
00000000000000
00000000000000
00000000000000
00000000000000
00000000000000
00000000000000
00000000000000
00000000000000
00000000000000
00000000000000
ENDCHAR
STARTCHAR U+00EE
ENCODING 238
SWIDTH 1000 0
DWIDTH 30 0
BBX 49 60 -9 -12
BITMAP
0000007FF80000
0000007FF80000
0000007FF80000
000000FFF00000
000000FFF00000
000000FFF00000
00000FC0FC0000
00000FC0FC0000
00000FC0FC0000
00001F81F80000
00001F81F80000
00001F81F80000
00000000000000
00000000000000
00000000000000
00000000000000
00000000000000
00000000000000
00001FF0000000
00001FF0000000
00001FF0000000
00003FE0000000
00003FE0000000
00003FE0000000
00000FC0000000
00000FC0000000
00000FC0000000
00001F80000000
00001F80000000
00001F80000000
00003F00000000
00003F00000000
00003F00000000
00007E00000000
00007E00000000
00007E00000000
0000FC00000000
0000FC00000000
0000FC00000000
0001F800000000
0001F800000000
0001F800000000
00FFFFC0000000
00FFFFC0000000
00FFFFC0000000
01FFFF80000000
01FFFF80000000
01FFFF80000000
00000000000000
00000000000000
00000000000000
00000000000000
00000000000000
00000000000000
00000000000000
00000000000000
00000000000000
00000000000000
00000000000000
00000000000000
ENDCHAR
STARTCHAR U+00ED
ENCODING 237
SWIDTH 1000 0
DWIDTH 30 0
BBX 49 60 -9 -12
BITMAP
00000000000000
00000000000000
00000000000000
00000000000000
00000000000000
00000000000000
0000003FE00000
0000003FE00000
0000003FE00000
0000007FC00000
0000007FC00000
0000007FC00000
00003FE0000000
00003FE0000000
00003FE0000000
00007FC0000000
00007FC0000000
00007FC0000000
00001FF0000000
00001FF0000000
00001FF0000000
00003FE0000000
00003FE0000000
00003FE0000000
00000FC0000000
00000FC0000000
00000FC0000000
00001F80000000
00001F80000000
00001F80000000
00003F00000000
00003F00000000
00003F00000000
00007E00000000
00007E00000000
00007E00000000
0000FC00000000
0000FC00000000
0000FC00000000
0001F800000000
0001F800000000
0001F800000000
00FFFFC0000000
00FFFFC0000000
00FFFFC0000000
01FFFF80000000
01FFFF80000000
01FFFF80000000
00000000000000
00000000000000
00000000000000
00000000000000
00000000000000
00000000000000
00000000000000
00000000000000
00000000000000
00000000000000
00000000000000
00000000000000
ENDCHAR
STARTCHAR U+00EC
ENCODING 236
SWIDTH 1000 0
DWIDTH 30 0
BBX 49 60 -9 -12
BITMAP
00000000000000
00000000000000
00000000000000
00000000000000
00000000000000
00000000000000
00000FF8000000
00000FF8000000
00000FF8000000
00001FF0000000
00001FF0000000
00001FF0000000
000000FF800000
000000FF800000
000000FF800000
000001FF000000
000001FF000000
000001FF000000
00001FF0000000
00001FF0000000
00001FF0000000
00003FE0000000
00003FE0000000
00003FE0000000
00000FC0000000
00000FC0000000
00000FC0000000
00001F80000000
00001F80000000
00001F80000000
00003F00000000
00003F00000000
00003F00000000
00007E00000000
00007E00000000
00007E00000000
0000FC00000000
0000FC00000000
0000FC00000000
0001F800000000
0001F800000000
0001F800000000
00FFFFC0000000
00FFFFC0000000
00FFFFC0000000
01FFFF80000000
01FFFF80000000
01FFFF80000000
00000000000000
00000000000000
00000000000000
00000000000000
00000000000000
00000000000000
00000000000000
00000000000000
00000000000000
00000000000000
00000000000000
00000000000000
ENDCHAR
STARTCHAR U+00EB
ENCODING 235
SWIDTH 1000 0
DWIDTH 30 0
BBX 49 60 -9 -12
BITMAP
00000000000000
00000000000000
00000000000000
00000000000000
00000000000000
00000000000000
00000FC0FC0000
00000FC0FC0000
00000FC0FC0000
00001F81F80000
00001F81F80000
00001F81F80000
00000000000000
00000000000000
00000000000000
00000000000000
00000000000000
00000000000000
0000FFFFC00000
0000FFFFC00000
0000FFFFC00000
0001FFFF800000
0001FFFF800000
0001FFFF800000
001F8007E00000
001F8007E00000
001F8007E00000
003F000FC00000
003F000FC00000
003F000FC00000
007FFFFF800000
007FFFFF800000
007FFFFF800000
00FFFFFF000000
00FFFFFF000000
00FFFFFF000000
01F80000000000
01F80000000000
01F80000000000
03F00000000000
03F00000000000
03F00000000000
00FFFFC0000000
00FFFFC0000000
00FFFFC0000000
01FFFF80000000
01FFFF80000000
01FFFF80000000
00000000000000
00000000000000
00000000000000
00000000000000
00000000000000
00000000000000
00000000000000
00000000000000
00000000000000
00000000000000
00000000000000
00000000000000
ENDCHAR
STARTCHAR U+00EA
ENCODING 234
SWIDTH 1000 0
DWIDTH 30 0
BBX 49 60 -9 -12
BITMAP
0000007FF80000
0000007FF80000
0000007FF80000
000000FFF00000
000000FFF00000
000000FFF00000
00000FC0FC0000
00000FC0FC0000
00000FC0FC0000
00001F81F80000
00001F81F80000
00001F81F80000
00000000000000
00000000000000
00000000000000
00000000000000
00000000000000
00000000000000
0000FFFFC00000
0000FFFFC00000
0000FFFFC00000
0001FFFF800000
0001FFFF800000
0001FFFF800000
001F8007E00000
001F8007E00000
001F8007E00000
003F000FC00000
003F000FC00000
003F000FC00000
007FFFFF800000
007FFFFF800000
007FFFFF800000
00FFFFFF000000
00FFFFFF000000
00FFFFFF000000
01F80000000000
01F80000000000
01F80000000000
03F00000000000
03F00000000000
03F00000000000
00FFFFC0000000
00FFFFC0000000
00FFFFC0000000
01FFFF80000000
01FFFF80000000
01FFFF80000000
00000000000000
00000000000000
00000000000000
00000000000000
00000000000000
00000000000000
00000000000000
00000000000000
00000000000000
00000000000000
00000000000000
00000000000000
ENDCHAR
STARTCHAR U+00E9
ENCODING 233
SWIDTH 1000 0
DWIDTH 30 0
BBX 49 60 -9 -12
BITMAP
00000000000000
00000000000000
00000000000000
00000000000000
00000000000000
00000000000000
0000003FE00000
0000003FE00000
0000003FE00000
0000007FC00000
0000007FC00000
0000007FC00000
00003FE0000000
00003FE0000000
00003FE0000000
00007FC0000000
00007FC0000000
00007FC0000000
0000FFFFC00000
0000FFFFC00000
0000FFFFC00000
0001FFFF800000
0001FFFF800000
0001FFFF800000
001F8007E00000
001F8007E00000
001F8007E00000
003F000FC00000
003F000FC00000
003F000FC00000
007FFFFF800000
007FFFFF800000
007FFFFF800000
00FFFFFF000000
00FFFFFF000000
00FFFFFF000000
01F80000000000
01F80000000000
01F80000000000
03F00000000000
03F00000000000
03F00000000000
00FFFFC0000000
00FFFFC0000000
00FFFFC0000000
01FFFF80000000
01FFFF80000000
01FFFF80000000
00000000000000
00000000000000
00000000000000
00000000000000
00000000000000
00000000000000
00000000000000
00000000000000
00000000000000
00000000000000
00000000000000
00000000000000
ENDCHAR
STARTCHAR U+00E8
ENCODING 232
SWIDTH 1000 0
DWIDTH 30 0
BBX 49 60 -9 -12
BITMAP
00000000000000
00000000000000
00000000000000
00000000000000
00000000000000
00000000000000
000001FF000000
000001FF000000
000001FF000000
000003FE000000
000003FE000000
000003FE000000
0000001FF00000
0000001FF00000
0000001FF00000
0000003FE00000
0000003FE00000
0000003FE00000
0000FFFFC00000
0000FFFFC00000
0000FFFFC00000
0001FFFF800000
0001FFFF800000
0001FFFF800000
001F8007E00000
001F8007E00000
001F8007E00000
003F000FC00000
003F000FC00000
003F000FC00000
007FFFFF800000
007FFFFF800000
007FFFFF800000
00FFFFFF000000
00FFFFFF000000
00FFFFFF000000
01F80000000000
01F80000000000
01F80000000000
03F00000000000
03F00000000000
03F00000000000
00FFFFC0000000
00FFFFC0000000
00FFFFC0000000
01FFFF80000000
01FFFF80000000
01FFFF80000000
00000000000000
00000000000000
00000000000000
00000000000000
00000000000000
00000000000000
00000000000000
00000000000000
00000000000000
00000000000000
00000000000000
00000000000000
ENDCHAR
STARTCHAR U+00E7
ENCODING 231
SWIDTH 1000 0
DWIDTH 30 0
BBX 49 60 -9 -12
BITMAP
00000000000000
00000000000000
00000000000000
00000000000000
00000000000000
00000000000000
00000000000000
00000000000000
00000000000000
00000000000000
00000000000000
00000000000000
00000000000000
00000000000000
00000000000000
00000000000000
00000000000000
00000000000000
0000FFFFC00000
0000FFFFC00000
0000FFFFC00000
0001FFFF800000
0001FFFF800000
0001FFFF800000
001F8007E00000
001F8007E00000
001F8007E00000
003F000FC00000
003F000FC00000
003F000FC00000
007E0000000000
007E0000000000
007E0000000000
00FC0000000000
00FC0000000000
00FC0000000000
01F8007E000000
01F8007E000000
01F8007E000000
03F000FC000000
03F000FC000000
03F000FC000000
00FFFFC0000000
00FFFFC0000000
00FFFFC0000000
01FFFF80000000
01FFFF80000000
01FFFF80000000
0001F800000000
0001F800000000
0001F800000000
0003F000000000
0003F000000000
0003F000000000
01FFE000000000
01FFE000000000
01FFE000000000
03FFC000000000
03FFC000000000
03FFC000000000
ENDCHAR
STARTCHAR U+00E6
ENCODING 230
SWIDTH 1000 0
DWIDTH 30 0
BBX 49 60 -9 -12
BITMAP
00000000000000
00000000000000
00000000000000
00000000000000
00000000000000
00000000000000
00000000000000
00000000000000
00000000000000
00000000000000
00000000000000
00000000000000
00000000000000
00000000000000
00000000000000
00000000000000
00000000000000
00000000000000
0000FFFFC00000
0000FFFFC00000
0000FFFFC00000
0001FFFF800000
0001FFFF800000
0001FFFF800000
00000FC7E00000
00000FC7E00000
00000FC7E00000
00001F8FC00000
00001F8FC00000
00001F8FC00000
000FFFFF800000
000FFFFF800000
000FFFFF800000
001FFFFF000000
001FFFFF000000
001FFFFF000000
01F8FC00000000
01F8FC00000000
01F8FC00000000
03F1F800000000
03F1F800000000
03F1F800000000
00FFFFF8000000
00FFFFF8000000
00FFFFF8000000
01FFFFF0000000
01FFFFF0000000
01FFFFF0000000
00000000000000
00000000000000
00000000000000
00000000000000
00000000000000
00000000000000
00000000000000
00000000000000
00000000000000
00000000000000
00000000000000
00000000000000
ENDCHAR
STARTCHAR U+00E5
ENCODING 229
SWIDTH 1000 0
DWIDTH 30 0
BBX 49 60 -9 -12
BITMAP
0000007FF80000
0000007FF80000
0000007FF80000
000000FFF00000
000000FFF00000
000000FFF00000
00000FC0FC0000
00000FC0FC0000
00000FC0FC0000
00001F81F80000
00001F81F80000
00001F81F80000
000007FF800000
000007FF800000
000007FF800000
00000FFF000000
00000FFF000000
00000FFF000000
0000FFFFC00000
0000FFFFC00000
0000FFFFC00000
0001FFFF800000
0001FFFF800000
0001FFFF800000
00000007E00000
00000007E00000
00000007E00000
0000000FC00000
0000000FC00000
0000000FC00000
000FFFFF800000
000FFFFF800000
000FFFFF800000
001FFFFF000000
001FFFFF000000
001FFFFF000000
01F803FE000000
01F803FE000000
01F803FE000000
03F007FC000000
03F007FC000000
03F007FC000000
00FFFFF8000000
00FFFFF8000000
00FFFFF8000000
01FFFFF0000000
01FFFFF0000000
01FFFFF0000000
00000000000000
00000000000000
00000000000000
00000000000000
00000000000000
00000000000000
00000000000000
00000000000000
00000000000000
00000000000000
00000000000000
00000000000000
ENDCHAR
STARTCHAR U+00E4
ENCODING 228
SWIDTH 1000 0
DWIDTH 30 0
BBX 49 60 -9 -12
BITMAP
00000000000000
00000000000000
00000000000000
00000000000000
00000000000000
00000000000000
00000FC0FC0000
00000FC0FC0000
00000FC0FC0000
00001F81F80000
00001F81F80000
00001F81F80000
00000000000000
00000000000000
00000000000000
00000000000000
00000000000000
00000000000000
0000FFFFC00000
0000FFFFC00000
0000FFFFC00000
0001FFFF800000
0001FFFF800000
0001FFFF800000
00000007E00000
00000007E00000
00000007E00000
0000000FC00000
0000000FC00000
0000000FC00000
000FFFFF800000
000FFFFF800000
000FFFFF800000
001FFFFF000000
001FFFFF000000
001FFFFF000000
01F803FE000000
01F803FE000000
01F803FE000000
03F007FC000000
03F007FC000000
03F007FC000000
00FFFFF8000000
00FFFFF8000000
00FFFFF8000000
01FFFFF0000000
01FFFFF0000000
01FFFFF0000000
00000000000000
00000000000000
00000000000000
00000000000000
00000000000000
00000000000000
00000000000000
00000000000000
00000000000000
00000000000000
00000000000000
00000000000000
ENDCHAR
STARTCHAR U+00E3
ENCODING 227
SWIDTH 1000 0
DWIDTH 30 0
BBX 49 60 -9 -12
BITMAP
0000007FC7E000
0000007FC7E000
0000007FC7E000
000000FF8FC000
000000FF8FC000
000000FF8FC000
00000FC7FC0000
00000FC7FC0000
00000FC7FC0000
00001F8FF80000
00001F8FF80000
00001F8FF80000
00000000000000
00000000000000
00000000000000
00000000000000
00000000000000
00000000000000
0000FFFFC00000
0000FFFFC00000
0000FFFFC00000
0001FFFF800000
0001FFFF800000
0001FFFF800000
00000007E00000
00000007E00000
00000007E00000
0000000FC00000
0000000FC00000
0000000FC00000
000FFFFF800000
000FFFFF800000
000FFFFF800000
001FFFFF000000
001FFFFF000000
001FFFFF000000
01F803FE000000
01F803FE000000
01F803FE000000
03F007FC000000
03F007FC000000
03F007FC000000
00FFFFF8000000
00FFFFF8000000
00FFFFF8000000
01FFFFF0000000
01FFFFF0000000
01FFFFF0000000
00000000000000
00000000000000
00000000000000
00000000000000
00000000000000
00000000000000
00000000000000
00000000000000
00000000000000
00000000000000
00000000000000
00000000000000
ENDCHAR
STARTCHAR U+00E2
ENCODING 226
SWIDTH 1000 0
DWIDTH 30 0
BBX 49 60 -9 -12
BITMAP
0000007FF80000
0000007FF80000
0000007FF80000
000000FFF00000
000000FFF00000
000000FFF00000
00000FC0FC0000
00000FC0FC0000
00000FC0FC0000
00001F81F80000
00001F81F80000
00001F81F80000
00000000000000
00000000000000
00000000000000
00000000000000
00000000000000
00000000000000
0000FFFFC00000
0000FFFFC00000
0000FFFFC00000
0001FFFF800000
0001FFFF800000
0001FFFF800000
00000007E00000
00000007E00000
00000007E00000
0000000FC00000
0000000FC00000
0000000FC00000
000FFFFF800000
000FFFFF800000
000FFFFF800000
001FFFFF000000
001FFFFF000000
001FFFFF000000
01F803FE000000
01F803FE000000
01F803FE000000
03F007FC000000
03F007FC000000
03F007FC000000
00FFFFF8000000
00FFFFF8000000
00FFFFF8000000
01FFFFF0000000
01FFFFF0000000
01FFFFF0000000
00000000000000
00000000000000
00000000000000
00000000000000
00000000000000
00000000000000
00000000000000
00000000000000
00000000000000
00000000000000
00000000000000
00000000000000
ENDCHAR
STARTCHAR U+00E1
ENCODING 225
SWIDTH 1000 0
DWIDTH 30 0
BBX 49 60 -9 -12
BITMAP
00000000000000
00000000000000
00000000000000
00000000000000
00000000000000
00000000000000
0000003FE00000
0000003FE00000
0000003FE00000
0000007FC00000
0000007FC00000
0000007FC00000
00003FE0000000
00003FE0000000
00003FE0000000
00007FC0000000
00007FC0000000
00007FC0000000
0000FFFFC00000
0000FFFFC00000
0000FFFFC00000
0001FFFF800000
0001FFFF800000
0001FFFF800000
00000007E00000
00000007E00000
00000007E00000
0000000FC00000
0000000FC00000
0000000FC00000
000FFFFF800000
000FFFFF800000
000FFFFF800000
001FFFFF000000
001FFFFF000000
001FFFFF000000
01F803FE000000
01F803FE000000
01F803FE000000
03F007FC000000
03F007FC000000
03F007FC000000
00FFFFF8000000
00FFFFF8000000
00FFFFF8000000
01FFFFF0000000
01FFFFF0000000
01FFFFF0000000
00000000000000
00000000000000
00000000000000
00000000000000
00000000000000
00000000000000
00000000000000
00000000000000
00000000000000
00000000000000
00000000000000
00000000000000
ENDCHAR
STARTCHAR U+00E0
ENCODING 224
SWIDTH 1000 0
DWIDTH 30 0
BBX 49 60 -9 -12
BITMAP
00000000000000
00000000000000
00000000000000
00000000000000
00000000000000
00000000000000
000001FF000000
000001FF000000
000001FF000000
000003FE000000
000003FE000000
000003FE000000
0000001FF00000
0000001FF00000
0000001FF00000
0000003FE00000
0000003FE00000
0000003FE00000
0000FFFFC00000
0000FFFFC00000
0000FFFFC00000
0001FFFF800000
0001FFFF800000
0001FFFF800000
00000007E00000
00000007E00000
00000007E00000
0000000FC00000
0000000FC00000
0000000FC00000
000FFFFF800000
000FFFFF800000
000FFFFF800000
001FFFFF000000
001FFFFF000000
001FFFFF000000
01F803FE000000
01F803FE000000
01F803FE000000
03F007FC000000
03F007FC000000
03F007FC000000
00FFFFF8000000
00FFFFF8000000
00FFFFF8000000
01FFFFF0000000
01FFFFF0000000
01FFFFF0000000
00000000000000
00000000000000
00000000000000
00000000000000
00000000000000
00000000000000
00000000000000
00000000000000
00000000000000
00000000000000
00000000000000
00000000000000
ENDCHAR
STARTCHAR U+00DF
ENCODING 223
SWIDTH 1000 0
DWIDTH 30 0
BBX 49 60 -9 -12
BITMAP
00000000000000
00000000000000
00000000000000
00000000000000
00000000000000
00000000000000
000001FFE00000
000001FFE00000
000001FFE00000
000003FFC00000
000003FFC00000
000003FFC00000
00003F03F00000
00003F03F00000
00003F03F00000
00007E07E00000
00007E07E00000
00007E07E00000
0007E00FC00000
0007E00FC00000
0007E00FC00000
000FC01F800000
000FC01F800000
000FC01F800000
001FFFF8000000
001FFFF8000000
001FFFF8000000
003FFFF0000000
003FFFF0000000
003FFFF0000000
007E00FC000000
007E00FC000000
007E00FC000000
00FC01F8000000
00FC01F8000000
00FC01F8000000
01FFE07E000000
01FFE07E000000
01FFE07E000000
03FFC0FC000000
03FFC0FC000000
03FFC0FC000000
07E3FFC0000000
07E3FFC0000000
07E3FFC0000000
0FC7FF80000000
0FC7FF80000000
0FC7FF80000000
1F800000000000
1F800000000000
1F800000000000
3F000000000000
3F000000000000
3F000000000000
00000000000000
00000000000000
00000000000000
00000000000000
00000000000000
00000000000000
ENDCHAR
STARTCHAR U+00DE
ENCODING 222
SWIDTH 1000 0
DWIDTH 30 0
BBX 49 60 -9 -12
BITMAP
00000000000000
00000000000000
00000000000000
00000000000000
00000000000000
00000000000000
00007FC0000000
00007FC0000000
00007FC0000000
0000FF80000000
0000FF80000000
0000FF80000000
00003FFFF00000
00003FFFF00000
00003FFFF00000
00007FFFE00000
00007FFFE00000
00007FFFE00000
0000FC01F80000
0000FC01F80000
0000FC01F80000
0001F803F00000
0001F803F00000
0001F803F00000
0003F007E00000
0003F007E00000
0003F007E00000
0007E00FC00000
0007E00FC00000
0007E00FC00000
000FC01F800000
000FC01F800000
000FC01F800000
001F803F000000
001F803F000000
001F803F000000
003FFFF0000000
003FFFF0000000
003FFFF0000000
007FFFE0000000
007FFFE0000000
007FFFE0000000
07FC0000000000
07FC0000000000
07FC0000000000
0FF80000000000
0FF80000000000
0FF80000000000
00000000000000
00000000000000
00000000000000
00000000000000
00000000000000
00000000000000
00000000000000
00000000000000
00000000000000
00000000000000
00000000000000
00000000000000
ENDCHAR
STARTCHAR U+0178
ENCODING 376
SWIDTH 1000 0
DWIDTH 30 0
BBX 49 60 -9 -12
BITMAP
000003F03F0000
000003F03F0000
000003F03F0000
000007E07E0000
000007E07E0000
000007E07E0000
00000000000000
00000000000000
00000000000000
00000000000000
00000000000000
00000000000000
0001F8007E0000
0001F8007E0000
0001F8007E0000
0003F000FC0000
0003F000FC0000
0003F000FC0000
0000FC0FC00000
0000FC0FC00000
0000FC0FC00000
0001F81F800000
0001F81F800000
0001F81F800000
00007FF8000000
00007FF8000000
00007FF8000000
0000FFF0000000
0000FFF0000000
0000FFF0000000
00003F00000000
00003F00000000
00003F00000000
00007E00000000
00007E00000000
00007E00000000
0000FC00000000
0000FC00000000
0000FC00000000
0001F800000000
0001F800000000
0001F800000000
0003F000000000
0003F000000000
0003F000000000
0007E000000000
0007E000000000
0007E000000000
00000000000000
00000000000000
00000000000000
00000000000000
00000000000000
00000000000000
00000000000000
00000000000000
00000000000000
00000000000000
00000000000000
00000000000000
ENDCHAR
STARTCHAR U+00DC
ENCODING 220
SWIDTH 1000 0
DWIDTH 30 0
BBX 49 60 -9 -12
BITMAP
000003F03F0000
000003F03F0000
000003F03F0000
000007E07E0000
000007E07E0000
000007E07E0000
00000000000000
00000000000000
00000000000000
00000000000000
00000000000000
00000000000000
0001F8007E0000
0001F8007E0000
0001F8007E0000
0003F000FC0000
0003F000FC0000
0003F000FC0000
0007E001F80000
0007E001F80000
0007E001F80000
000FC003F00000
000FC003F00000
000FC003F00000
001F8007E00000
001F8007E00000
001F8007E00000
003F000FC00000
003F000FC00000
003F000FC00000
007E001F800000
007E001F800000
007E001F800000
00FC003F000000
00FC003F000000
00FC003F000000
01F8007E000000
01F8007E000000
01F8007E000000
03F000FC000000
03F000FC000000
03F000FC000000
00FFFFC0000000
00FFFFC0000000
00FFFFC0000000
01FFFF80000000
01FFFF80000000
01FFFF80000000
00000000000000
00000000000000
00000000000000
00000000000000
00000000000000
00000000000000
00000000000000
00000000000000
00000000000000
00000000000000
00000000000000
00000000000000
ENDCHAR
STARTCHAR U+00DB
ENCODING 219
SWIDTH 1000 0
DWIDTH 30 0
BBX 49 60 -9 -12
BITMAP
0000000FC00000
0000000FC00000
0000000FC00000
0000001F800000
0000001F800000
0000001F800000
000001FFE00000
000001FFE00000
000001FFE00000
000003FFC00000
000003FFC00000
000007FFC00000
0001F8007E0000
0001F8007E0000
0001F8007E0000
0003F000FC0000
0003F000FC0000
0003F000FC0000
0007E001F80000
0007E001F80000
0007E001F80000
000FC003F00000
000FC003F00000
000FC003F00000
001F8007E00000
001F8007E00000
001F8007E00000
003F000FC00000
003F000FC00000
003F000FC00000
007E001F800000
007E001F800000
007E001F800000
00FC003F000000
00FC003F000000
00FC003F000000
01F8007E000000
01F8007E000000
01F8007E000000
03F000FC000000
03F000FC000000
03F000FC000000
00FFFFC0000000
00FFFFC0000000
00FFFFC0000000
01FFFF80000000
01FFFF80000000
01FFFF80000000
00000000000000
00000000000000
00000000000000
00000000000000
00000000000000
00000000000000
00000000000000
00000000000000
00000000000000
00000000000000
00000000000000
00000000000000
ENDCHAR
STARTCHAR U+00DA
ENCODING 218
SWIDTH 1000 0
DWIDTH 30 0
BBX 49 60 -9 -12
BITMAP
00000001FF0000
00000001FF0000
00000001FF0000
00000003FE0000
00000003FE0000
00000003FE0000
000001FF000000
000001FF000000
000001FF000000
000003FE000000
000003FE000000
000007FE000000
0001F8007E0000
0001F8007E0000
0001F8007E0000
0003F000FC0000
0003F000FC0000
0003F000FC0000
0007E001F80000
0007E001F80000
0007E001F80000
000FC003F00000
000FC003F00000
000FC003F00000
001F8007E00000
001F8007E00000
001F8007E00000
003F000FC00000
003F000FC00000
003F000FC00000
007E001F800000
007E001F800000
007E001F800000
00FC003F000000
00FC003F000000
00FC003F000000
01F8007E000000
01F8007E000000
01F8007E000000
03F000FC000000
03F000FC000000
03F000FC000000
00FFFFC0000000
00FFFFC0000000
00FFFFC0000000
01FFFF80000000
01FFFF80000000
01FFFF80000000
00000000000000
00000000000000
00000000000000
00000000000000
00000000000000
00000000000000
00000000000000
00000000000000
00000000000000
00000000000000
00000000000000
00000000000000
ENDCHAR
STARTCHAR U+00D9
ENCODING 217
SWIDTH 1000 0
DWIDTH 30 0
BBX 49 60 -9 -12
BITMAP
000003FE000000
000003FE000000
000003FE000000
000007FC000000
000007FC000000
000007FC000000
0000003FE00000
0000003FE00000
0000003FE00000
0000007FC00000
0000007FC00000
0000007FC00000
0001F8007E0000
0001F8007E0000
0001F8007E0000
0003F000FC0000
0003F000FC0000
0003F000FC0000
0007E001F80000
0007E001F80000
0007E001F80000
000FC003F00000
000FC003F00000
000FC003F00000
001F8007E00000
001F8007E00000
001F8007E00000
003F000FC00000
003F000FC00000
003F000FC00000
007E001F800000
007E001F800000
007E001F800000
00FC003F000000
00FC003F000000
00FC003F000000
01F8007E000000
01F8007E000000
01F8007E000000
03F000FC000000
03F000FC000000
03F000FC000000
00FFFFC0000000
00FFFFC0000000
00FFFFC0000000
01FFFF80000000
01FFFF80000000
01FFFF80000000
00000000000000
00000000000000
00000000000000
00000000000000
00000000000000
00000000000000
00000000000000
00000000000000
00000000000000
00000000000000
00000000000000
00000000000000
ENDCHAR
STARTCHAR U+00D8
ENCODING 216
SWIDTH 1000 0
DWIDTH 30 0
BBX 49 60 -9 -12
BITMAP
0000000007E000
0000000007E000
0000000007E000
000000000FC000
000000000FC000
000000000FC000
00000FFFFC0000
00000FFFFC0000
00000FFFFC0000
00001FFFF80000
00001FFFF80000
00001FFFF80000
0001F803FE0000
0001F803FE0000
0001F803FE0000
0003F007FC0000
0003F007FC0000
0003F007FC0000
0007E07FF80000
0007E07FF80000
0007E07FF80000
000FC0FFF00000
000FC0FFF00000
000FC0FFF00000
001F8FC7E00000
001F8FC7E00000
001F8FC7E00000
003F1F8FC00000
003F1F8FC00000
003F1F8FC00000
007FF81F800000
007FF81F800000
007FF81F800000
00FFF03F000000
00FFF03F000000
00FFF03F000000
01FF007E000000
01FF007E000000
01FF007E000000
03FE00FC000000
03FE00FC000000
03FE00FC000000
00FFFFC0000000
00FFFFC0000000
00FFFFC0000000
01FFFF80000000
01FFFF80000000
01FFFF80000000
1F800000000000
1F800000000000
1F800000000000
3F000000000000
3F000000000000
3F000000000000
00000000000000
00000000000000
00000000000000
00000000000000
00000000000000
00000000000000
ENDCHAR
STARTCHAR U+0152
ENCODING 338
SWIDTH 1000 0
DWIDTH 30 0
BBX 49 60 -9 -12
BITMAP
00000000000000
00000000000000
00000000000000
00000000000000
00000000000000
00000000000000
00000FFFFF8000
00000FFFFF8000
00000FFFFF8000
00001FFFFF0000
00001FFFFF0000
00001FFFFF0000
0001F8FC000000
0001F8FC000000
0001F8FC000000
0003F1F8000000
0003F1F8000000
0003F1F8000000
0007E3F0000000
0007E3F0000000
0007E3F0000000
000FC7E0000000
000FC7E0000000
000FC7E0000000
001F8FFF000000
001F8FFF000000
001F8FFF000000
003F1FFE000000
003F1FFE000000
003F1FFE000000
007E3F00000000
007E3F00000000
007E3F00000000
00FC7E00000000
00FC7E00000000
00FC7E00000000
01F8FC00000000
01F8FC00000000
01F8FC00000000
03F1F800000000
03F1F800000000
03F1F800000000
00FFFFF8000000
00FFFFF8000000
00FFFFF8000000
01FFFFF0000000
01FFFFF0000000
01FFFFF0000000
00000000000000
00000000000000
00000000000000
00000000000000
00000000000000
00000000000000
00000000000000
00000000000000
00000000000000
00000000000000
00000000000000
00000000000000
ENDCHAR
STARTCHAR U+00D6
ENCODING 214
SWIDTH 1000 0
DWIDTH 30 0
BBX 49 60 -9 -12
BITMAP
000003F03F0000
000003F03F0000
000003F03F0000
000007E07E0000
000007E07E0000
000007E07E0000
00000000000000
00000000000000
00000000000000
00000000000000
00000000000000
00000000000000
00003FFFF00000
00003FFFF00000
00003FFFF00000
00007FFFE00000
00007FFFE00000
00007FFFE00000
0007E001F80000
0007E001F80000
0007E001F80000
000FC003F00000
000FC003F00000
000FC003F00000
001F8007E00000
001F8007E00000
001F8007E00000
003F000FC00000
003F000FC00000
003F000FC00000
007E001F800000
007E001F800000
007E001F800000
00FC003F000000
00FC003F000000
00FC003F000000
01F8007E000000
01F8007E000000
01F8007E000000
03F000FC000000
03F000FC000000
03F000FC000000
00FFFFC0000000
00FFFFC0000000
00FFFFC0000000
01FFFF80000000
01FFFF80000000
01FFFF80000000
00000000000000
00000000000000
00000000000000
00000000000000
00000000000000
00000000000000
00000000000000
00000000000000
00000000000000
00000000000000
00000000000000
00000000000000
ENDCHAR
STARTCHAR U+00D5
ENCODING 213
SWIDTH 1000 0
DWIDTH 30 0
BBX 49 60 -9 -12
BITMAP
000003FE3F0000
000003FE3F0000
000003FE3F0000
000007FC7E0000
000007FC7E0000
000007FC7E0000
00007E3FE00000
00007E3FE00000
00007E3FE00000
0000FC7FC00000
0000FC7FC00000
0000FC7FC00000
00003FFFF00000
00003FFFF00000
00003FFFF00000
00007FFFE00000
00007FFFE00000
00007FFFE00000
0007E001F80000
0007E001F80000
0007E001F80000
000FC003F00000
000FC003F00000
000FC003F00000
001F8007E00000
001F8007E00000
001F8007E00000
003F000FC00000
003F000FC00000
003F000FC00000
007E001F800000
007E001F800000
007E001F800000
00FC003F000000
00FC003F000000
00FC003F000000
01F8007E000000
01F8007E000000
01F8007E000000
03F000FC000000
03F000FC000000
03F000FC000000
00FFFFC0000000
00FFFFC0000000
00FFFFC0000000
01FFFF80000000
01FFFF80000000
01FFFF80000000
00000000000000
00000000000000
00000000000000
00000000000000
00000000000000
00000000000000
00000000000000
00000000000000
00000000000000
00000000000000
00000000000000
00000000000000
ENDCHAR
STARTCHAR U+00D4
ENCODING 212
SWIDTH 1000 0
DWIDTH 30 0
BBX 49 60 -9 -12
BITMAP
0000007FF80000
0000007FF80000
0000007FF80000
000000FFF00000
000000FFF00000
000000FFF00000
00000FC0FC0000
00000FC0FC0000
00000FC0FC0000
00001F81F80000
00001F81F80000
00001F81F80000
00003FFFF00000
00003FFFF00000
00003FFFF00000
00007FFFE00000
00007FFFE00000
00007FFFE00000
0007E001F80000
0007E001F80000
0007E001F80000
000FC003F00000
000FC003F00000
000FC003F00000
001F8007E00000
001F8007E00000
001F8007E00000
003F000FC00000
003F000FC00000
003F000FC00000
007E001F800000
007E001F800000
007E001F800000
00FC003F000000
00FC003F000000
00FC003F000000
01F8007E000000
01F8007E000000
01F8007E000000
03F000FC000000
03F000FC000000
03F000FC000000
00FFFFC0000000
00FFFFC0000000
00FFFFC0000000
01FFFF80000000
01FFFF80000000
01FFFF80000000
00000000000000
00000000000000
00000000000000
00000000000000
00000000000000
00000000000000
00000000000000
00000000000000
00000000000000
00000000000000
00000000000000
00000000000000
ENDCHAR
STARTCHAR U+00D3
ENCODING 211
SWIDTH 1000 0
DWIDTH 30 0
BBX 49 60 -9 -12
BITMAP
0000000FF80000
0000000FF80000
0000000FF80000
0000001FF00000
0000001FF00000
0000001FF00000
00000FF8000000
00000FF8000000
00000FF8000000
00001FF0000000
00001FF0000000
00001FF0000000
00003FFFF00000
00003FFFF00000
00003FFFF00000
00007FFFE00000
00007FFFE00000
00007FFFE00000
0007E001F80000
0007E001F80000
0007E001F80000
000FC003F00000
000FC003F00000
000FC003F00000
001F8007E00000
001F8007E00000
001F8007E00000
003F000FC00000
003F000FC00000
003F000FC00000
007E001F800000
007E001F800000
007E001F800000
00FC003F000000
00FC003F000000
00FC003F000000
01F8007E000000
01F8007E000000
01F8007E000000
03F000FC000000
03F000FC000000
03F000FC000000
00FFFFC0000000
00FFFFC0000000
00FFFFC0000000
01FFFF80000000
01FFFF80000000
01FFFF80000000
00000000000000
00000000000000
00000000000000
00000000000000
00000000000000
00000000000000
00000000000000
00000000000000
00000000000000
00000000000000
00000000000000
00000000000000
ENDCHAR
STARTCHAR U+00D2
ENCODING 210
SWIDTH 1000 0
DWIDTH 30 0
BBX 49 60 -9 -12
BITMAP
0000007FC00000
0000007FC00000
0000007FC00000
000000FF800000
000000FF800000
000000FF800000
00000007FC0000
00000007FC0000
00000007FC0000
0000000FF80000
0000000FF80000
0000000FF80000
00003FFFF00000
00003FFFF00000
00003FFFF00000
00007FFFE00000
00007FFFE00000
00007FFFE00000
0007E001F80000
0007E001F80000
0007E001F80000
000FC003F00000
000FC003F00000
000FC003F00000
001F8007E00000
001F8007E00000
001F8007E00000
003F000FC00000
003F000FC00000
003F000FC00000
007E001F800000
007E001F800000
007E001F800000
00FC003F000000
00FC003F000000
00FC003F000000
01F8007E000000
01F8007E000000
01F8007E000000
03F000FC000000
03F000FC000000
03F000FC000000
00FFFFC0000000
00FFFFC0000000
00FFFFC0000000
01FFFF80000000
01FFFF80000000
01FFFF80000000
00000000000000
00000000000000
00000000000000
00000000000000
00000000000000
00000000000000
00000000000000
00000000000000
00000000000000
00000000000000
00000000000000
00000000000000
ENDCHAR
STARTCHAR U+00D1
ENCODING 209
SWIDTH 1000 0
DWIDTH 30 0
BBX 49 60 -9 -12
BITMAP
0000007FC7E000
0000007FC7E000
0000007FC7E000
000000FF8FC000
000000FF8FC000
000000FF8FC000
00000FC7FC0000
00000FC7FC0000
00000FC7FC0000
00001F8FF80000
00001F8FF80000
00001F8FF80000
0001FF007E0000
0001FF007E0000
0001FF007E0000
0003FE00FC0000
0003FE00FC0000
0003FE00FC0000
0007FF81F80000
0007FF81F80000
0007FF81F80000
000FFF03F00000
000FFF03F00000
000FFF03F00000
001F8FC7E00000
001F8FC7E00000
001F8FC7E00000
003F1F8FC00000
003F1F8FC00000
003F1F8FC00000
007E07FF800000
007E07FF800000
007E07FF800000
00FC0FFF000000
00FC0FFF000000
00FC0FFF000000
01F803FE000000
01F803FE000000
01F803FE000000
03F007FC000000
03F007FC000000
03F007FC000000
07E001F8000000
07E001F8000000
07E001F8000000
0FC003F0000000
0FC003F0000000
0FC003F0000000
00000000000000
00000000000000
00000000000000
00000000000000
00000000000000
00000000000000
00000000000000
00000000000000
00000000000000
00000000000000
00000000000000
00000000000000
ENDCHAR
STARTCHAR U+00D0
ENCODING 208
SWIDTH 1000 0
DWIDTH 30 0
BBX 49 60 -9 -12
BITMAP
00000000000000
00000000000000
00000000000000
00000000000000
00000000000000
00000000000000
00007FFFE00000
00007FFFE00000
00007FFFE00000
0000FFFFC00000
0000FFFFC00000
0000FFFFC00000
00003F03F00000
00003F03F00000
00003F03F00000
00007E07E00000
00007E07E00000
00007E07E00000
0000FC01F80000
0000FC01F80000
0000FC01F80000
0001F803F00000
0001F803F00000
0001F803F00000
001FFFC7E00000
001FFFC7E00000
001FFFC7E00000
003FFF8FC00000
003FFF8FC00000
003FFF8FC00000
000FC01F800000
000FC01F800000
000FC01F800000
001F803F000000
001F803F000000
001F803F000000
003F03F0000000
003F03F0000000
003F03F0000000
007E07E0000000
007E07E0000000
007E07E0000000
07FFFE00000000
07FFFE00000000
07FFFE00000000
0FFFFC00000000
0FFFFC00000000
0FFFFC00000000
00000000000000
00000000000000
00000000000000
00000000000000
00000000000000
00000000000000
00000000000000
00000000000000
00000000000000
00000000000000
00000000000000
00000000000000
ENDCHAR
STARTCHAR U+00CF
ENCODING 207
SWIDTH 1000 0
DWIDTH 30 0
BBX 49 60 -9 -12
BITMAP
000003F03F0000
000003F03F0000
000003F03F0000
000007E07E0000
000007E07E0000
000007E07E0000
00000000000000
00000000000000
00000000000000
00000000000000
00000000000000
00000000000000
00003FFFF00000
00003FFFF00000
00003FFFF00000
00007FFFE00000
00007FFFE00000
00007FFFE00000
000003F0000000
000003F0000000
000003F0000000
000007E0000000
000007E0000000
000007E0000000
00000FC0000000
00000FC0000000
00000FC0000000
00001F80000000
00001F80000000
00001F80000000
00003F00000000
00003F00000000
00003F00000000
00007E00000000
00007E00000000
00007E00000000
0000FC00000000
0000FC00000000
0000FC00000000
0001F800000000
0001F800000000
0001F800000000
00FFFFC0000000
00FFFFC0000000
00FFFFC0000000
01FFFF80000000
01FFFF80000000
01FFFF80000000
00000000000000
00000000000000
00000000000000
00000000000000
00000000000000
00000000000000
00000000000000
00000000000000
00000000000000
00000000000000
00000000000000
00000000000000
ENDCHAR
STARTCHAR U+00CE
ENCODING 206
SWIDTH 1000 0
DWIDTH 30 0
BBX 49 60 -9 -12
BITMAP
0000007FF80000
0000007FF80000
0000007FF80000
000000FFF00000
000000FFF00000
000000FFF00000
00000FC0FC0000
00000FC0FC0000
00000FC0FC0000
00001F81F80000
00001F81F80000
00001F81F80000
00003FFFF00000
00003FFFF00000
00003FFFF00000
00007FFFE00000
00007FFFE00000
00007FFFE00000
000003F0000000
000003F0000000
000003F0000000
000007E0000000
000007E0000000
000007E0000000
00000FC0000000
00000FC0000000
00000FC0000000
00001F80000000
00001F80000000
00001F80000000
00003F00000000
00003F00000000
00003F00000000
00007E00000000
00007E00000000
00007E00000000
0000FC00000000
0000FC00000000
0000FC00000000
0001F800000000
0001F800000000
0001F800000000
00FFFFC0000000
00FFFFC0000000
00FFFFC0000000
01FFFF80000000
01FFFF80000000
01FFFF80000000
00000000000000
00000000000000
00000000000000
00000000000000
00000000000000
00000000000000
00000000000000
00000000000000
00000000000000
00000000000000
00000000000000
00000000000000
ENDCHAR
STARTCHAR U+00CD
ENCODING 205
SWIDTH 1000 0
DWIDTH 30 0
BBX 49 60 -9 -12
BITMAP
0000000FF80000
0000000FF80000
0000000FF80000
0000001FF00000
0000001FF00000
0000001FF00000
00000FF8000000
00000FF8000000
00000FF8000000
00001FF0000000
00001FF0000000
00001FF0000000
00003FFFF00000
00003FFFF00000
00003FFFF00000
00007FFFE00000
00007FFFE00000
00007FFFE00000
000003F0000000
000003F0000000
000003F0000000
000007E0000000
000007E0000000
000007E0000000
00000FC0000000
00000FC0000000
00000FC0000000
00001F80000000
00001F80000000
00001F80000000
00003F00000000
00003F00000000
00003F00000000
00007E00000000
00007E00000000
00007E00000000
0000FC00000000
0000FC00000000
0000FC00000000
0001F800000000
0001F800000000
0001F800000000
00FFFFC0000000
00FFFFC0000000
00FFFFC0000000
01FFFF80000000
01FFFF80000000
01FFFF80000000
00000000000000
00000000000000
00000000000000
00000000000000
00000000000000
00000000000000
00000000000000
00000000000000
00000000000000
00000000000000
00000000000000
00000000000000
ENDCHAR
STARTCHAR U+00CC
ENCODING 204
SWIDTH 1000 0
DWIDTH 30 0
BBX 49 60 -9 -12
BITMAP
0000007FC00000
0000007FC00000
0000007FC00000
000000FF800000
000000FF800000
000000FF800000
00000007FC0000
00000007FC0000
00000007FC0000
0000000FF80000
0000000FF80000
0000000FF80000
00003FFFF00000
00003FFFF00000
00003FFFF00000
00007FFFE00000
00007FFFE00000
00007FFFE00000
000003F0000000
000003F0000000
000003F0000000
000007E0000000
000007E0000000
000007E0000000
00000FC0000000
00000FC0000000
00000FC0000000
00001F80000000
00001F80000000
00001F80000000
00003F00000000
00003F00000000
00003F00000000
00007E00000000
00007E00000000
00007E00000000
0000FC00000000
0000FC00000000
0000FC00000000
0001F800000000
0001F800000000
0001F800000000
00FFFFC0000000
00FFFFC0000000
00FFFFC0000000
01FFFF80000000
01FFFF80000000
01FFFF80000000
00000000000000
00000000000000
00000000000000
00000000000000
00000000000000
00000000000000
00000000000000
00000000000000
00000000000000
00000000000000
00000000000000
00000000000000
ENDCHAR
STARTCHAR U+00CB
ENCODING 203
SWIDTH 1000 0
DWIDTH 30 0
BBX 49 60 -9 -12
BITMAP
000003F03F0000
000003F03F0000
000003F03F0000
000007E07E0000
000007E07E0000
000007E07E0000
00000000000000
00000000000000
00000000000000
00000000000000
00000000000000
00000000000000
0001FFFFFE0000
0001FFFFFE0000
0001FFFFFE0000
0003FFFFFC0000
0003FFFFFC0000
0003FFFFFC0000
0007E000000000
0007E000000000
0007E000000000
000FC000000000
000FC000000000
000FC000000000
001FFFF8000000
001FFFF8000000
001FFFF8000000
003FFFF0000000
003FFFF0000000
003FFFF0000000
007E0000000000
007E0000000000
007E0000000000
00FC0000000000
00FC0000000000
00FC0000000000
01F80000000000
01F80000000000
01F80000000000
03F00000000000
03F00000000000
03F00000000000
07FFFFF8000000
07FFFFF8000000
07FFFFF8000000
0FFFFFF0000000
0FFFFFF0000000
0FFFFFF0000000
00000000000000
00000000000000
00000000000000
00000000000000
00000000000000
00000000000000
00000000000000
00000000000000
00000000000000
00000000000000
00000000000000
00000000000000
ENDCHAR
STARTCHAR U+00CA
ENCODING 202
SWIDTH 1000 0
DWIDTH 30 0
BBX 49 60 -9 -12
BITMAP
0000007FF80000
0000007FF80000
0000007FF80000
000000FFF00000
000000FFF00000
000000FFF00000
00000FC0FC0000
00000FC0FC0000
00000FC0FC0000
00001F81F80000
00001F81F80000
00001F81F80000
0001FFFFFE0000
0001FFFFFE0000
0001FFFFFE0000
0003FFFFFC0000
0003FFFFFC0000
0003FFFFFC0000
0007E000000000
0007E000000000
0007E000000000
000FC000000000
000FC000000000
000FC000000000
001FFFC0000000
001FFFC0000000
001FFFC0000000
003FFF80000000
003FFF80000000
003FFF80000000
007E0000000000
007E0000000000
007E0000000000
00FC0000000000
00FC0000000000
00FC0000000000
01F80000000000
01F80000000000
01F80000000000
03F00000000000
03F00000000000
03F00000000000
07FFFFF8000000
07FFFFF8000000
07FFFFF8000000
0FFFFFF0000000
0FFFFFF0000000
0FFFFFF0000000
00000000000000
00000000000000
00000000000000
00000000000000
00000000000000
00000000000000
00000000000000
00000000000000
00000000000000
00000000000000
00000000000000
00000000000000
ENDCHAR
STARTCHAR U+00C9
ENCODING 201
SWIDTH 1000 0
DWIDTH 30 0
BBX 49 60 -9 -12
BITMAP
00000001FF0000
00000001FF0000
00000001FF0000
00000003FE0000
00000003FE0000
00000003FE0000
000001FF000000
000001FF000000
000001FF000000
000003FE000000
000003FE000000
000003FE000000
0001FFFFFE0000
0001FFFFFE0000
0001FFFFFE0000
0003FFFFFC0000
0003FFFFFC0000
0003FFFFFC0000
0007E000000000
0007E000000000
0007E000000000
000FC000000000
000FC000000000
000FC000000000
001FFFF8000000
001FFFF8000000
001FFFF8000000
003FFFF0000000
003FFFF0000000
003FFFF0000000
007E0000000000
007E0000000000
007E0000000000
00FC0000000000
00FC0000000000
00FC0000000000
01F80000000000
01F80000000000
01F80000000000
03F00000000000
03F00000000000
03F00000000000
07FFFFF8000000
07FFFFF8000000
07FFFFF8000000
0FFFFFF0000000
0FFFFFF0000000
0FFFFFF0000000
00000000000000
00000000000000
00000000000000
00000000000000
00000000000000
00000000000000
00000000000000
00000000000000
00000000000000
00000000000000
00000000000000
00000000000000
ENDCHAR
STARTCHAR U+00C8
ENCODING 200
SWIDTH 1000 0
DWIDTH 30 0
BBX 49 60 -9 -12
BITMAP
000003FE000000
000003FE000000
000003FE000000
000007FC000000
000007FC000000
000007FC000000
0000003FE00000
0000003FE00000
0000003FE00000
0000007FC00000
0000007FC00000
0000007FC00000
0001FFFFFE0000
0001FFFFFE0000
0001FFFFFE0000
0003FFFFFC0000
0003FFFFFC0000
0003FFFFFC0000
0007E000000000
0007E000000000
0007E000000000
000FC000000000
000FC000000000
000FC000000000
001FFFF8000000
001FFFF8000000
001FFFF8000000
003FFFF0000000
003FFFF0000000
003FFFF0000000
007E0000000000
007E0000000000
007E0000000000
00FC0000000000
00FC0000000000
00FC0000000000
01F80000000000
01F80000000000
01F80000000000
03F00000000000
03F00000000000
03F00000000000
07FFFFF8000000
07FFFFF8000000
07FFFFF8000000
0FFFFFF0000000
0FFFFFF0000000
0FFFFFF0000000
00000000000000
00000000000000
00000000000000
00000000000000
00000000000000
00000000000000
00000000000000
00000000000000
00000000000000
00000000000000
00000000000000
00000000000000
ENDCHAR
STARTCHAR U+00C7
ENCODING 199
SWIDTH 1000 0
DWIDTH 30 0
BBX 49 60 -9 -12
BITMAP
00000000000000
00000000000000
00000000000000
00000000000000
00000000000000
00000000000000
000001FFFC0000
000001FFFC0000
000001FFFC0000
000003FFF80000
000003FFF80000
000003FFF80000
00003F007E0000
00003F007E0000
00003F007E0000
00007E00FC0000
00007E00FC0000
00007E00FC0000
0007E000000000
0007E000000000
0007E000000000
000FC000000000
000FC000000000
000FC000000000
001F8000000000
001F8000000000
001F8000000000
003F0000000000
003F0000000000
003F0000000000
007E0000000000
007E0000000000
007E0000000000
00FC0000000000
00FC0000000000
00FC0000000000
003F007E000000
003F007E000000
003F007E000000
007E00FC000000
007E00FC000000
007E00FC000000
001FFFC0000000
001FFFC0000000
001FFFC0000000
003FFF80000000
003FFF80000000
003FFF80000000
0001F800000000
0001F800000000
0001F800000000
0003F000000000
0003F000000000
0003F000000000
01FFE000000000
01FFE000000000
01FFE000000000
03FFC000000000
03FFC000000000
03FFC000000000
ENDCHAR
STARTCHAR U+00C6
ENCODING 198
SWIDTH 1000 0
DWIDTH 30 0
BBX 49 60 -9 -12
BITMAP
00000000000000
00000000000000
00000000000000
00000000000000
00000000000000
00000000000000
000001FFFF8000
000001FFFF8000
000001FFFF8000
000003FFFF0000
000003FFFF0000
000003FFFF0000
00003FFC000000
00003FFC000000
00003FFC000000
00007FF8000000
00007FF8000000
00007FF8000000
0007E3F0000000
0007E3F0000000
0007E3F0000000
000FC7E0000000
000FC7E0000000
000FC7E0000000
001F8FFF000000
001F8FFF000000
001F8FFF000000
003F1FFE000000
003F1FFE000000
003F1FFE000000
007FFF00000000
007FFF00000000
007FFF00000000
00FFFE00000000
00FFFE00000000
00FFFE00000000
01F8FC00000000
01F8FC00000000
01F8FC00000000
03F1F800000000
03F1F800000000
03F1F800000000
07E3FFF8000000
07E3FFF8000000
07E3FFF8000000
0FC7FFF0000000
0FC7FFF0000000
0FC7FFF0000000
00000000000000
00000000000000
00000000000000
00000000000000
00000000000000
00000000000000
00000000000000
00000000000000
00000000000000
00000000000000
00000000000000
00000000000000
ENDCHAR
STARTCHAR U+00C5
ENCODING 197
SWIDTH 1000 0
DWIDTH 30 0
BBX 49 60 -9 -12
BITMAP
0000007FF80000
0000007FF80000
0000007FF80000
000000FFF00000
000000FFF00000
000000FFF00000
00000FC0FC0000
00000FC0FC0000
00000FC0FC0000
00001F81F80000
00001F81F80000
00001F81F80000
000007FF800000
000007FF800000
000007FF800000
00000FFF000000
00000FFF000000
00000FFF000000
00001FFE000000
00001FFE000000
00001FFE000000
00003FFC000000
00003FFC000000
00003FFC000000
0003F03F000000
0003F03F000000
0003F03F000000
0007E07E000000
0007E07E000000
0007E07E000000
007FFFFF800000
007FFFFF800000
007FFFFF800000
00FFFFFF000000
00FFFFFF000000
00FFFFFF000000
01F8007E000000
01F8007E000000
01F8007E000000
03F000FC000000
03F000FC000000
03F000FC000000
07E001F8000000
07E001F8000000
07E001F8000000
0FC003F0000000
0FC003F0000000
0FC003F0000000
00000000000000
00000000000000
00000000000000
00000000000000
00000000000000
00000000000000
00000000000000
00000000000000
00000000000000
00000000000000
00000000000000
00000000000000
ENDCHAR
STARTCHAR U+00C4
ENCODING 196
SWIDTH 1000 0
DWIDTH 30 0
BBX 49 60 -9 -12
BITMAP
000003F03F0000
000003F03F0000
000003F03F0000
000007E07E0000
000007E07E0000
000007E07E0000
00000000000000
00000000000000
00000000000000
00000000000000
00000000000000
00000000000000
000000FC000000
000000FC000000
000000FC000000
000001F8000000
000001F8000000
000001F8000000
00001FFE000000
00001FFE000000
00001FFE000000
00003FFC000000
00003FFC000000
00003FFC000000
0003F03F000000
0003F03F000000
0003F03F000000
0007E07E000000
0007E07E000000
0007E07E000000
007FFFFF800000
007FFFFF800000
007FFFFF800000
00FFFFFF000000
00FFFFFF000000
00FFFFFF000000
01F8007E000000
01F8007E000000
01F8007E000000
03F000FC000000
03F000FC000000
03F000FC000000
07E001F8000000
07E001F8000000
07E001F8000000
0FC003F0000000
0FC003F0000000
0FC003F0000000
00000000000000
00000000000000
00000000000000
00000000000000
00000000000000
00000000000000
00000000000000
00000000000000
00000000000000
00000000000000
00000000000000
00000000000000
ENDCHAR
STARTCHAR U+00C3
ENCODING 195
SWIDTH 1000 0
DWIDTH 30 0
BBX 49 60 -9 -12
BITMAP
0000007FC7E000
0000007FC7E000
0000007FC7E000
000000FF8FC000
000000FF8FC000
000000FF8FC000
00000FC7FC0000
00000FC7FC0000
00000FC7FC0000
00001F8FF80000
00001F8FF80000
00001F8FF80000
000000FC000000
000000FC000000
000000FC000000
000001F8000000
000001F8000000
000001F8000000
00001FFE000000
00001FFE000000
00001FFE000000
00003FFC000000
00003FFC000000
00003FFC000000
0003F03F000000
0003F03F000000
0003F03F000000
0007E07E000000
0007E07E000000
0007E07E000000
007FFFFF800000
007FFFFF800000
007FFFFF800000
00FFFFFF000000
00FFFFFF000000
00FFFFFF000000
01F8007E000000
01F8007E000000
01F8007E000000
03F000FC000000
03F000FC000000
03F000FC000000
07E001F8000000
07E001F8000000
07E001F8000000
0FC003F0000000
0FC003F0000000
0FC003F0000000
00000000000000
00000000000000
00000000000000
00000000000000
00000000000000
00000000000000
00000000000000
00000000000000
00000000000000
00000000000000
00000000000000
00000000000000
ENDCHAR
STARTCHAR U+00C2
ENCODING 194
SWIDTH 1000 0
DWIDTH 30 0
BBX 49 60 -9 -12
BITMAP
0000007FF80000
0000007FF80000
0000007FF80000
000000FFF00000
000000FFF00000
000000FFF00000
00000FC0FC0000
00000FC0FC0000
00000FC0FC0000
00001F81F80000
00001F81F80000
00001F83F80000
000000FC000000
000000FC000000
000000FC000000
000001F8000000
000001F8000000
000001F8000000
00001FFE000000
00001FFE000000
00001FFE000000
00003FFC000000
00003FFC000000
00003FFC000000
0003F03F000000
0003F03F000000
0003F03F000000
0007E07E000000
0007E07E000000
0007E07E000000
007FFFFF800000
007FFFFF800000
007FFFFF800000
00FFFFFF000000
00FFFFFF000000
00FFFFFF000000
01F8007E000000
01F8007E000000
01F8007E000000
03F000FC000000
03F000FC000000
03F000FC000000
07E001F8000000
07E001F8000000
07E001F8000000
0FC003F0000000
0FC003F0000000
0FC003F0000000
00000000000000
00000000000000
00000000000000
00000000000000
00000000000000
00000000000000
00000000000000
00000000000000
00000000000000
00000000000000
00000000000000
00000000000000
ENDCHAR
STARTCHAR U+00C1
ENCODING 193
SWIDTH 1000 0
DWIDTH 30 0
BBX 49 60 -9 -12
BITMAP
0000000FF80000
0000000FF80000
0000000FF80000
0000001FF00000
0000001FF00000
0000001FF00000
00000FF8000000
00000FF8000000
00000FF8000000
00001FF0000000
00001FF0000000
00001FF0000000
000000FC000000
000000FC000000
000000FC000000
000001F8000000
000001F8000000
000001F8000000
00001FFE000000
00001FFE000000
00001FFE000000
00003FFC000000
00003FFC000000
00003FFC000000
0003F03F000000
0003F03F000000
0003F03F000000
0007E07E000000
0007E07E000000
0007E07E000000
007FFFFF800000
007FFFFF800000
007FFFFF800000
00FFFFFF000000
00FFFFFF000000
00FFFFFF000000
01F8007E000000
01F8007E000000
01F8007E000000
03F000FC000000
03F000FC000000
03F000FC000000
07E001F8000000
07E001F8000000
07E001F8000000
0FC003F0000000
0FC003F0000000
0FC003F0000000
00000000000000
00000000000000
00000000000000
00000000000000
00000000000000
00000000000000
00000000000000
00000000000000
00000000000000
00000000000000
00000000000000
00000000000000
ENDCHAR
STARTCHAR U+00C0
ENCODING 192
SWIDTH 1000 0
DWIDTH 30 0
BBX 49 60 -9 -12
BITMAP
0000007FC00000
0000007FC00000
0000007FC00000
000000FF800000
000000FF800000
000000FF800000
00000007FC0000
00000007FC0000
00000007FC0000
0000000FF80000
0000000FF80000
0000000FF80000
000000FC000000
000000FC000000
000000FC000000
000001F8000000
000001F8000000
000001F8000000
00001FFE000000
00001FFE000000
00001FFE000000
00003FFC000000
00003FFC000000
00003FFC000000
0003F03F000000
0003F03F000000
0003F03F000000
0007E07E000000
0007E07E000000
0007E07E000000
007FFFFF800000
007FFFFF800000
007FFFFF800000
00FFFFFF000000
00FFFFFF000000
00FFFFFF000000
01F8007E000000
01F8007E000000
01F8007E000000
03F000FC000000
03F000FC000000
03F000FC000000
07E001F8000000
07E001F8000000
07E001F8000000
0FC003F0000000
0FC003F0000000
0FC003F0000000
00000000000000
00000000000000
00000000000000
00000000000000
00000000000000
00000000000000
00000000000000
00000000000000
00000000000000
00000000000000
00000000000000
00000000000000
ENDCHAR
STARTCHAR U+00BF
ENCODING 191
SWIDTH 1000 0
DWIDTH 30 0
BBX 49 60 -9 -12
BITMAP
00000000000000
00000000000000
00000000000000
00000000000000
00000000000000
00000000000000
0000003F000000
0000003F000000
0000003F000000
0000007E000000
0000007E000000
0000007E000000
00000000000000
00000000000000
00000000000000
00000000000000
00000000000000
00000000000000
000003F0000000
000003F0000000
000003F0000000
000007E0000000
000007E0000000
000007E0000000
00000FC0000000
00000FC0000000
00000FC0000000
00001F80000000
00001F80000000
00001F80000000
000FF800000000
000FF800000000
000FF800000000
001FF000000000
001FF000000000
001FF000000000
01F8007E000000
01F8007E000000
01F8007E000000
03F000FC000000
03F000FC000000
03F000FC000000
00FFFFC0000000
00FFFFC0000000
00FFFFC0000000
01FFFF80000000
01FFFF80000000
01FFFF80000000
00000000000000
00000000000000
00000000000000
00000000000000
00000000000000
00000000000000
00000000000000
00000000000000
00000000000000
00000000000000
00000000000000
00000000000000
ENDCHAR
STARTCHAR U+00BE
ENCODING 190
SWIDTH 1000 0
DWIDTH 30 0
BBX 49 60 -9 -12
BITMAP
00001FFFC00000
00001FFFC00000
00001FFFC00000
00003FFF800000
00003FFF800000
00003FFF800000
0000003F000000
0000003F000000
0000003F000000
0000007E000000
0000007E000000
0000007E000000
00003FE3F00000
00003FE3F00000
00003FE3F00000
00007FC7E00000
00007FC7E00000
00007FC7E00000
000003FE000000
000003FE000000
000003FE000000
000007FC000000
000007FC000000
000007FC000000
001FFFC0000000
001FFFC0000000
001FFFC0000000
003FFF80000000
003FFF80000000
003FFF80000000
0001F8FC000000
0001F8FC000000
0001F8FC000000
0003F1F8000000
0003F1F8000000
0003F1F8000000
003F1FF0000000
003F1FF0000000
003F1FF0000000
007E3FE0000000
007E3FE0000000
007E3FE0000000
07E3FFC0000000
07E3FFC0000000
07E3FFC0000000
0FC7FF80000000
0FC7FF80000000
0FC7FF80000000
007FFFE0000000
007FFFE0000000
007FFFE0000000
00FFFFC0000000
00FFFFC0000000
00FFFFC0000000
0000FC00000000
0000FC00000000
0000FC00000000
0001F800000000
0001F800000000
0001F800000000
ENDCHAR
STARTCHAR U+00BD
ENCODING 189
SWIDTH 1000 0
DWIDTH 30 0
BBX 49 60 -9 -12
BITMAP
00000000000000
00000000000000
00000000000000
00000000000000
00000000000000
00000000000000
00000FC0000000
00000FC0000000
00000FC0000000
00001F80000000
00001F80000000
00001F80000000
0001FF03F00000
0001FF03F00000
0001FF03F00000
0003FE07E00000
0003FE07E00000
0003FE07E00000
0000FC7E000000
0000FC7E000000
0000FC7E000000
0001F8FC000000
0001F8FC000000
0001F8FC000000
0003FFC0000000
0003FFC0000000
0003FFC0000000
0007FF80000000
0007FF80000000
0007FF80000000
0001FFFC000000
0001FFFC000000
0001FFFC000000
0003FFF8000000
0003FFF8000000
0003FFF8000000
003FFC7E000000
003FFC7E000000
003FFC7E000000
007FF8FC000000
007FF8FC000000
007FF8FC000000
07E00FC0000000
07E00FC0000000
07E00FC0000000
0FC01F80000000
0FC01F80000000
0FC01F80000000
0001F800000000
0001F800000000
0001F800000000
0003F000000000
0003F000000000
0003F000000000
003FFF80000000
003FFF80000000
003FFF80000000
007FFF00000000
007FFF00000000
007FFF00000000
ENDCHAR
STARTCHAR U+00BC
ENCODING 188
SWIDTH 1000 0
DWIDTH 30 0
BBX 49 60 -9 -12
BITMAP
00000000000000
00000000000000
00000000000000
00000000000000
00000000000000
00000000000000
00000FC0000000
00000FC0000000
00000FC0000000
00001F80000000
00001F80000000
00001F80000000
0001FF03F00000
0001FF03F00000
0001FF03F00000
0003FE07E00000
0003FE07E00000
0003FE07E00000
0000FC7E000000
0000FC7E000000
0000FC7E000000
0001F8FC000000
0001F8FC000000
0001F8FC000000
0003FFC0000000
0003FFC0000000
0003FFC0000000
0007FF80000000
0007FF80000000
0007FF80000000
0001F8FC000000
0001F8FC000000
0001F8FC000000
0003F1F8000000
0003F1F8000000
0003F1F8000000
003F1FF0000000
003F1FF0000000
003F1FF0000000
007E3FE0000000
007E3FE0000000
007E3FE0000000
07E3FFC0000000
07E3FFC0000000
07E3FFC0000000
0FC7FF80000000
0FC7FF80000000
0FC7FF80000000
007FFFE0000000
007FFFE0000000
007FFFE0000000
00FFFFC0000000
00FFFFC0000000
00FFFFC0000000
0000FC00000000
0000FC00000000
0000FC00000000
0001F800000000
0001F800000000
0001F800000000
ENDCHAR
STARTCHAR U+00BB
ENCODING 187
SWIDTH 1000 0
DWIDTH 30 0
BBX 49 60 -9 -12
BITMAP
00000000000000
00000000000000
00000000000000
00000000000000
00000000000000
00000000000000
00007E3F000000
00007E3F000000
00007E3F000000
0000FC7E000000
0000FC7E000000
0000FCFE000000
00003F1F800000
00003F1F800000
00003F1F800000
00007E3F000000
00007E3F000000
00007E7F000000
00001F8FC00000
00001F8FC00000
00001F8FC00000
00003F1F800000
00003F1F800000
00003F3F800000
00000FC7E00000
00000FC7E00000
00000FC7E00000
00001F8FC00000
00001F8FC00000
00001F8FC00000
0001F8FC000000
0001F8FC000000
0001F8FC000000
0003F1F8000000
0003F1F8000000
0003F1F8000000
003F1F80000000
003F1F80000000
003F1F80000000
007E3F00000000
007E3F00000000
007E3F00000000
07E3F000000000
07E3F000000000
07E3F000000000
0FC7E000000000
0FC7E000000000
0FC7E000000000
00000000000000
00000000000000
00000000000000
00000000000000
00000000000000
00000000000000
00000000000000
00000000000000
00000000000000
00000000000000
00000000000000
00000000000000
ENDCHAR
STARTCHAR U+00BA
ENCODING 186
SWIDTH 1000 0
DWIDTH 30 0
BBX 49 60 -9 -12
BITMAP
00000000000000
00000000000000
00000000000000
00000000000000
00000000000000
00000000000000
00000FFFFC0000
00000FFFFC0000
00000FFFFC0000
00001FFFF80000
00001FFFF80000
00001FFFF80000
0001F8007E0000
0001F8007E0000
0001F8007E0000
0003F000FC0000
0003F000FC0000
0003F000FC0000
0007E001F80000
0007E001F80000
0007E001F80000
000FC003F00000
000FC003F00000
000FC003F00000
001F8007E00000
001F8007E00000
001F8007E00000
003F000FC00000
003F000FC00000
003F000FC00000
000FFFFC000000
000FFFFC000000
000FFFFC000000
001FFFF8000000
001FFFF8000000
001FFFF8000000
00000000000000
00000000000000
00000000000000
00000000000000
00000000000000
00000000000000
07FFFFF8000000
07FFFFF8000000
07FFFFF8000000
0FFFFFF0000000
0FFFFFF0000000
0FFFFFF0000000
00000000000000
00000000000000
00000000000000
00000000000000
00000000000000
00000000000000
00000000000000
00000000000000
00000000000000
00000000000000
00000000000000
00000000000000
ENDCHAR
STARTCHAR U+00B9
ENCODING 185
SWIDTH 1000 0
DWIDTH 30 0
BBX 49 60 -9 -12
BITMAP
0000000FC00000
0000000FC00000
0000000FC00000
0000001F800000
0000001F800000
0000001F800000
000001FF000000
000001FF000000
000001FF000000
000003FE000000
000003FE000000
000003FE000000
000000FC000000
000000FC000000
000000FC000000
000001F8000000
000001F8000000
000001F8000000
000003F0000000
000003F0000000
000003F0000000
000007E0000000
000007E0000000
000007E0000000
00007FF8000000
00007FF8000000
00007FF8000000
0000FFF0000000
0000FFF0000000
0000FFF0000000
00000000000000
00000000000000
00000000000000
00000000000000
00000000000000
00000000000000
00000000000000
00000000000000
00000000000000
00000000000000
00000000000000
00000000000000
00000000000000
00000000000000
00000000000000
00000000000000
00000000000000
00000000000000
00000000000000
00000000000000
00000000000000
00000000000000
00000000000000
00000000000000
00000000000000
00000000000000
00000000000000
00000000000000
00000000000000
00000000000000
ENDCHAR
STARTCHAR U+00B8
ENCODING 184
SWIDTH 1000 0
DWIDTH 30 0
BBX 49 60 -9 -12
BITMAP
00000000000000
00000000000000
00000000000000
00000000000000
00000000000000
00000000000000
00000000000000
00000000000000
00000000000000
00000000000000
00000000000000
00000000000000
00000000000000
00000000000000
00000000000000
00000000000000
00000000000000
00000000000000
00000000000000
00000000000000
00000000000000
00000000000000
00000000000000
00000000000000
00000000000000
00000000000000
00000000000000
00000000000000
00000000000000
00000000000000
00000000000000
00000000000000
00000000000000
00000000000000
00000000000000
00000000000000
00000000000000
00000000000000
00000000000000
00000000000000
00000000000000
00000000000000
00000000000000
00000000000000
00000000000000
00000000000000
00000000000000
00000000000000
0001F800000000
0001F800000000
0001F800000000
0003F000000000
0003F000000000
0003F000000000
01FFE000000000
01FFE000000000
01FFE000000000
03FFC000000000
03FFC000000000
03FFC000000000
ENDCHAR
STARTCHAR U+2022
ENCODING 8226
SWIDTH 1000 0
DWIDTH 30 0
BBX 49 60 -9 -12
BITMAP
00000000000000
00000000000000
00000000000000
00000000000000
00000000000000
00000000000000
00000000000000
00000000000000
00000000000000
00000000000000
00000000000000
00000000000000
00000000000000
00000000000000
00000000000000
00000000000000
00000000000000
00000000000000
00001FF0000000
00001FF0000000
00001FF0000000
00003FE0000000
00003FE0000000
00003FE0000000
00007FC0000000
00007FC0000000
00007FC0000000
0000FF80000000
0000FF80000000
0000FF80000000
00000000000000
00000000000000
00000000000000
00000000000000
00000000000000
00000000000000
00000000000000
00000000000000
00000000000000
00000000000000
00000000000000
00000000000000
00000000000000
00000000000000
00000000000000
00000000000000
00000000000000
00000000000000
00000000000000
00000000000000
00000000000000
00000000000000
00000000000000
00000000000000
00000000000000
00000000000000
00000000000000
00000000000000
00000000000000
00000000000000
ENDCHAR
STARTCHAR U+00B6
ENCODING 182
SWIDTH 1000 0
DWIDTH 30 0
BBX 49 60 -9 -12
BITMAP
00000000000000
00000000000000
00000000000000
00000000000000
00000000000000
00000000000000
00000FFFFF8000
00000FFFFF8000
00000FFFFF8000
00001FFFFF0000
00001FFFFF0000
00001FFFFF0000
0001FF1FFE0000
0001FF1FFE0000
0001FF1FFE0000
0003FE3FFC0000
0003FE3FFC0000
0003FE3FFC0000
0007FC7FF80000
0007FC7FF80000
0007FC7FF80000
000FF8FFF00000
000FF8FFF00000
000FF8FFF00000
0003FFFFE00000
0003FFFFE00000
0003FFFFE00000
0007FFFFC00000
0007FFFFC00000
0007FFFFC00000
000007FF800000
000007FF800000
000007FF800000
00000FFF000000
00000FFF000000
00000FFF000000
00001FFE000000
00001FFE000000
00001FFE000000
00003FFC000000
00003FFC000000
00003FFC000000
00007FF8000000
00007FF8000000
00007FF8000000
0000FFF0000000
0000FFF0000000
0000FFF0000000
00000000000000
00000000000000
00000000000000
00000000000000
00000000000000
00000000000000
00000000000000
00000000000000
00000000000000
00000000000000
00000000000000
00000000000000
ENDCHAR
STARTCHAR U+00B5
ENCODING 181
SWIDTH 1000 0
DWIDTH 30 0
BBX 49 60 -9 -12
BITMAP
00000000000000
00000000000000
00000000000000
00000000000000
00000000000000
00000000000000
00000000000000
00000000000000
00000000000000
00000000000000
00000000000000
00000000000000
00000000000000
00000000000000
00000000000000
00000000000000
00000000000000
00000000000000
0000FC01F80000
0000FC01F80000
0000FC01F80000
0001F803F00000
0001F803F00000
0001F803F00000
0003F007E00000
0003F007E00000
0003F007E00000
0007E00FC00000
0007E00FC00000
0007E00FC00000
000FC01F800000
000FC01F800000
000FC01F800000
001F803F000000
001F803F000000
001F803F000000
003FE3FE000000
003FE3FE000000
003FE3FE000000
007FC7FC000000
007FC7FC000000
007FC7FC000000
00FFFFF8000000
00FFFFF8000000
00FFFFF8000000
01FFFFF0000000
01FFFFF0000000
01FFFFF0000000
03F00000000000
03F00000000000
03F00000000000
07E00000000000
07E00000000000
07E00000000000
7E000000000000
7E000000000000
7E000000000000
FC000000000000
FC000000000000
FC000000000000
ENDCHAR
STARTCHAR U+00B4
ENCODING 180
SWIDTH 1000 0
DWIDTH 30 0
BBX 49 60 -9 -12
BITMAP
00000000000000
00000000000000
00000000000000
00000000000000
00000000000000
00000000000000
00000007FC0000
00000007FC0000
00000007FC0000
0000000FF80000
0000000FF80000
0000000FF80000
0000001F800000
0000001F800000
0000001F800000
0000003F000000
0000003F000000
0000003F000000
000003F0000000
000003F0000000
000003F0000000
000007E0000000
000007E0000000
000007E0000000
00000000000000
00000000000000
00000000000000
00000000000000
00000000000000
00000000000000
00000000000000
00000000000000
00000000000000
00000000000000
00000000000000
00000000000000
00000000000000
00000000000000
00000000000000
00000000000000
00000000000000
00000000000000
00000000000000
00000000000000
00000000000000
00000000000000
00000000000000
00000000000000
00000000000000
00000000000000
00000000000000
00000000000000
00000000000000
00000000000000
00000000000000
00000000000000
00000000000000
00000000000000
00000000000000
00000000000000
ENDCHAR
STARTCHAR U+00B3
ENCODING 179
SWIDTH 1000 0
DWIDTH 30 0
BBX 49 60 -9 -12
BITMAP
000003FFFF0000
000003FFFF0000
000003FFFF0000
000007FFFE0000
000007FFFE0000
000007FFFE0000
00000000FC0000
00000000FC0000
00000000FC0000
00000001F80000
00000001F80000
00000001F80000
000000FF800000
000000FF800000
000000FF800000
000001FF000000
000001FF000000
000001FF000000
0000000FC00000
0000000FC00000
0000000FC00000
0000001F800000
0000001F800000
0000001F800000
0003FFF8000000
0003FFF8000000
0003FFF8000000
0007FFF0000000
0007FFF0000000
0007FFF0000000
00000000000000
00000000000000
00000000000000
00000000000000
00000000000000
00000000000000
00000000000000
00000000000000
00000000000000
00000000000000
00000000000000
00000000000000
00000000000000
00000000000000
00000000000000
00000000000000
00000000000000
00000000000000
00000000000000
00000000000000
00000000000000
00000000000000
00000000000000
00000000000000
00000000000000
00000000000000
00000000000000
00000000000000
00000000000000
00000000000000
ENDCHAR
STARTCHAR U+00B2
ENCODING 178
SWIDTH 1000 0
DWIDTH 30 0
BBX 49 60 -9 -12
BITMAP
0000007FF80000
0000007FF80000
0000007FF80000
000000FFF00000
000000FFF00000
000000FFF00000
00000FC0FC0000
00000FC0FC0000
00000FC0FC0000
00001F81F80000
00001F81F80000
00001F81F80000
000000FF800000
000000FF800000
000000FF800000
000001FF000000
000001FF000000
000001FF000000
00001F80000000
00001F80000000
00001F80000000
00003F00000000
00003F00000000
00003F00000000
0003FFFF000000
0003FFFF000000
0003FFFF000000
0007FFFE000000
0007FFFE000000
0007FFFE000000
00000000000000
00000000000000
00000000000000
00000000000000
00000000000000
00000000000000
00000000000000
00000000000000
00000000000000
00000000000000
00000000000000
00000000000000
00000000000000
00000000000000
00000000000000
00000000000000
00000000000000
00000000000000
00000000000000
00000000000000
00000000000000
00000000000000
00000000000000
00000000000000
00000000000000
00000000000000
00000000000000
00000000000000
00000000000000
00000000000000
ENDCHAR
STARTCHAR U+00AF
ENCODING 175
SWIDTH 1000 0
DWIDTH 30 0
BBX 49 60 -9 -12
BITMAP
000003FFFF0000
000003FFFF0000
000003FFFF0000
000007FFFE0000
000007FFFE0000
000007FFFE0000
00000000000000
00000000000000
00000000000000
00000000000000
00000000000000
00000000000000
00000000000000
00000000000000
00000000000000
00000000000000
00000000000000
00000000000000
00000000000000
00000000000000
00000000000000
00000000000000
00000000000000
00000000000000
00000000000000
00000000000000
00000000000000
00000000000000
00000000000000
00000000000000
00000000000000
00000000000000
00000000000000
00000000000000
00000000000000
00000000000000
00000000000000
00000000000000
00000000000000
00000000000000
00000000000000
00000000000000
00000000000000
00000000000000
00000000000000
00000000000000
00000000000000
00000000000000
00000000000000
00000000000000
00000000000000
00000000000000
00000000000000
00000000000000
00000000000000
00000000000000
00000000000000
00000000000000
00000000000000
00000000000000
ENDCHAR
STARTCHAR U+00AE
ENCODING 174
SWIDTH 1000 0
DWIDTH 30 0
BBX 49 60 -9 -12
BITMAP
00000000000000
00000000000000
00000000000000
00000000000000
00000000000000
00000000000000
000001FFE00000
000001FFE00000
000001FFE00000
000003FFC00000
000003FFC00000
000003FFC00000
00003F03F00000
00003F03F00000
00003F03F00000
00007E07E00000
00007E07E00000
00007E07E00000
0007FFFFF80000
0007FFFFF80000
0007FFFFF80000
000FFFFFF00000
000FFFFFF00000
000FFFFFF00000
001FFE3FE00000
001FFE3FE00000
001FFE3FE00000
003FFC7FC00000
003FFC7FC00000
003FFC7FC00000
007FFFFF800000
007FFFFF800000
007FFFFF800000
00FFFFFF000000
00FFFFFF000000
00FFFFFF000000
01FFFC7E000000
01FFFC7E000000
01FFFC7E000000
03FFF8FC000000
03FFF8FC000000
03FFF8FC000000
00FFFFC0000000
00FFFFC0000000
00FFFFC0000000
01FFFF80000000
01FFFF80000000
01FFFF80000000
007FF800000000
007FF800000000
007FF800000000
00FFF000000000
00FFF000000000
00FFF000000000
00000000000000
00000000000000
00000000000000
00000000000000
00000000000000
00000000000000
ENDCHAR
STARTCHAR U+00D7
ENCODING 215
SWIDTH 1000 0
DWIDTH 30 0
BBX 49 60 -9 -12
BITMAP
00000000000000
00000000000000
00000000000000
00000000000000
00000000000000
00000000000000
00000000000000
00000000000000
00000000000000
00000000000000
00000000000000
00000000000000
00003F03F00000
00003F03F00000
00003F03F00000
00007E07E00000
00007E07E00000
00007E07E00000
00001FFE000000
00001FFE000000
00001FFE000000
00003FFC000000
00003FFC000000
00003FFC000000
00000FC0000000
00000FC0000000
00000FC0000000
00001F80000000
00001F80000000
00001F80000000
0001FFE0000000
0001FFE0000000
0001FFE0000000
0003FFC0000000
0003FFC0000000
0003FFC0000000
003F03F0000000
003F03F0000000
003F03F0000000
007E07E0000000
007E07E0000000
007E07E0000000
00000000000000
00000000000000
00000000000000
00000000000000
00000000000000
00000000000000
00000000000000
00000000000000
00000000000000
00000000000000
00000000000000
00000000000000
00000000000000
00000000000000
00000000000000
00000000000000
00000000000000
00000000000000
ENDCHAR
STARTCHAR U+00AC
ENCODING 172
SWIDTH 1000 0
DWIDTH 30 0
BBX 49 60 -9 -12
BITMAP
00000000000000
00000000000000
00000000000000
00000000000000
00000000000000
00000000000000
00000000000000
00000000000000
00000000000000
00000000000000
00000000000000
00000000000000
00000000000000
00000000000000
00000000000000
00000000000000
00000000000000
00000000000000
00000000000000
00000000000000
00000000000000
00000000000000
00000000000000
00000000000000
00000000000000
00000000000000
00000000000000
00000000000000
00000000000000
00000000000000
007FFFFF800000
007FFFFF800000
007FFFFF800000
00FFFFFF000000
00FFFFFF000000
00FFFFFF000000
0000007E000000
0000007E000000
0000007E000000
000000FC000000
000000FC000000
000000FC000000
000001F8000000
000001F8000000
000001F8000000
000003F0000000
000003F0000000
000003F0000000
00000000000000
00000000000000
00000000000000
00000000000000
00000000000000
00000000000000
00000000000000
00000000000000
00000000000000
00000000000000
00000000000000
00000000000000
ENDCHAR
STARTCHAR U+00AB
ENCODING 171
SWIDTH 1000 0
DWIDTH 30 0
BBX 49 60 -9 -12
BITMAP
00000000000000
00000000000000
00000000000000
00000000000000
00000000000000
00000000000000
0000003F1F8000
0000003F1F8000
0000003F1F8000
0000007E3F0000
0000007E3F0000
0000007E3F0000
000007E3F00000
000007E3F00000
000007E3F00000
00000FC7E00000
00000FC7E00000
00000FC7E00000
0000FC7E000000
0000FC7E000000
0000FC7E000000
0001F8FC000000
0001F8FC000000
0001F8FC000000
001F8FC0000000
001F8FC0000000
001F8FC0000000
003F1F80000000
003F1F80000000
003F3F80000000
000FC7E0000000
000FC7E0000000
000FC7E0000000
001F8FC0000000
001F8FC0000000
001F9FC0000000
0007E3F0000000
0007E3F0000000
0007E3F0000000
000FC7E0000000
000FC7E0000000
000FCFE0000000
0003F1F8000000
0003F1F8000000
0003F1F8000000
0007E3F0000000
0007E3F0000000
0007E3F0000000
00000000000000
00000000000000
00000000000000
00000000000000
00000000000000
00000000000000
00000000000000
00000000000000
00000000000000
00000000000000
00000000000000
00000000000000
ENDCHAR
STARTCHAR U+00AA
ENCODING 170
SWIDTH 1000 0
DWIDTH 30 0
BBX 49 60 -9 -12
BITMAP
00000000000000
00000000000000
00000000000000
00000000000000
00000000000000
00000000000000
00000FFFFC0000
00000FFFFC0000
00000FFFFC0000
00001FFFF80000
00001FFFF80000
00001FFFF80000
000000007E0000
000000007E0000
000000007E0000
00000000FC0000
00000000FC0000
00000000FC0000
0000FFFFF80000
0000FFFFF80000
0000FFFFF80000
0001FFFFF00000
0001FFFFF00000
0001FFFFF00000
001F803FE00000
001F803FE00000
001F803FE00000
003F007FC00000
003F007FC00000
003F007FC00000
000FFFFF800000
000FFFFF800000
000FFFFF800000
001FFFFF000000
001FFFFF000000
001FFFFF000000
00000000000000
00000000000000
00000000000000
00000000000000
00000000000000
00000000000000
07FFFFF8000000
07FFFFF8000000
07FFFFF8000000
0FFFFFF0000000
0FFFFFF0000000
0FFFFFF0000000
00000000000000
00000000000000
00000000000000
00000000000000
00000000000000
00000000000000
00000000000000
00000000000000
00000000000000
00000000000000
00000000000000
00000000000000
ENDCHAR
STARTCHAR U+00A9
ENCODING 169
SWIDTH 1000 0
DWIDTH 30 0
BBX 49 60 -9 -12
BITMAP
00000000000000
00000000000000
00000000000000
00000000000000
00000000000000
00000000000000
000001FFE00000
000001FFE00000
000001FFE00000
000003FFC00000
000003FFC00000
000003FFC00000
00003F03F00000
00003F03F00000
00003F03F00000
00007E07E00000
00007E07E00000
00007E07E00000
0007E3FFF80000
0007E3FFF80000
0007E3FFF80000
000FC7FFF00000
000FC7FFF00000
000FC7FFF00000
001FFE07E00000
001FFE07E00000
001FFE07E00000
003FFC0FC00000
003FFC0FC00000
003FFC0FC00000
007FF81F800000
007FF81F800000
007FF81F800000
00FFF03F000000
00FFF03F000000
00FFF03F000000
01F8FFFE000000
01F8FFFE000000
01F8FFFE000000
03F1FFFC000000
03F1FFFC000000
03F3FFFC000000
00FC0FC0000000
00FC0FC0000000
00FC0FC0000000
01F81F80000000
01F81F80000000
01F81F80000000
007FF800000000
007FF800000000
007FF800000000
00FFF000000000
00FFF000000000
00FFF000000000
00000000000000
00000000000000
00000000000000
00000000000000
00000000000000
00000000000000
ENDCHAR
STARTCHAR U+00A4
ENCODING 164
SWIDTH 1000 0
DWIDTH 30 0
BBX 49 60 -9 -12
BITMAP
00000000000000
00000000000000
00000000000000
00000000000000
00000000000000
00000000000000
00000000000000
00000000000000
00000000000000
00000000000000
00000000000000
00000000000000
0001F8007E0000
0001F8007E0000
0001F8007E0000
0003F000FC0000
0003F000FC0000
0003F000FC0000
0000FFFFC00000
0000FFFFC00000
0000FFFFC00000
0001FFFF800000
0001FFFF800000
0001FFFF800000
0003F03F000000
0003F03F000000
0003F03F000000
0007E07E000000
0007E07E000000
0007E07E000000
000FFFFC000000
000FFFFC000000
000FFFFC000000
001FFFF8000000
001FFFF8000000
001FFFF8000000
01F8007E000000
01F8007E000000
01F8007E000000
03F000FC000000
03F000FC000000
03F000FC000000
00000000000000
00000000000000
00000000000000
00000000000000
00000000000000
00000000000000
00000000000000
00000000000000
00000000000000
00000000000000
00000000000000
00000000000000
00000000000000
00000000000000
00000000000000
00000000000000
00000000000000
00000000000000
ENDCHAR
STARTCHAR U+00A7
ENCODING 167
SWIDTH 1000 0
DWIDTH 30 0
BBX 49 60 -9 -12
BITMAP
00000000000000
00000000000000
00000000000000
00000000000000
00000000000000
00000000000000
000001FFFC0000
000001FFFC0000
000001FFFC0000
000003FFF80000
000003FFF80000
000003FFF80000
00003F00000000
00003F00000000
00003F00000000
00007E00000000
00007E00000000
00007E00000000
00001FFE000000
00001FFE000000
00001FFE000000
00003FFC000000
00003FFC000000
00003FFC000000
0003F03F000000
0003F03F000000
0003F03F000000
0007E07E000000
0007E07E000000
0007E07E000000
0001FFE0000000
0001FFE0000000
0001FFE0000000
0003FFC0000000
0003FFC0000000
0003FFC0000000
000003F0000000
000003F0000000
000003F0000000
000007E0000000
000007E0000000
000007E0000000
00FFFE00000000
00FFFE00000000
00FFFE00000000
01FFFC00000000
01FFFC00000000
01FFFC00000000
00000000000000
00000000000000
00000000000000
00000000000000
00000000000000
00000000000000
00000000000000
00000000000000
00000000000000
00000000000000
00000000000000
00000000000000
ENDCHAR
STARTCHAR U+00A6
ENCODING 166
SWIDTH 1000 0
DWIDTH 30 0
BBX 49 60 -9 -12
BITMAP
00000000000000
00000000000000
00000000000000
00000000000000
00000000000000
00000000000000
0000003F000000
0000003F000000
0000003F000000
0000007E000000
0000007E000000
0000007E000000
000000FC000000
000000FC000000
000000FC000000
000001F8000000
000001F8000000
000001F8000000
000003F0000000
000003F0000000
000003F0000000
000007E0000000
000007E0000000
000007E0000000
00000000000000
00000000000000
00000000000000
00000000000000
00000000000000
00000000000000
00003F00000000
00003F00000000
00003F00000000
00007E00000000
00007E00000000
00007E00000000
0000FC00000000
0000FC00000000
0000FC00000000
0001F800000000
0001F800000000
0001F800000000
0003F000000000
0003F000000000
0003F000000000
0007E000000000
0007E000000000
0007E000000000
00000000000000
00000000000000
00000000000000
00000000000000
00000000000000
00000000000000
00000000000000
00000000000000
00000000000000
00000000000000
00000000000000
00000000000000
ENDCHAR
STARTCHAR U+00A5
ENCODING 165
SWIDTH 1000 0
DWIDTH 30 0
BBX 49 60 -9 -12
BITMAP
00000000000000
00000000000000
00000000000000
00000000000000
00000000000000
00000000000000
00007E001F8000
00007E001F8000
00007E001F8000
0000FC003F0000
0000FC003F0000
0000FC003F0000
00003F03F00000
00003F03F00000
00003F03F00000
00007E07E00000
00007E07E00000
00007E07E00000
00001FFE000000
00001FFE000000
00001FFE000000
00003FFC000000
00003FFC000000
00003FFC000000
00000FC0000000
00000FC0000000
00000FC0000000
00001F80000000
00001F80000000
00001F80000000
007FFFFF800000
007FFFFF800000
007FFFFF800000
00FFFFFF000000
00FFFFFF000000
00FFFFFF000000
0000FC00000000
0000FC00000000
0000FC00000000
0001F800000000
0001F800000000
0001F800000000
0003F000000000
0003F000000000
0003F000000000
0007E000000000
0007E000000000
0007E000000000
00000000000000
00000000000000
00000000000000
00000000000000
00000000000000
00000000000000
00000000000000
00000000000000
00000000000000
00000000000000
00000000000000
00000000000000
ENDCHAR
STARTCHAR U+00A8
ENCODING 168
SWIDTH 1000 0
DWIDTH 30 0
BBX 49 60 -9 -12
BITMAP
000003F03F0000
000003F03F0000
000003F03F0000
000007E07E0000
000007E07E0000
000007E07E0000
00000000000000
00000000000000
00000000000000
00000000000000
00000000000000
00000000000000
00000000000000
00000000000000
00000000000000
00000000000000
00000000000000
00000000000000
00000000000000
00000000000000
00000000000000
00000000000000
00000000000000
00000000000000
00000000000000
00000000000000
00000000000000
00000000000000
00000000000000
00000000000000
00000000000000
00000000000000
00000000000000
00000000000000
00000000000000
00000000000000
00000000000000
00000000000000
00000000000000
00000000000000
00000000000000
00000000000000
00000000000000
00000000000000
00000000000000
00000000000000
00000000000000
00000000000000
00000000000000
00000000000000
00000000000000
00000000000000
00000000000000
00000000000000
00000000000000
00000000000000
00000000000000
00000000000000
00000000000000
00000000000000
ENDCHAR
STARTCHAR U+00A2
ENCODING 162
SWIDTH 1000 0
DWIDTH 30 0
BBX 49 60 -9 -12
BITMAP
00000000000000
00000000000000
00000000000000
00000000000000
00000000000000
00000000000000
00000000000000
00000000000000
00000000000000
00000000000000
00000000000000
00000000000000
000000FC000000
000000FC000000
000000FC000000
000001F8000000
000001F8000000
000001F8000000
0000FFFFC00000
0000FFFFC00000
0000FFFFC00000
0001FFFF800000
0001FFFF800000
0001FFFF800000
001F8FC7E00000
001F8FC7E00000
001F8FC7E00000
003F1F8FC00000
003F1F8FC00000
003F1F8FC00000
007E3F00000000
007E3F00000000
007E3F00000000
00FC7E00000000
00FC7E00000000
00FC7E00000000
01F8FC7E000000
01F8FC7E000000
01F8FC7E000000
03F1F8FC000000
03F1F8FC000000
03F1F8FC000000
00FFFFC0000000
00FFFFC0000000
00FFFFC0000000
01FFFF80000000
01FFFF80000000
01FFFF80000000
000FC000000000
000FC000000000
000FC000000000
001F8000000000
001F8000000000
001F8000000000
00000000000000
00000000000000
00000000000000
00000000000000
00000000000000
00000000000000
ENDCHAR
STARTCHAR U+00A1
ENCODING 161
SWIDTH 1000 0
DWIDTH 30 0
BBX 49 60 -9 -12
BITMAP
00000000000000
00000000000000
00000000000000
00000000000000
00000000000000
00000000000000
0000003F000000
0000003F000000
0000003F000000
0000007E000000
0000007E000000
0000007E000000
00000000000000
00000000000000
00000000000000
00000000000000
00000000000000
00000000000000
000003F0000000
000003F0000000
000003F0000000
000007E0000000
000007E0000000
000007E0000000
00000FC0000000
00000FC0000000
00000FC0000000
00001F80000000
00001F80000000
00001F80000000
00003F00000000
00003F00000000
00003F00000000
00007E00000000
00007E00000000
00007E00000000
0000FC00000000
0000FC00000000
0000FC00000000
0001F800000000
0001F800000000
0001F800000000
0003F000000000
0003F000000000
0003F000000000
0007E000000000
0007E000000000
0007E000000000
00000000000000
00000000000000
00000000000000
00000000000000
00000000000000
00000000000000
00000000000000
00000000000000
00000000000000
00000000000000
00000000000000
00000000000000
ENDCHAR
STARTCHAR U+201F
ENCODING 8223
SWIDTH 1000 0
DWIDTH 30 0
BBX 49 60 -9 -12
BITMAP
00000000000000
00000000000000
00000000000000
00000000000000
00000000000000
00000000000000
00000FFFFC0000
00000FFFFC0000
00000FFFFC0000
00001FFFF80000
00001FFFF80000
00001FFFF80000
00003F1F800000
00003F1F800000
00003F1F800000
00007E3F000000
00007E3F000000
00007E7F000000
00001F8FC00000
00001F8FC00000
00001F8FC00000
00003F1F800000
00003F1F800000
00003F1F800000
00000000000000
00000000000000
00000000000000
00000000000000
00000000000000
00000000000000
00000000000000
00000000000000
00000000000000
00000000000000
00000000000000
00000000000000
00000000000000
00000000000000
00000000000000
00000000000000
00000000000000
00000000000000
00000000000000
00000000000000
00000000000000
00000000000000
00000000000000
00000000000000
00000000000000
00000000000000
00000000000000
00000000000000
00000000000000
00000000000000
00000000000000
00000000000000
00000000000000
00000000000000
00000000000000
00000000000000
ENDCHAR
STARTCHAR U+201E
ENCODING 8222
SWIDTH 1000 0
DWIDTH 30 0
BBX 49 60 -9 -12
BITMAP
00000000000000
00000000000000
00000000000000
00000000000000
00000000000000
00000000000000
00000000000000
00000000000000
00000000000000
00000000000000
00000000000000
00000000000000
00000000000000
00000000000000
00000000000000
00000000000000
00000000000000
00000000000000
00000000000000
00000000000000
00000000000000
00000000000000
00000000000000
00000000000000
00000000000000
00000000000000
00000000000000
00000000000000
00000000000000
00000000000000
00000000000000
00000000000000
00000000000000
00000000000000
00000000000000
00000000000000
00000000000000
00000000000000
00000000000000
00000000000000
00000000000000
00000000000000
00FC7E00000000
00FC7E00000000
00FC7E00000000
01F8FC00000000
01F8FC00000000
01F8FC00000000
03F1F800000000
03F1F800000000
03F1F800000000
07E3F000000000
07E3F000000000
07E3F000000000
00000000000000
00000000000000
00000000000000
00000000000000
00000000000000
00000000000000
ENDCHAR
STARTCHAR U+201D
ENCODING 8221
SWIDTH 1000 0
DWIDTH 30 0
BBX 49 60 -9 -12
BITMAP
00000000000000
00000000000000
00000000000000
00000000000000
00000000000000
00000000000000
00000FF8FF8000
00000FF8FF8000
00000FF8FF8000
00001FF1FF0000
00001FF1FF0000
00001FF1FF0000
000007E07E0000
000007E07E0000
000007E07E0000
00000FC0FC0000
00000FC0FC0000
00000FC0FC0000
0000FC0FC00000
0000FC0FC00000
0000FC0FC00000
0001F81F800000
0001F81F800000
0001F81F800000
00000000000000
00000000000000
00000000000000
00000000000000
00000000000000
00000000000000
00000000000000
00000000000000
00000000000000
00000000000000
00000000000000
00000000000000
00000000000000
00000000000000
00000000000000
00000000000000
00000000000000
00000000000000
00000000000000
00000000000000
00000000000000
00000000000000
00000000000000
00000000000000
00000000000000
00000000000000
00000000000000
00000000000000
00000000000000
00000000000000
00000000000000
00000000000000
00000000000000
00000000000000
00000000000000
00000000000000
ENDCHAR
STARTCHAR U+201C
ENCODING 8220
SWIDTH 1000 0
DWIDTH 30 0
BBX 49 60 -9 -12
BITMAP
00000000000000
00000000000000
00000000000000
00000000000000
00000000000000
00000000000000
000001F81F8000
000001F81F8000
000001F81F8000
000003F03F0000
000003F03F0000
000003F03F0000
00003F03F00000
00003F03F00000
00003F03F00000
00007E07E00000
00007E07E00000
00007E07E00000
0000FF8FF80000
0000FF8FF80000
0000FF8FF80000
0001FF1FF00000
0001FF1FF00000
0001FF1FF00000
00000000000000
00000000000000
00000000000000
00000000000000
00000000000000
00000000000000
00000000000000
00000000000000
00000000000000
00000000000000
00000000000000
00000000000000
00000000000000
00000000000000
00000000000000
00000000000000
00000000000000
00000000000000
00000000000000
00000000000000
00000000000000
00000000000000
00000000000000
00000000000000
00000000000000
00000000000000
00000000000000
00000000000000
00000000000000
00000000000000
00000000000000
00000000000000
00000000000000
00000000000000
00000000000000
00000000000000
ENDCHAR
STARTCHAR U+201B
ENCODING 8219
SWIDTH 1000 0
DWIDTH 30 0
BBX 49 60 -9 -12
BITMAP
00000000000000
00000000000000
00000000000000
00000000000000
00000000000000
00000000000000
0000003F000000
0000003F000000
0000003F000000
0000007E000000
0000007E000000
0000007E000000
000000FC000000
000000FC000000
000000FC000000
000001F8000000
000001F8000000
000001F8000000
000003F0000000
000003F0000000
000003F0000000
000007E0000000
000007E0000000
000007E0000000
00000000000000
00000000000000
00000000000000
00000000000000
00000000000000
00000000000000
00000000000000
00000000000000
00000000000000
00000000000000
00000000000000
00000000000000
00000000000000
00000000000000
00000000000000
00000000000000
00000000000000
00000000000000
00000000000000
00000000000000
00000000000000
00000000000000
00000000000000
00000000000000
00000000000000
00000000000000
00000000000000
00000000000000
00000000000000
00000000000000
00000000000000
00000000000000
00000000000000
00000000000000
00000000000000
00000000000000
ENDCHAR
STARTCHAR U+201A
ENCODING 8218
SWIDTH 1000 0
DWIDTH 30 0
BBX 49 60 -9 -12
BITMAP
00000000000000
00000000000000
00000000000000
00000000000000
00000000000000
00000000000000
00000000000000
00000000000000
00000000000000
00000000000000
00000000000000
00000000000000
00000000000000
00000000000000
00000000000000
00000000000000
00000000000000
00000000000000
00000000000000
00000000000000
00000000000000
00000000000000
00000000000000
00000000000000
00000000000000
00000000000000
00000000000000
00000000000000
00000000000000
00000000000000
00003F00000000
00003F00000000
00003F00000000
00007E00000000
00007E00000000
00007E00000000
0000FC00000000
0000FC00000000
0000FC00000000
0001F800000000
0001F800000000
0001F800000000
0003F000000000
0003F000000000
0003F000000000
0007E000000000
0007E000000000
0007E000000000
00000000000000
00000000000000
00000000000000
00000000000000
00000000000000
00000000000000
00000000000000
00000000000000
00000000000000
00000000000000
00000000000000
00000000000000
ENDCHAR
STARTCHAR U+2019
ENCODING 8217
SWIDTH 1000 0
DWIDTH 30 0
BBX 49 60 -9 -12
BITMAP
00000000000000
00000000000000
00000000000000
00000000000000
00000000000000
00000000000000
00000FF8000000
00000FF8000000
00000FF8000000
00001FF0000000
00001FF0000000
00001FF0000000
000007E0000000
000007E0000000
000007E0000000
00000FC0000000
00000FC0000000
00000FC0000000
0000FC00000000
0000FC00000000
0000FC00000000
0001F800000000
0001F800000000
0001F800000000
00000000000000
00000000000000
00000000000000
00000000000000
00000000000000
00000000000000
00000000000000
00000000000000
00000000000000
00000000000000
00000000000000
00000000000000
00000000000000
00000000000000
00000000000000
00000000000000
00000000000000
00000000000000
00000000000000
00000000000000
00000000000000
00000000000000
00000000000000
00000000000000
00000000000000
00000000000000
00000000000000
00000000000000
00000000000000
00000000000000
00000000000000
00000000000000
00000000000000
00000000000000
00000000000000
00000000000000
ENDCHAR
STARTCHAR U+2018
ENCODING 8216
SWIDTH 1000 0
DWIDTH 30 0
BBX 49 60 -9 -12
BITMAP
00000000000000
00000000000000
00000000000000
00000000000000
00000000000000
00000000000000
000000001F8000
000000001F8000
000000001F8000
000000003F0000
000000003F0000
000000003F0000
00000003F00000
00000003F00000
00000003F00000
00000007E00000
00000007E00000
00000007E00000
0000000FF80000
0000000FF80000
0000000FF80000
0000001FF00000
0000001FF00000
0000001FF00000
00000000000000
00000000000000
00000000000000
00000000000000
00000000000000
00000000000000
00000000000000
00000000000000
00000000000000
00000000000000
00000000000000
00000000000000
00000000000000
00000000000000
00000000000000
00000000000000
00000000000000
00000000000000
00000000000000
00000000000000
00000000000000
00000000000000
00000000000000
00000000000000
00000000000000
00000000000000
00000000000000
00000000000000
00000000000000
00000000000000
00000000000000
00000000000000
00000000000000
00000000000000
00000000000000
00000000000000
ENDCHAR
STARTCHAR U+2017
ENCODING 8215
SWIDTH 1000 0
DWIDTH 30 0
BBX 49 60 -9 -12
BITMAP
00000000000000
00000000000000
00000000000000
00000000000000
00000000000000
00000000000000
00000000000000
00000000000000
00000000000000
00000000000000
00000000000000
00000000000000
00000000000000
00000000000000
00000000000000
00000000000000
00000000000000
00000000000000
00000000000000
00000000000000
00000000000000
00000000000000
00000000000000
00000000000000
00000000000000
00000000000000
00000000000000
00000000000000
00000000000000
00000000000000
00000000000000
00000000000000
00000000000000
00000000000000
00000000000000
00000000000000
00000000000000
00000000000000
00000000000000
00000000000000
00000000000000
00000000000000
07FFFFF8000000
07FFFFF8000000
07FFFFF8000000
0FFFFFF0000000
0FFFFFF0000000
0FFFFFF0000000
00000000000000
00000000000000
00000000000000
00000000000000
00000000000000
00000000000000
7FFFFF80000000
7FFFFF80000000
7FFFFF80000000
FFFFFF00000000
FFFFFF00000000
FFFFFF00000000
ENDCHAR
STARTCHAR U+2016
ENCODING 8214
SWIDTH 1000 0
DWIDTH 30 0
BBX 49 60 -9 -12
BITMAP
00000000000000
00000000000000
00000000000000
00000000000000
00000000000000
00000000000000
0000003FFC0000
0000003FFC0000
0000003FFC0000
0000007FF80000
0000007FF80000
0000007FF80000
000000FFF00000
000000FFF00000
000000FFF00000
000001FFE00000
000001FFE00000
000001FFE00000
000003FFC00000
000003FFC00000
000003FFC00000
000007FF800000
000007FF800000
000007FF800000
00000FFF000000
00000FFF000000
00000FFF000000
00001FFE000000
00001FFE000000
00001FFE000000
00003FFC000000
00003FFC000000
00003FFC000000
00007FF8000000
00007FF8000000
00007FF8000000
0000FFF0000000
0000FFF0000000
0000FFF0000000
0001FFE0000000
0001FFE0000000
0001FFE0000000
0003FFC0000000
0003FFC0000000
0003FFC0000000
0007FF80000000
0007FF80000000
0007FF80000000
00000000000000
00000000000000
00000000000000
00000000000000
00000000000000
00000000000000
00000000000000
00000000000000
00000000000000
00000000000000
00000000000000
00000000000000
ENDCHAR
STARTCHAR U+2015
ENCODING 8213
SWIDTH 1000 0
DWIDTH 30 0
BBX 49 60 -9 -12
BITMAP
00000000000000
00000000000000
00000000000000
00000000000000
00000000000000
00000000000000
00000000000000
00000000000000
00000000000000
00000000000000
00000000000000
00000000000000
00000000000000
00000000000000
00000000000000
00000000000000
00000000000000
00000000000000
00000000000000
00000000000000
00000000000000
00000000000000
00000000000000
00000000000000
001FFFFFFF8000
001FFFFFFF8000
001FFFFFFF8000
003FFFFFFF0000
003FFFFFFF0000
003FFFFFFF0000
00000000000000
00000000000000
00000000000000
00000000000000
00000000000000
00000000000000
00000000000000
00000000000000
00000000000000
00000000000000
00000000000000
00000000000000
00000000000000
00000000000000
00000000000000
00000000000000
00000000000000
00000000000000
00000000000000
00000000000000
00000000000000
00000000000000
00000000000000
00000000000000
00000000000000
00000000000000
00000000000000
00000000000000
00000000000000
00000000000000
ENDCHAR
STARTCHAR U+2014
ENCODING 8212
SWIDTH 1000 0
DWIDTH 30 0
BBX 49 60 -9 -12
BITMAP
00000000000000
00000000000000
00000000000000
00000000000000
00000000000000
00000000000000
00000000000000
00000000000000
00000000000000
00000000000000
00000000000000
00000000000000
00000000000000
00000000000000
00000000000000
00000000000000
00000000000000
00000000000000
00000000000000
00000000000000
00000000000000
00000000000000
00000000000000
00000000000000
001FFFFFE00000
001FFFFFE00000
001FFFFFE00000
003FFFFFC00000
003FFFFFC00000
003FFFFFC00000
00000000000000
00000000000000
00000000000000
00000000000000
00000000000000
00000000000000
00000000000000
00000000000000
00000000000000
00000000000000
00000000000000
00000000000000
00000000000000
00000000000000
00000000000000
00000000000000
00000000000000
00000000000000
00000000000000
00000000000000
00000000000000
00000000000000
00000000000000
00000000000000
00000000000000
00000000000000
00000000000000
00000000000000
00000000000000
00000000000000
ENDCHAR
STARTCHAR U+2013
ENCODING 8211
SWIDTH 1000 0
DWIDTH 30 0
BBX 49 60 -9 -12
BITMAP
00000000000000
00000000000000
00000000000000
00000000000000
00000000000000
00000000000000
00000000000000
00000000000000
00000000000000
00000000000000
00000000000000
00000000000000
00000000000000
00000000000000
00000000000000
00000000000000
00000000000000
00000000000000
00000000000000
00000000000000
00000000000000
00000000000000
00000000000000
00000000000000
00007FFF000000
00007FFF000000
00007FFF000000
0000FFFE000000
0000FFFE000000
0000FFFE000000
00000000000000
00000000000000
00000000000000
00000000000000
00000000000000
00000000000000
00000000000000
00000000000000
00000000000000
00000000000000
00000000000000
00000000000000
00000000000000
00000000000000
00000000000000
00000000000000
00000000000000
00000000000000
00000000000000
00000000000000
00000000000000
00000000000000
00000000000000
00000000000000
00000000000000
00000000000000
00000000000000
00000000000000
00000000000000
00000000000000
ENDCHAR
STARTCHAR U+2012
ENCODING 8210
SWIDTH 1000 0
DWIDTH 30 0
BBX 49 60 -9 -12
BITMAP
00000000000000
00000000000000
00000000000000
00000000000000
00000000000000
00000000000000
00000000000000
00000000000000
00000000000000
00000000000000
00000000000000
00000000000000
00000000000000
00000000000000
00000000000000
00000000000000
00000000000000
00000000000000
00000000000000
00000000000000
00000000000000
00000000000000
00000000000000
00000000000000
0003FFFF000000
0003FFFF000000
0003FFFF000000
0007FFFE000000
0007FFFE000000
0007FFFE000000
00000000000000
00000000000000
00000000000000
00000000000000
00000000000000
00000000000000
00000000000000
00000000000000
00000000000000
00000000000000
00000000000000
00000000000000
00000000000000
00000000000000
00000000000000
00000000000000
00000000000000
00000000000000
00000000000000
00000000000000
00000000000000
00000000000000
00000000000000
00000000000000
00000000000000
00000000000000
00000000000000
00000000000000
00000000000000
00000000000000
ENDCHAR
STARTCHAR U+2011
ENCODING 8209
SWIDTH 1000 0
DWIDTH 30 0
BBX 49 60 -9 -12
BITMAP
00000000000000
00000000000000
00000000000000
00000000000000
00000000000000
00000000000000
00000000000000
00000000000000
00000000000000
00000000000000
00000000000000
00000000000000
00000000000000
00000000000000
00000000000000
00000000000000
00000000000000
00000000000000
00000000000000
00000000000000
00000000000000
00000000000000
00000000000000
00000000000000
00007FF8000000
00007FF8000000
00007FF8000000
0000FFF0000000
0000FFF0000000
0000FFF0000000
00000000000000
00000000000000
00000000000000
00000000000000
00000000000000
00000000000000
00000000000000
00000000000000
00000000000000
00000000000000
00000000000000
00000000000000
00000000000000
00000000000000
00000000000000
00000000000000
00000000000000
00000000000000
00000000000000
00000000000000
00000000000000
00000000000000
00000000000000
00000000000000
00000000000000
00000000000000
00000000000000
00000000000000
00000000000000
00000000000000
ENDCHAR
STARTCHAR U+2010
ENCODING 8208
SWIDTH 1000 0
DWIDTH 30 0
BBX 49 60 -9 -12
BITMAP
00000000000000
00000000000000
00000000000000
00000000000000
00000000000000
00000000000000
00000000000000
00000000000000
00000000000000
00000000000000
00000000000000
00000000000000
00000000000000
00000000000000
00000000000000
00000000000000
00000000000000
00000000000000
00000000000000
00000000000000
00000000000000
00000000000000
00000000000000
00000000000000
00007FF8000000
00007FF8000000
00007FF8000000
0000FFF0000000
0000FFF0000000
0000FFF0000000
00000000000000
00000000000000
00000000000000
00000000000000
00000000000000
00000000000000
00000000000000
00000000000000
00000000000000
00000000000000
00000000000000
00000000000000
00000000000000
00000000000000
00000000000000
00000000000000
00000000000000
00000000000000
00000000000000
00000000000000
00000000000000
00000000000000
00000000000000
00000000000000
00000000000000
00000000000000
00000000000000
00000000000000
00000000000000
00000000000000
ENDCHAR
STARTCHAR U+007F
ENCODING 127
SWIDTH 1000 0
DWIDTH 30 0
BBX 49 60 -9 -12
BITMAP
00000000000000
00000000000000
00000000000000
00000000000000
00000000000000
00000000000000
00007FF8000000
00007FF8000000
00007FF8000000
0000FFF0000000
0000FFF0000000
0000FFF0000000
0001F8FC000000
0001F8FC000000
0001F8FC000000
0003F1F8000000
0003F1F8000000
0003F1F8000000
0007E3F0000000
0007E3F0000000
0007E3F0000000
000FC7E0000000
000FC7E0000000
000FC7E0000000
001F8FC0000000
001F8FC0000000
001F8FC0000000
003F1F80000000
003F1F80000000
003F1F80000000
007FFFE0000000
007FFFE0000000
007FFFE0000000
00FFFFC0000000
00FFFFC0000000
00FFFFC0000000
0007E000000000
0007E000000000
0007E000000000
000FC000000000
000FC000000000
000FC000000000
001F8000000000
001F8000000000
001F8000000000
003F0000000000
003F0000000000
003F0000000000
007E0000000000
007E0000000000
007E0000000000
00FC0000000000
00FC0000000000
00FC0000000000
01F80000000000
01F80000000000
01F80000000000
03F00000000000
03F00000000000
03F00000000000
ENDCHAR
STARTCHAR U+007E
ENCODING 126
SWIDTH 1000 0
DWIDTH 30 0
BBX 49 60 -9 -12
BITMAP
00000000000000
00000000000000
00000000000000
00000000000000
00000000000000
00000000000000
00000FF81F8000
00000FF81F8000
00000FF81F8000
00001FF03F0000
00001FF03F0000
00001FF03F0000
0001F8FC7E0000
0001F8FC7E0000
0001F8FC7E0000
0003F1F8FC0000
0003F1F8FC0000
0003F1F8FC0000
0007E07FC00000
0007E07FC00000
0007E07FC00000
000FC0FF800000
000FC0FF800000
000FC0FF800000
00000000000000
00000000000000
00000000000000
00000000000000
00000000000000
00000000000000
00000000000000
00000000000000
00000000000000
00000000000000
00000000000000
00000000000000
00000000000000
00000000000000
00000000000000
00000000000000
00000000000000
00000000000000
00000000000000
00000000000000
00000000000000
00000000000000
00000000000000
00000000000000
00000000000000
00000000000000
00000000000000
00000000000000
00000000000000
00000000000000
00000000000000
00000000000000
00000000000000
00000000000000
00000000000000
00000000000000
ENDCHAR
STARTCHAR U+007D
ENCODING 125
SWIDTH 1000 0
DWIDTH 30 0
BBX 49 60 -9 -12
BITMAP
00000000000000
00000000000000
00000000000000
00000000000000
00000000000000
00000000000000
00007FF8000000
00007FF8000000
00007FF8000000
0000FFF0000000
0000FFF0000000
0000FFF0000000
000000FC000000
000000FC000000
000000FC000000
000001F8000000
000001F8000000
000001F8000000
00001F80000000
00001F80000000
00001F80000000
00003F00000000
00003F00000000
00003F00000000
00000FF8000000
00000FF8000000
00000FF8000000
00001FF0000000
00001FF0000000
00001FF0000000
0001F800000000
0001F800000000
0001F800000000
0003F000000000
0003F000000000
0003F000000000
0000FC00000000
0000FC00000000
0000FC00000000
0001F800000000
0001F800000000
0001F800000000
07FF8000000000
07FF8000000000
07FF8000000000
0FFF0000000000
0FFF0000000000
0FFF0000000000
00000000000000
00000000000000
00000000000000
00000000000000
00000000000000
00000000000000
00000000000000
00000000000000
00000000000000
00000000000000
00000000000000
00000000000000
ENDCHAR
STARTCHAR U+007C
ENCODING 124
SWIDTH 1000 0
DWIDTH 30 0
BBX 49 60 -9 -12
BITMAP
00000000000000
00000000000000
00000000000000
00000000000000
00000000000000
00000000000000
0000003F000000
0000003F000000
0000003F000000
0000007E000000
0000007E000000
0000007E000000
000000FC000000
000000FC000000
000000FC000000
000001F8000000
000001F8000000
000001F8000000
000003F0000000
000003F0000000
000003F0000000
000007E0000000
000007E0000000
000007E0000000
00000FC0000000
00000FC0000000
00000FC0000000
00001F80000000
00001F80000000
00001F80000000
00003F00000000
00003F00000000
00003F00000000
00007E00000000
00007E00000000
00007E00000000
0000FC00000000
0000FC00000000
0000FC00000000
0001F800000000
0001F800000000
0001F800000000
0003F000000000
0003F000000000
0003F000000000
0007E000000000
0007E000000000
0007E000000000
00000000000000
00000000000000
00000000000000
00000000000000
00000000000000
00000000000000
00000000000000
00000000000000
00000000000000
00000000000000
00000000000000
00000000000000
ENDCHAR
STARTCHAR U+007B
ENCODING 123
SWIDTH 1000 0
DWIDTH 30 0
BBX 49 60 -9 -12
BITMAP
00000000000000
00000000000000
00000000000000
00000000000000
00000000000000
00000000000000
00000007FF8000
00000007FF8000
00000007FF8000
0000000FFF0000
0000000FFF0000
0000000FFF0000
000000FC000000
000000FC000000
000000FC000000
000001F8000000
000001F8000000
000001F8000000
0000007E000000
0000007E000000
0000007E000000
000000FC000000
000000FC000000
000000FC000000
00007FC0000000
00007FC0000000
00007FC0000000
0000FF80000000
0000FF80000000
0000FF80000000
000007E0000000
000007E0000000
000007E0000000
00000FC0000000
00000FC0000000
00000FC0000000
0000FC00000000
0000FC00000000
0000FC00000000
0001F800000000
0001F800000000
0001F800000000
00007FF8000000
00007FF8000000
00007FF8000000
0000FFF0000000
0000FFF0000000
0000FFF0000000
00000000000000
00000000000000
00000000000000
00000000000000
00000000000000
00000000000000
00000000000000
00000000000000
00000000000000
00000000000000
00000000000000
00000000000000
ENDCHAR
STARTCHAR U+007A
ENCODING 122
SWIDTH 1000 0
DWIDTH 30 0
BBX 49 60 -9 -12
BITMAP
00000000000000
00000000000000
00000000000000
00000000000000
00000000000000
00000000000000
00000000000000
00000000000000
00000000000000
00000000000000
00000000000000
00000000000000
00000000000000
00000000000000
00000000000000
00000000000000
00000000000000
00000000000000
0007FFFFF80000
0007FFFFF80000
0007FFFFF80000
000FFFFFF00000
000FFFFFF00000
000FFFFFF00000
0000003F000000
0000003F000000
0000003F000000
0000007E000000
0000007E000000
0000007E000000
00003FE0000000
00003FE0000000
00003FE0000000
00007FC0000000
00007FC0000000
00007FC0000000
0007E000000000
0007E000000000
0007E000000000
000FC000000000
000FC000000000
000FC000000000
07FFFFF8000000
07FFFFF8000000
07FFFFF8000000
0FFFFFF0000000
0FFFFFF0000000
0FFFFFF0000000
00000000000000
00000000000000
00000000000000
00000000000000
00000000000000
00000000000000
00000000000000
00000000000000
00000000000000
00000000000000
00000000000000
00000000000000
ENDCHAR
STARTCHAR U+0079
ENCODING 121
SWIDTH 1000 0
DWIDTH 30 0
BBX 49 60 -9 -12
BITMAP
00000000000000
00000000000000
00000000000000
00000000000000
00000000000000
00000000000000
00000000000000
00000000000000
00000000000000
00000000000000
00000000000000
00000000000000
00000000000000
00000000000000
00000000000000
00000000000000
00000000000000
00000000000000
0007E00FC00000
0007E00FC00000
0007E00FC00000
000FC01F800000
000FC01F800000
000FC01F800000
001F803F000000
001F803F000000
001F803F000000
003F007E000000
003F007E000000
003F007E000000
007E07FC000000
007E07FC000000
007E07FC000000
00FC0FF8000000
00FC0FF8000000
00FC0FF8000000
003FFFF0000000
003FFFF0000000
003FFFF0000000
007FFFE0000000
007FFFE0000000
007FFFE0000000
00000FC0000000
00000FC0000000
00000FC0000000
00001F80000000
00001F80000000
00001F80000000
1F803F00000000
1F803F00000000
1F803F00000000
3F007E00000000
3F007E00000000
3F007E00000000
0FFFE000000000
0FFFE000000000
0FFFE000000000
1FFFC000000000
1FFFC000000000
1FFFC000000000
ENDCHAR
STARTCHAR U+0078
ENCODING 120
SWIDTH 1000 0
DWIDTH 30 0
BBX 49 60 -9 -12
BITMAP
00000000000000
00000000000000
00000000000000
00000000000000
00000000000000
00000000000000
00000000000000
00000000000000
00000000000000
00000000000000
00000000000000
00000000000000
00000000000000
00000000000000
00000000000000
00000000000000
00000000000000
00000000000000
0007E00FC00000
0007E00FC00000
0007E00FC00000
000FC01F800000
000FC01F800000
000FC01F800000
0003F1F8000000
0003F1F8000000
0003F1F8000000
0007E3F0000000
0007E3F0000000
0007E3F0000000
0001FF00000000
0001FF00000000
0001FF00000000
0003FE00000000
0003FE00000000
0003FE00000000
003F1F80000000
003F1F80000000
003F1F80000000
007E3F00000000
007E3F00000000
007E3F00000000
07E00FC0000000
07E00FC0000000
07E00FC0000000
0FC01F80000000
0FC01F80000000
0FC01F80000000
00000000000000
00000000000000
00000000000000
00000000000000
00000000000000
00000000000000
00000000000000
00000000000000
00000000000000
00000000000000
00000000000000
00000000000000
ENDCHAR
STARTCHAR U+0077
ENCODING 119
SWIDTH 1000 0
DWIDTH 30 0
BBX 49 60 -9 -12
BITMAP
00000000000000
00000000000000
00000000000000
00000000000000
00000000000000
00000000000000
00000000000000
00000000000000
00000000000000
00000000000000
00000000000000
00000000000000
00000000000000
00000000000000
00000000000000
00000000000000
00000000000000
00000000000000
0007E001F80000
0007E001F80000
0007E001F80000
000FC003F00000
000FC003F00000
000FC003F00000
001F8007E00000
001F8007E00000
001F8007E00000
003F000FC00000
003F000FC00000
003F000FC00000
007E3F1F800000
007E3F1F800000
007E3F1F800000
00FC7E3F000000
00FC7E3F000000
00FC7E3F000000
01FFFFFE000000
01FFFFFE000000
01FFFFFE000000
03FFFFFC000000
03FFFFFC000000
03FFFFFC000000
00FC0FC0000000
00FC0FC0000000
00FC0FC0000000
01F81F80000000
01F81F80000000
01F81F80000000
00000000000000
00000000000000
00000000000000
00000000000000
00000000000000
00000000000000
00000000000000
00000000000000
00000000000000
00000000000000
00000000000000
00000000000000
ENDCHAR
STARTCHAR U+0076
ENCODING 118
SWIDTH 1000 0
DWIDTH 30 0
BBX 49 60 -9 -12
BITMAP
00000000000000
00000000000000
00000000000000
00000000000000
00000000000000
00000000000000
00000000000000
00000000000000
00000000000000
00000000000000
00000000000000
00000000000000
00000000000000
00000000000000
00000000000000
00000000000000
00000000000000
00000000000000
0007E001F80000
0007E001F80000
0007E001F80000
000FC003F00000
000FC003F00000
000FC003F00000
001F8007E00000
001F8007E00000
001F8007E00000
003F000FC00000
003F000FC00000
003F000FC00000
000FC0FC000000
000FC0FC000000
000FC0FC000000
001F81F8000000
001F81F8000000
001F81F8000000
0007FF80000000
0007FF80000000
0007FF80000000
000FFF00000000
000FFF00000000
000FFF00000000
0003F000000000
0003F000000000
0003F000000000
0007E000000000
0007E000000000
0007E000000000
00000000000000
00000000000000
00000000000000
00000000000000
00000000000000
00000000000000
00000000000000
00000000000000
00000000000000
00000000000000
00000000000000
00000000000000
ENDCHAR
STARTCHAR U+0075
ENCODING 117
SWIDTH 1000 0
DWIDTH 30 0
BBX 49 60 -9 -12
BITMAP
00000000000000
00000000000000
00000000000000
00000000000000
00000000000000
00000000000000
00000000000000
00000000000000
00000000000000
00000000000000
00000000000000
00000000000000
00000000000000
00000000000000
00000000000000
00000000000000
00000000000000
00000000000000
0007E00FC00000
0007E00FC00000
0007E00FC00000
000FC01F800000
000FC01F800000
000FC01F800000
001F803F000000
001F803F000000
001F803F000000
003F007E000000
003F007E000000
003F007E000000
007E00FC000000
007E00FC000000
007E00FC000000
00FC01F8000000
00FC01F8000000
00FC01F8000000
01F803F0000000
01F803F0000000
01F803F0000000
03F007E0000000
03F007E0000000
03F007E0000000
00FFFFF8000000
00FFFFF8000000
00FFFFF8000000
01FFFFF0000000
01FFFFF0000000
01FFFFF0000000
00000000000000
00000000000000
00000000000000
00000000000000
00000000000000
00000000000000
00000000000000
00000000000000
00000000000000
00000000000000
00000000000000
00000000000000
ENDCHAR
STARTCHAR U+0074
ENCODING 116
SWIDTH 1000 0
DWIDTH 30 0
BBX 49 60 -9 -12
BITMAP
00000000000000
00000000000000
00000000000000
00000000000000
00000000000000
00000000000000
000001F8000000
000001F8000000
000001F8000000
000003F0000000
000003F0000000
000003F0000000
000007E0000000
000007E0000000
000007E0000000
00000FC0000000
00000FC0000000
00000FC0000000
0007FFFE000000
0007FFFE000000
0007FFFE000000
000FFFFC000000
000FFFFC000000
000FFFFC000000
00007E00000000
00007E00000000
00007E00000000
0000FC00000000
0000FC00000000
0000FC00000000
0001F800000000
0001F800000000
0001F800000000
0003F000000000
0003F000000000
0003F000000000
0007E3F0000000
0007E3F0000000
0007E3F0000000
000FC7E0000000
000FC7E0000000
000FC7E0000000
0003FE00000000
0003FE00000000
0003FE00000000
0007FC00000000
0007FC00000000
0007FC00000000
00000000000000
00000000000000
00000000000000
00000000000000
00000000000000
00000000000000
00000000000000
00000000000000
00000000000000
00000000000000
00000000000000
00000000000000
ENDCHAR
STARTCHAR U+0073
ENCODING 115
SWIDTH 1000 0
DWIDTH 30 0
BBX 49 60 -9 -12
BITMAP
00000000000000
00000000000000
00000000000000
00000000000000
00000000000000
00000000000000
00000000000000
00000000000000
00000000000000
00000000000000
00000000000000
00000000000000
00000000000000
00000000000000
00000000000000
00000000000000
00000000000000
00000000000000
0000FFFFC00000
0000FFFFC00000
0000FFFFC00000
0001FFFF800000
0001FFFF800000
0001FFFF800000
001F8000000000
001F8000000000
001F8000000000
003F0000000000
003F0000000000
003F0000000000
000FFFFC000000
000FFFFC000000
000FFFFC000000
001FFFF8000000
001FFFF8000000
001FFFF8000000
0000007E000000
0000007E000000
0000007E000000
000000FC000000
000000FC000000
000000FC000000
07FFFFC0000000
07FFFFC0000000
07FFFFC0000000
0FFFFF80000000
0FFFFF80000000
0FFFFF80000000
00000000000000
00000000000000
00000000000000
00000000000000
00000000000000
00000000000000
00000000000000
00000000000000
00000000000000
00000000000000
00000000000000
00000000000000
ENDCHAR
STARTCHAR U+0072
ENCODING 114
SWIDTH 1000 0
DWIDTH 30 0
BBX 49 60 -9 -12
BITMAP
00000000000000
00000000000000
00000000000000
00000000000000
00000000000000
00000000000000
00000000000000
00000000000000
00000000000000
00000000000000
00000000000000
00000000000000
00000000000000
00000000000000
00000000000000
00000000000000
00000000000000
00000000000000
0007E3FFC00000
0007E3FFC00000
0007E3FFC00000
000FC7FF800000
000FC7FF800000
000FC7FF800000
0003FE07E00000
0003FE07E00000
0003FE07E00000
0007FC0FC00000
0007FC0FC00000
0007FC0FC00000
000FC000000000
000FC000000000
000FC000000000
001F8000000000
001F8000000000
001F8000000000
003F0000000000
003F0000000000
003F0000000000
007E0000000000
007E0000000000
007E0000000000
00FC0000000000
00FC0000000000
00FC0000000000
01F80000000000
01F80000000000
01F80000000000
00000000000000
00000000000000
00000000000000
00000000000000
00000000000000
00000000000000
00000000000000
00000000000000
00000000000000
00000000000000
00000000000000
00000000000000
ENDCHAR
STARTCHAR U+0071
ENCODING 113
SWIDTH 1000 0
DWIDTH 30 0
BBX 49 60 -9 -12
BITMAP
00000000000000
00000000000000
00000000000000
00000000000000
00000000000000
00000000000000
00000000000000
00000000000000
00000000000000
00000000000000
00000000000000
00000000000000
00000000000000
00000000000000
00000000000000
00000000000000
00000000000000
00000000000000
0000FFFFF80000
0000FFFFF80000
0000FFFFF80000
0001FFFFF00000
0001FFFFF00000
0001FFFFF00000
001F803FE00000
001F803FE00000
001F803FE00000
003F007FC00000
003F007FC00000
003F007FC00000
007E00FF800000
007E00FF800000
007E00FF800000
00FC01FF000000
00FC01FF000000
00FC01FF000000
003FFFFE000000
003FFFFE000000
003FFFFE000000
007FFFFC000000
007FFFFC000000
007FFFFC000000
000001F8000000
000001F8000000
000001F8000000
000003F0000000
000003F0000000
000003F0000000
000007E0000000
000007E0000000
000007E0000000
00000FC0000000
00000FC0000000
00000FC0000000
00001F80000000
00001F80000000
00001F80000000
00003F00000000
00003F00000000
00003F00000000
ENDCHAR
STARTCHAR U+0070
ENCODING 112
SWIDTH 1000 0
DWIDTH 30 0
BBX 49 60 -9 -12
BITMAP
00000000000000
00000000000000
00000000000000
00000000000000
00000000000000
00000000000000
00000000000000
00000000000000
00000000000000
00000000000000
00000000000000
00000000000000
00000000000000
00000000000000
00000000000000
00000000000000
00000000000000
00000000000000
0007FFFFC00000
0007FFFFC00000
0007FFFFC00000
000FFFFF800000
000FFFFF800000
000FFFFF800000
001FF007E00000
001FF007E00000
001FF007E00000
003FE00FC00000
003FE00FC00000
003FE00FC00000
007FC01F800000
007FC01F800000
007FC01F800000
00FF803F000000
00FF803F000000
00FF803F000000
01FFFFF0000000
01FFFFF0000000
01FFFFF0000000
03FFFFE0000000
03FFFFE0000000
03FFFFE0000000
07E00000000000
07E00000000000
07E00000000000
0FC00000000000
0FC00000000000
0FC00000000000
1F800000000000
1F800000000000
1F800000000000
3F000000000000
3F000000000000
3F000000000000
7E000000000000
7E000000000000
7E000000000000
FC000000000000
FC000000000000
FC000000000000
ENDCHAR
STARTCHAR U+006f
ENCODING 111
SWIDTH 1000 0
DWIDTH 30 0
BBX 49 60 -9 -12
BITMAP
00000000000000
00000000000000
00000000000000
00000000000000
00000000000000
00000000000000
00000000000000
00000000000000
00000000000000
00000000000000
00000000000000
00000000000000
00000000000000
00000000000000
00000000000000
00000000000000
00000000000000
00000000000000
0000FFFFC00000
0000FFFFC00000
0000FFFFC00000
0001FFFF800000
0001FFFF800000
0001FFFF800000
001F8007E00000
001F8007E00000
001F8007E00000
003F000FC00000
003F000FC00000
003F000FC00000
007E001F800000
007E001F800000
007E001F800000
00FC003F000000
00FC003F000000
00FC003F000000
01F8007E000000
01F8007E000000
01F8007E000000
03F000FC000000
03F000FC000000
03F000FC000000
00FFFFC0000000
00FFFFC0000000
00FFFFC0000000
01FFFF80000000
01FFFF80000000
01FFFF80000000
00000000000000
00000000000000
00000000000000
00000000000000
00000000000000
00000000000000
00000000000000
00000000000000
00000000000000
00000000000000
00000000000000
00000000000000
ENDCHAR
STARTCHAR U+006e
ENCODING 110
SWIDTH 1000 0
DWIDTH 30 0
BBX 49 60 -9 -12
BITMAP
00000000000000
00000000000000
00000000000000
00000000000000
00000000000000
00000000000000
00000000000000
00000000000000
00000000000000
00000000000000
00000000000000
00000000000000
00000000000000
00000000000000
00000000000000
00000000000000
00000000000000
00000000000000
0007FFFFC00000
0007FFFFC00000
0007FFFFC00000
000FFFFF800000
000FFFFF800000
000FFFFF800000
001FF007E00000
001FF007E00000
001FF007E00000
003FE00FC00000
003FE00FC00000
003FE00FC00000
007E001F800000
007E001F800000
007E001F800000
00FC003F000000
00FC003F000000
00FC003F000000
01F8007E000000
01F8007E000000
01F8007E000000
03F000FC000000
03F000FC000000
03F000FC000000
07E001F8000000
07E001F8000000
07E001F8000000
0FC003F0000000
0FC003F0000000
0FC003F0000000
00000000000000
00000000000000
00000000000000
00000000000000
00000000000000
00000000000000
00000000000000
00000000000000
00000000000000
00000000000000
00000000000000
00000000000000
ENDCHAR
STARTCHAR U+006d
ENCODING 109
SWIDTH 1000 0
DWIDTH 30 0
BBX 49 60 -9 -12
BITMAP
00000000000000
00000000000000
00000000000000
00000000000000
00000000000000
00000000000000
00000000000000
00000000000000
00000000000000
00000000000000
00000000000000
00000000000000
00000000000000
00000000000000
00000000000000
00000000000000
00000000000000
00000000000000
0007FC0FC00000
0007FC0FC00000
0007FC0FC00000
000FF81F800000
000FF81F800000
000FF81F800000
001FFFFFE00000
001FFFFFE00000
001FFFFFE00000
003FFFFFC00000
003FFFFFC00000
003FFFFFC00000
007E3F1F800000
007E3F1F800000
007E3F1F800000
00FC7E3F000000
00FC7E3F000000
00FC7E3F000000
01F8FC7E000000
01F8FC7E000000
01F8FC7E000000
03F1F8FC000000
03F1F8FC000000
03F1F8FC000000
07E001F8000000
07E001F8000000
07E001F8000000
0FC003F0000000
0FC003F0000000
0FC003F0000000
00000000000000
00000000000000
00000000000000
00000000000000
00000000000000
00000000000000
00000000000000
00000000000000
00000000000000
00000000000000
00000000000000
00000000000000
ENDCHAR
STARTCHAR U+006c
ENCODING 108
SWIDTH 1000 0
DWIDTH 30 0
BBX 49 60 -9 -12
BITMAP
00000000000000
00000000000000
00000000000000
00000000000000
00000000000000
00000000000000
000001FF000000
000001FF000000
000001FF000000
000003FE000000
000003FE000000
000003FE000000
000000FC000000
000000FC000000
000000FC000000
000001F8000000
000001F8000000
000001F8000000
000003F0000000
000003F0000000
000003F0000000
000007E0000000
000007E0000000
000007E0000000
00000FC0000000
00000FC0000000
00000FC0000000
00001F80000000
00001F80000000
00001F80000000
00003F00000000
00003F00000000
00003F00000000
00007E00000000
00007E00000000
00007E00000000
0000FC00000000
0000FC00000000
0000FC00000000
0001F800000000
0001F800000000
0001F800000000
001FFE00000000
001FFE00000000
001FFE00000000
003FFC00000000
003FFC00000000
003FFC00000000
00000000000000
00000000000000
00000000000000
00000000000000
00000000000000
00000000000000
00000000000000
00000000000000
00000000000000
00000000000000
00000000000000
00000000000000
ENDCHAR
STARTCHAR U+006b
ENCODING 107
SWIDTH 1000 0
DWIDTH 30 0
BBX 49 60 -9 -12
BITMAP
00000000000000
00000000000000
00000000000000
00000000000000
00000000000000
00000000000000
00007E00000000
00007E00000000
00007E00000000
0000FC00000000
0000FC00000000
0000FC00000000
0001F800000000
0001F800000000
0001F800000000
0003F000000000
0003F000000000
0003F000000000
0007E07E000000
0007E07E000000
0007E07E000000
000FC0FC000000
000FC0FC000000
000FC0FC000000
001F8FC0000000
001F8FC0000000
001F8FC0000000
003F1F80000000
003F1F80000000
003F1F80000000
007FF800000000
007FF800000000
007FF800000000
00FFF000000000
00FFF000000000
00FFF000000000
01F81F80000000
01F81F80000000
01F81F80000000
03F03F00000000
03F03F00000000
03F03F00000000
07E001F8000000
07E001F8000000
07E001F8000000
0FC003F0000000
0FC003F0000000
0FC003F0000000
00000000000000
00000000000000
00000000000000
00000000000000
00000000000000
00000000000000
00000000000000
00000000000000
00000000000000
00000000000000
00000000000000
00000000000000
ENDCHAR
STARTCHAR U+006a
ENCODING 106
SWIDTH 1000 0
DWIDTH 30 0
BBX 49 60 -9 -12
BITMAP
00000000000000
00000000000000
00000000000000
00000000000000
00000000000000
00000000000000
00000000FC0000
00000000FC0000
00000000FC0000
00000001F80000
00000001F80000
00000001F80000
00000000000000
00000000000000
00000000000000
00000000000000
00000000000000
00000000000000
0000000FC00000
0000000FC00000
0000000FC00000
0000001F800000
0000001F800000
0000001F800000
0000003F000000
0000003F000000
0000003F000000
0000007E000000
0000007E000000
0000007E000000
000000FC000000
000000FC000000
000000FC000000
000001F8000000
000001F8000000
000001F8000000
000003F0000000
000003F0000000
000003F0000000
000007E0000000
000007E0000000
000007E0000000
07E00FC0000000
07E00FC0000000
07E00FC0000000
0FC01F80000000
0FC01F80000000
0FC01F80000000
1F803F00000000
1F803F00000000
1F803F00000000
3F007E00000000
3F007E00000000
3F007E00000000
0FFFE000000000
0FFFE000000000
0FFFE000000000
1FFFC000000000
1FFFC000000000
1FFFC000000000
ENDCHAR
STARTCHAR U+0069
ENCODING 105
SWIDTH 1000 0
DWIDTH 30 0
BBX 49 60 -9 -12
BITMAP
00000000000000
00000000000000
00000000000000
00000000000000
00000000000000
00000000000000
0000003F000000
0000003F000000
0000003F000000
0000007E000000
0000007E000000
0000007E000000
00000000000000
00000000000000
00000000000000
00000000000000
00000000000000
00000000000000
00001FF0000000
00001FF0000000
00001FF0000000
00003FE0000000
00003FE0000000
00003FE0000000
00000FC0000000
00000FC0000000
00000FC0000000
00001F80000000
00001F80000000
00001F80000000
00003F00000000
00003F00000000
00003F00000000
00007E00000000
00007E00000000
00007E00000000
0000FC00000000
0000FC00000000
0000FC00000000
0001F800000000
0001F800000000
0001F800000000
00FFFFC0000000
00FFFFC0000000
00FFFFC0000000
01FFFF80000000
01FFFF80000000
01FFFF80000000
00000000000000
00000000000000
00000000000000
00000000000000
00000000000000
00000000000000
00000000000000
00000000000000
00000000000000
00000000000000
00000000000000
00000000000000
ENDCHAR
STARTCHAR U+0068
ENCODING 104
SWIDTH 1000 0
DWIDTH 30 0
BBX 49 60 -9 -12
BITMAP
00000000000000
00000000000000
00000000000000
00000000000000
00000000000000
00000000000000
00007E00000000
00007E00000000
00007E00000000
0000FC00000000
0000FC00000000
0000FC00000000
0001F800000000
0001F800000000
0001F800000000
0003F000000000
0003F000000000
0003F000000000
0007FFFFC00000
0007FFFFC00000
0007FFFFC00000
000FFFFF800000
000FFFFF800000
000FFFFF800000
001FF007E00000
001FF007E00000
001FF007E00000
003FE00FC00000
003FE00FC00000
003FE00FC00000
007E001F800000
007E001F800000
007E001F800000
00FC003F000000
00FC003F000000
00FC003F000000
01F8007E000000
01F8007E000000
01F8007E000000
03F000FC000000
03F000FC000000
03F000FC000000
07E001F8000000
07E001F8000000
07E001F8000000
0FC003F0000000
0FC003F0000000
0FC003F0000000
00000000000000
00000000000000
00000000000000
00000000000000
00000000000000
00000000000000
00000000000000
00000000000000
00000000000000
00000000000000
00000000000000
00000000000000
ENDCHAR
STARTCHAR U+0067
ENCODING 103
SWIDTH 1000 0
DWIDTH 30 0
BBX 49 60 -9 -12
BITMAP
00000000000000
00000000000000
00000000000000
00000000000000
00000000000000
00000000000000
00000000000000
00000000000000
00000000000000
00000000000000
00000000000000
00000000000000
00000000000000
00000000000000
00000000000000
00000000000000
00000000000000
00000000000000
0000FFFFF80000
0000FFFFF80000
0000FFFFF80000
0001FFFFF00000
0001FFFFF00000
0001FFFFF00000
001F803F000000
001F803F000000
001F803F000000
003F007E000000
003F007E000000
003F007E000000
000FFFE0000000
000FFFE0000000
000FFFE0000000
001FFFC0000000
001FFFC0000000
001FFFC0000000
01F80000000000
01F80000000000
01F80000000000
03F00000000000
03F00000000000
03F00000000000
00FFFFC0000000
00FFFFC0000000
00FFFFC0000000
01FFFF80000000
01FFFF80000000
01FFFF80000000
1F8007E0000000
1F8007E0000000
1F8007E0000000
3F000FC0000000
3F000FC0000000
3F000FC0000000
0FFFFC00000000
0FFFFC00000000
0FFFFC00000000
1FFFF800000000
1FFFF800000000
1FFFF800000000
ENDCHAR
STARTCHAR U+0066
ENCODING 102
SWIDTH 1000 0
DWIDTH 30 0
BBX 49 60 -9 -12
BITMAP
00000000000000
00000000000000
00000000000000
00000000000000
00000000000000
00000000000000
0000003FFC0000
0000003FFC0000
0000003FFC0000
0000007FF80000
0000007FF80000
0000007FF80000
000007E07E0000
000007E07E0000
000007E07E0000
00000FC0FC0000
00000FC0FC0000
00000FC0FC0000
00001F80000000
00001F80000000
00001F80000000
00003F00000000
00003F00000000
00003F00000000
001FFFF8000000
001FFFF8000000
001FFFF8000000
003FFFF0000000
003FFFF0000000
003FFFF0000000
0001F800000000
0001F800000000
0001F800000000
0003F000000000
0003F000000000
0003F000000000
0007E000000000
0007E000000000
0007E000000000
000FC000000000
000FC000000000
000FC000000000
001F8000000000
001F8000000000
001F8000000000
003F0000000000
003F0000000000
003F0000000000
00000000000000
00000000000000
00000000000000
00000000000000
00000000000000
00000000000000
00000000000000
00000000000000
00000000000000
00000000000000
00000000000000
00000000000000
ENDCHAR
STARTCHAR U+0065
ENCODING 101
SWIDTH 1000 0
DWIDTH 30 0
BBX 49 60 -9 -12
BITMAP
00000000000000
00000000000000
00000000000000
00000000000000
00000000000000
00000000000000
00000000000000
00000000000000
00000000000000
00000000000000
00000000000000
00000000000000
00000000000000
00000000000000
00000000000000
00000000000000
00000000000000
00000000000000
0000FFFFC00000
0000FFFFC00000
0000FFFFC00000
0001FFFF800000
0001FFFF800000
0001FFFF800000
001F8007E00000
001F8007E00000
001F8007E00000
003F000FC00000
003F000FC00000
003F000FC00000
007FFFFF800000
007FFFFF800000
007FFFFF800000
00FFFFFF000000
00FFFFFF000000
00FFFFFF000000
01F80000000000
01F80000000000
01F80000000000
03F00000000000
03F00000000000
03F00000000000
00FFFFC0000000
00FFFFC0000000
00FFFFC0000000
01FFFF80000000
01FFFF80000000
01FFFF80000000
00000000000000
00000000000000
00000000000000
00000000000000
00000000000000
00000000000000
00000000000000
00000000000000
00000000000000
00000000000000
00000000000000
00000000000000
ENDCHAR
STARTCHAR U+0064
ENCODING 100
SWIDTH 1000 0
DWIDTH 30 0
BBX 49 60 -9 -12
BITMAP
00000000000000
00000000000000
00000000000000
00000000000000
00000000000000
00000000000000
000000001F8000
000000001F8000
000000001F8000
000000003F0000
000000003F0000
000000003F0000
000000007E0000
000000007E0000
000000007E0000
00000000FC0000
00000000FC0000
00000000FC0000
0000FFFFF80000
0000FFFFF80000
0000FFFFF80000
0001FFFFF00000
0001FFFFF00000
0001FFFFF00000
001F803FE00000
001F803FE00000
001F803FE00000
003F007FC00000
003F007FC00000
003F007FC00000
007E001F800000
007E001F800000
007E001F800000
00FC003F000000
00FC003F000000
00FC003F000000
01F803FE000000
01F803FE000000
01F803FE000000
03F007FC000000
03F007FC000000
03F007FC000000
00FFFFF8000000
00FFFFF8000000
00FFFFF8000000
01FFFFF0000000
01FFFFF0000000
01FFFFF0000000
00000000000000
00000000000000
00000000000000
00000000000000
00000000000000
00000000000000
00000000000000
00000000000000
00000000000000
00000000000000
00000000000000
00000000000000
ENDCHAR
STARTCHAR U+0063
ENCODING 99
SWIDTH 1000 0
DWIDTH 30 0
BBX 49 60 -9 -12
BITMAP
00000000000000
00000000000000
00000000000000
00000000000000
00000000000000
00000000000000
00000000000000
00000000000000
00000000000000
00000000000000
00000000000000
00000000000000
00000000000000
00000000000000
00000000000000
00000000000000
00000000000000
00000000000000
0000FFFFC00000
0000FFFFC00000
0000FFFFC00000
0001FFFF800000
0001FFFF800000
0001FFFF800000
001F8007E00000
001F8007E00000
001F8007E00000
003F000FC00000
003F000FC00000
003F000FC00000
007E0000000000
007E0000000000
007E0000000000
00FC0000000000
00FC0000000000
00FC0000000000
01F80000000000
01F80000000000
01F80000000000
03F00000000000
03F00000000000
03F00000000000
00FFFFF8000000
00FFFFF8000000
00FFFFF8000000
01FFFFF0000000
01FFFFF0000000
01FFFFF0000000
00000000000000
00000000000000
00000000000000
00000000000000
00000000000000
00000000000000
00000000000000
00000000000000
00000000000000
00000000000000
00000000000000
00000000000000
ENDCHAR
STARTCHAR U+0062
ENCODING 98
SWIDTH 1000 0
DWIDTH 30 0
BBX 49 60 -9 -12
BITMAP
00000000000000
00000000000000
00000000000000
00000000000000
00000000000000
00000000000000
00007E00000000
00007E00000000
00007E00000000
0000FC00000000
0000FC00000000
0000FC00000000
0001F800000000
0001F800000000
0001F800000000
0003F000000000
0003F000000000
0003F000000000
0007FFFFC00000
0007FFFFC00000
0007FFFFC00000
000FFFFF800000
000FFFFF800000
000FFFFF800000
001FF007E00000
001FF007E00000
001FF007E00000
003FE00FC00000
003FE00FC00000
003FE00FC00000
007E001F800000
007E001F800000
007E001F800000
00FC003F000000
00FC003F000000
00FC003F000000
01FF007E000000
01FF007E000000
01FF007E000000
03FE00FC000000
03FE00FC000000
03FE00FC000000
07FFFFC0000000
07FFFFC0000000
07FFFFC0000000
0FFFFF80000000
0FFFFF80000000
0FFFFF80000000
00000000000000
00000000000000
00000000000000
00000000000000
00000000000000
00000000000000
00000000000000
00000000000000
00000000000000
00000000000000
00000000000000
00000000000000
ENDCHAR
STARTCHAR U+0061
ENCODING 97
SWIDTH 1000 0
DWIDTH 30 0
BBX 49 60 -9 -12
BITMAP
00000000000000
00000000000000
00000000000000
00000000000000
00000000000000
00000000000000
00000000000000
00000000000000
00000000000000
00000000000000
00000000000000
00000000000000
00000000000000
00000000000000
00000000000000
00000000000000
00000000000000
00000000000000
0000FFFFC00000
0000FFFFC00000
0000FFFFC00000
0001FFFF800000
0001FFFF800000
0001FFFF800000
00000007E00000
00000007E00000
00000007E00000
0000000FC00000
0000000FC00000
0000000FC00000
000FFFFF800000
000FFFFF800000
000FFFFF800000
001FFFFF000000
001FFFFF000000
001FFFFF000000
01F803FE000000
01F803FE000000
01F803FE000000
03F007FC000000
03F007FC000000
03F007FC000000
00FFFFF8000000
00FFFFF8000000
00FFFFF8000000
01FFFFF0000000
01FFFFF0000000
01FFFFF0000000
00000000000000
00000000000000
00000000000000
00000000000000
00000000000000
00000000000000
00000000000000
00000000000000
00000000000000
00000000000000
00000000000000
00000000000000
ENDCHAR
STARTCHAR U+0060
ENCODING 96
SWIDTH 1000 0
DWIDTH 30 0
BBX 49 60 -9 -12
BITMAP
00000000000000
00000000000000
00000000000000
00000000000000
00000000000000
00000000000000
000001FF000000
000001FF000000
000001FF000000
000003FE000000
000003FE000000
000003FE000000
000000FC000000
000000FC000000
000000FC000000
000001F8000000
000001F8000000
000001F8000000
0000007E000000
0000007E000000
0000007E000000
000000FC000000
000000FC000000
000000FC000000
00000000000000
00000000000000
00000000000000
00000000000000
00000000000000
00000000000000
00000000000000
00000000000000
00000000000000
00000000000000
00000000000000
00000000000000
00000000000000
00000000000000
00000000000000
00000000000000
00000000000000
00000000000000
00000000000000
00000000000000
00000000000000
00000000000000
00000000000000
00000000000000
00000000000000
00000000000000
00000000000000
00000000000000
00000000000000
00000000000000
00000000000000
00000000000000
00000000000000
00000000000000
00000000000000
00000000000000
ENDCHAR
STARTCHAR U+005F
ENCODING 95
SWIDTH 1000 0
DWIDTH 30 0
BBX 49 60 -9 -12
BITMAP
00000000000000
00000000000000
00000000000000
00000000000000
00000000000000
00000000000000
00000000000000
00000000000000
00000000000000
00000000000000
00000000000000
00000000000000
00000000000000
00000000000000
00000000000000
00000000000000
00000000000000
00000000000000
00000000000000
00000000000000
00000000000000
00000000000000
00000000000000
00000000000000
00000000000000
00000000000000
00000000000000
00000000000000
00000000000000
00000000000000
00000000000000
00000000000000
00000000000000
00000000000000
00000000000000
00000000000000
00000000000000
00000000000000
00000000000000
00000000000000
00000000000000
00000000000000
07FFFFF8000000
07FFFFF8000000
07FFFFF8000000
0FFFFFF0000000
0FFFFFF0000000
0FFFFFF0000000
00000000000000
00000000000000
00000000000000
00000000000000
00000000000000
00000000000000
00000000000000
00000000000000
00000000000000
00000000000000
00000000000000
00000000000000
ENDCHAR
STARTCHAR U+005E
ENCODING 94
SWIDTH 1000 0
DWIDTH 30 0
BBX 49 60 -9 -12
BITMAP
00000000000000
00000000000000
00000000000000
00000000000000
00000000000000
00000000000000
0000003F000000
0000003F000000
0000003F000000
0000007E000000
0000007E000000
0000007E000000
000007FF800000
000007FF800000
000007FF800000
00000FFF000000
00000FFF000000
00000FFF000000
0000FC0FC00000
0000FC0FC00000
0000FC0FC00000
0001F81F800000
0001F81F800000
0001F81F800000
001F8007E00000
001F8007E00000
001F8007E00000
003F000FC00000
003F000FC00000
003F000FC00000
00000000000000
00000000000000
00000000000000
00000000000000
00000000000000
00000000000000
00000000000000
00000000000000
00000000000000
00000000000000
00000000000000
00000000000000
00000000000000
00000000000000
00000000000000
00000000000000
00000000000000
00000000000000
00000000000000
00000000000000
00000000000000
00000000000000
00000000000000
00000000000000
00000000000000
00000000000000
00000000000000
00000000000000
00000000000000
00000000000000
ENDCHAR
STARTCHAR U+005D
ENCODING 93
SWIDTH 1000 0
DWIDTH 30 0
BBX 49 60 -9 -12
BITMAP
00000000000000
00000000000000
00000000000000
00000000000000
00000000000000
00000000000000
00000FFFE00000
00000FFFE00000
00000FFFE00000
00001FFFC00000
00001FFFC00000
00001FFFC00000
0000001F800000
0000001F800000
0000001F800000
0000003F000000
0000003F000000
0000003F000000
0000007E000000
0000007E000000
0000007E000000
000000FC000000
000000FC000000
000000FC000000
000001F8000000
000001F8000000
000001F8000000
000003F0000000
000003F0000000
000003F0000000
000007E0000000
000007E0000000
000007E0000000
00000FC0000000
00000FC0000000
00000FC0000000
00001F80000000
00001F80000000
00001F80000000
00003F00000000
00003F00000000
00003F00000000
00FFFE00000000
00FFFE00000000
00FFFE00000000
01FFFC00000000
01FFFC00000000
01FFFC00000000
00000000000000
00000000000000
00000000000000
00000000000000
00000000000000
00000000000000
00000000000000
00000000000000
00000000000000
00000000000000
00000000000000
00000000000000
ENDCHAR
STARTCHAR U+005C
ENCODING 92
SWIDTH 1000 0
DWIDTH 30 0
BBX 49 60 -9 -12
BITMAP
00000000000000
00000000000000
00000000000000
00000000000000
00000000000000
00000000000000
00007E00000000
00007E00000000
00007E00000000
0000FC00000000
0000FC00000000
0000FC00000000
00003F00000000
00003F00000000
00003F00000000
00007E00000000
00007E00000000
00007E00000000
00001F80000000
00001F80000000
00001F80000000
00003F00000000
00003F00000000
00003F00000000
00000FC0000000
00000FC0000000
00000FC0000000
00001F80000000
00001F80000000
00001F80000000
000007E0000000
000007E0000000
000007E0000000
00000FC0000000
00000FC0000000
00000FC0000000
000003F0000000
000003F0000000
000003F0000000
000007E0000000
000007E0000000
000007E0000000
000001F8000000
000001F8000000
000001F8000000
000003F0000000
000003F0000000
000003F0000000
00000000000000
00000000000000
00000000000000
00000000000000
00000000000000
00000000000000
00000000000000
00000000000000
00000000000000
00000000000000
00000000000000
00000000000000
ENDCHAR
STARTCHAR U+005B
ENCODING 91
SWIDTH 1000 0
DWIDTH 30 0
BBX 49 60 -9 -12
BITMAP
00000000000000
00000000000000
00000000000000
00000000000000
00000000000000
00000000000000
000001FFFC0000
000001FFFC0000
000001FFFC0000
000003FFF80000
000003FFF80000
000003FFF80000
000007E0000000
000007E0000000
000007E0000000
00000FC0000000
00000FC0000000
00000FC0000000
00001F80000000
00001F80000000
00001F80000000
00003F00000000
00003F00000000
00003F00000000
00007E00000000
00007E00000000
00007E00000000
0000FC00000000
0000FC00000000
0000FC00000000
0001F800000000
0001F800000000
0001F800000000
0003F000000000
0003F000000000
0003F000000000
0007E000000000
0007E000000000
0007E000000000
000FC000000000
000FC000000000
000FC000000000
001FFFC0000000
001FFFC0000000
001FFFC0000000
003FFF80000000
003FFF80000000
003FFF80000000
00000000000000
00000000000000
00000000000000
00000000000000
00000000000000
00000000000000
00000000000000
00000000000000
00000000000000
00000000000000
00000000000000
00000000000000
ENDCHAR
STARTCHAR U+005A
ENCODING 90
SWIDTH 1000 0
DWIDTH 30 0
BBX 49 60 -9 -12
BITMAP
00000000000000
00000000000000
00000000000000
00000000000000
00000000000000
00000000000000
00007FFFFF8000
00007FFFFF8000
00007FFFFF8000
0000FFFFFF0000
0000FFFFFF0000
0000FFFFFF0000
00000003F00000
00000003F00000
00000003F00000
00000007E00000
00000007E00000
00000007E00000
0000007E000000
0000007E000000
0000007E000000
000000FC000000
000000FC000000
000000FC000000
00000FC0000000
00000FC0000000
00000FC0000000
00001F80000000
00001F80000000
00001F80000000
0001F800000000
0001F800000000
0001F800000000
0003F000000000
0003F000000000
0003F000000000
003F0000000000
003F0000000000
003F0000000000
007E0000000000
007E0000000000
007E0000000000
07FFFFF8000000
07FFFFF8000000
07FFFFF8000000
0FFFFFF0000000
0FFFFFF0000000
0FFFFFF0000000
00000000000000
00000000000000
00000000000000
00000000000000
00000000000000
00000000000000
00000000000000
00000000000000
00000000000000
00000000000000
00000000000000
00000000000000
ENDCHAR
STARTCHAR U+0059
ENCODING 89
SWIDTH 1000 0
DWIDTH 30 0
BBX 49 60 -9 -12
BITMAP
00000000000000
00000000000000
00000000000000
00000000000000
00000000000000
00000000000000
00007E001F8000
00007E001F8000
00007E001F8000
0000FC003F0000
0000FC003F0000
0000FC003F0000
00003F03F00000
00003F03F00000
00003F03F00000
00007E07E00000
00007E07E00000
00007E07E00000
00001FFE000000
00001FFE000000
00001FFE000000
00003FFC000000
00003FFC000000
00003FFC000000
00000FC0000000
00000FC0000000
00000FC0000000
00001F80000000
00001F80000000
00001F80000000
00003F00000000
00003F00000000
00003F00000000
00007E00000000
00007E00000000
00007E00000000
0000FC00000000
0000FC00000000
0000FC00000000
0001F800000000
0001F800000000
0001F800000000
0003F000000000
0003F000000000
0003F000000000
0007E000000000
0007E000000000
0007E000000000
00000000000000
00000000000000
00000000000000
00000000000000
00000000000000
00000000000000
00000000000000
00000000000000
00000000000000
00000000000000
00000000000000
00000000000000
ENDCHAR
STARTCHAR U+0058
ENCODING 88
SWIDTH 1000 0
DWIDTH 30 0
BBX 49 60 -9 -12
BITMAP
00000000000000
00000000000000
00000000000000
00000000000000
00000000000000
00000000000000
00007E001F8000
00007E001F8000
00007E001F8000
0000FC003F0000
0000FC003F0000
0000FC003F0000
00003F03F00000
00003F03F00000
00003F03F00000
00007E07E00000
00007E07E00000
00007E07E00000
00001FFE000000
00001FFE000000
00001FFE000000
00003FFC000000
00003FFC000000
00003FFC000000
00000FC0000000
00000FC0000000
00000FC0000000
00001F80000000
00001F80000000
00001F80000000
0001FFE0000000
0001FFE0000000
0001FFE0000000
0003FFC0000000
0003FFC0000000
0003FFC0000000
003F03F0000000
003F03F0000000
003F03F0000000
007E07E0000000
007E07E0000000
007E07E0000000
07E001F8000000
07E001F8000000
07E001F8000000
0FC003F0000000
0FC003F0000000
0FC003F0000000
00000000000000
00000000000000
00000000000000
00000000000000
00000000000000
00000000000000
00000000000000
00000000000000
00000000000000
00000000000000
00000000000000
00000000000000
ENDCHAR
STARTCHAR U+0057
ENCODING 87
SWIDTH 1000 0
DWIDTH 30 0
BBX 49 60 -9 -12
BITMAP
00000000000000
00000000000000
00000000000000
00000000000000
00000000000000
00000000000000
00007E001F8000
00007E001F8000
00007E001F8000
0000FC003F0000
0000FC003F0000
0000FC003F0000
0001F8007E0000
0001F8007E0000
0001F8007E0000
0003F000FC0000
0003F000FC0000
0003F000FC0000
0007E001F80000
0007E001F80000
0007E001F80000
000FC003F00000
000FC003F00000
000FC003F00000
001F8FC7E00000
001F8FC7E00000
001F8FC7E00000
003F1F8FC00000
003F1F8FC00000
003F1F8FC00000
007E3F1F800000
007E3F1F800000
007E3F1F800000
00FC7E3F000000
00FC7E3F000000
00FC7E3F000000
01FFFFFE000000
01FFFFFE000000
01FFFFFE000000
03FFFFFC000000
03FFFFFC000000
03FFFFFC000000
00FC0FC0000000
00FC0FC0000000
00FC0FC0000000
01F81F80000000
01F81F80000000
01F81F80000000
00000000000000
00000000000000
00000000000000
00000000000000
00000000000000
00000000000000
00000000000000
00000000000000
00000000000000
00000000000000
00000000000000
00000000000000
ENDCHAR
STARTCHAR U+0056
ENCODING 86
SWIDTH 1000 0
DWIDTH 30 0
BBX 49 60 -9 -12
BITMAP
00000000000000
00000000000000
00000000000000
00000000000000
00000000000000
00000000000000
00007E001F8000
00007E001F8000
00007E001F8000
0000FC003F0000
0000FC003F0000
0000FC003F0000
0001F8007E0000
0001F8007E0000
0001F8007E0000
0003F000FC0000
0003F000FC0000
0003F000FC0000
0000FC0FC00000
0000FC0FC00000
0000FC0FC00000
0001F81F800000
0001F81F800000
0001F81F800000
0003F03F000000
0003F03F000000
0003F03F000000
0007E07E000000
0007E07E000000
0007E07E000000
0001FFE0000000
0001FFE0000000
0001FFE0000000
0003FFC0000000
0003FFC0000000
0003FFC0000000
0007FF80000000
0007FF80000000
0007FF80000000
000FFF00000000
000FFF00000000
000FFF00000000
0003F000000000
0003F000000000
0003F000000000
0007E000000000
0007E000000000
0007E000000000
00000000000000
00000000000000
00000000000000
00000000000000
00000000000000
00000000000000
00000000000000
00000000000000
00000000000000
00000000000000
00000000000000
00000000000000
ENDCHAR
STARTCHAR U+0055
ENCODING 85
SWIDTH 1000 0
DWIDTH 30 0
BBX 49 60 -9 -12
BITMAP
00000000000000
00000000000000
00000000000000
00000000000000
00000000000000
00000000000000
00007E001F8000
00007E001F8000
00007E001F8000
0000FC003F0000
0000FC003F0000
0000FC003F0000
0001F8007E0000
0001F8007E0000
0001F8007E0000
0003F000FC0000
0003F000FC0000
0003F000FC0000
0007E001F80000
0007E001F80000
0007E001F80000
000FC003F00000
000FC003F00000
000FC003F00000
001F8007E00000
001F8007E00000
001F8007E00000
003F000FC00000
003F000FC00000
003F000FC00000
007E001F800000
007E001F800000
007E001F800000
00FC003F000000
00FC003F000000
00FC003F000000
01F8007E000000
01F8007E000000
01F8007E000000
03F000FC000000
03F000FC000000
03F000FC000000
00FFFFC0000000
00FFFFC0000000
00FFFFC0000000
01FFFF80000000
01FFFF80000000
01FFFF80000000
00000000000000
00000000000000
00000000000000
00000000000000
00000000000000
00000000000000
00000000000000
00000000000000
00000000000000
00000000000000
00000000000000
00000000000000
ENDCHAR
STARTCHAR U+0054
ENCODING 84
SWIDTH 1000 0
DWIDTH 30 0
BBX 49 60 -9 -12
BITMAP
00000000000000
00000000000000
00000000000000
00000000000000
00000000000000
00000000000000
00007FFFFF8000
00007FFFFF8000
00007FFFFF8000
0000FFFFFF0000
0000FFFFFF0000
0000FFFFFF0000
000000FC000000
000000FC000000
000000FC000000
000001F8000000
000001F8000000
000001F8000000
000003F0000000
000003F0000000
000003F0000000
000007E0000000
000007E0000000
000007E0000000
00000FC0000000
00000FC0000000
00000FC0000000
00001F80000000
00001F80000000
00001F80000000
00003F00000000
00003F00000000
00003F00000000
00007E00000000
00007E00000000
00007E00000000
0000FC00000000
0000FC00000000
0000FC00000000
0001F800000000
0001F800000000
0001F800000000
0003F000000000
0003F000000000
0003F000000000
0007E000000000
0007E000000000
0007E000000000
00000000000000
00000000000000
00000000000000
00000000000000
00000000000000
00000000000000
00000000000000
00000000000000
00000000000000
00000000000000
00000000000000
00000000000000
ENDCHAR
STARTCHAR U+0053
ENCODING 83
SWIDTH 1000 0
DWIDTH 30 0
BBX 49 60 -9 -12
BITMAP
00000000000000
00000000000000
00000000000000
00000000000000
00000000000000
00000000000000
00000FFFFC0000
00000FFFFC0000
00000FFFFC0000
00001FFFF80000
00001FFFF80000
00001FFFF80000
0001F8007E0000
0001F8007E0000
0001F8007E0000
0003F000FC0000
0003F000FC0000
0003F000FC0000
0007E000000000
0007E000000000
0007E000000000
000FC000000000
000FC000000000
000FC000000000
0003FFFF000000
0003FFFF000000
0003FFFF000000
0007FFFE000000
0007FFFE000000
0007FFFE000000
0000001F800000
0000001F800000
0000001F800000
0000003F000000
0000003F000000
0000003F000000
01F8007E000000
01F8007E000000
01F8007E000000
03F000FC000000
03F000FC000000
03F000FC000000
00FFFFC0000000
00FFFFC0000000
00FFFFC0000000
01FFFF80000000
01FFFF80000000
01FFFF80000000
00000000000000
00000000000000
00000000000000
00000000000000
00000000000000
00000000000000
00000000000000
00000000000000
00000000000000
00000000000000
00000000000000
00000000000000
ENDCHAR
STARTCHAR U+0052
ENCODING 82
SWIDTH 1000 0
DWIDTH 30 0
BBX 49 60 -9 -12
BITMAP
00000000000000
00000000000000
00000000000000
00000000000000
00000000000000
00000000000000
00007FFFFC0000
00007FFFFC0000
00007FFFFC0000
0000FFFFF80000
0000FFFFF80000
0000FFFFF80000
0001F8007E0000
0001F8007E0000
0001F8007E0000
0003F000FC0000
0003F000FC0000
0003F000FC0000
0007E001F80000
0007E001F80000
0007E001F80000
000FC003F00000
000FC003F00000
000FC003F00000
001FFFFF000000
001FFFFF000000
001FFFFF000000
003FFFFE000000
003FFFFE000000
003FFFFE000000
007E07E0000000
007E07E0000000
007E07E0000000
00FC0FC0000000
00FC0FC0000000
00FC0FC0000000
01F803F0000000
01F803F0000000
01F803F0000000
03F007E0000000
03F007E0000000
03F007E0000000
07E001F8000000
07E001F8000000
07E001F8000000
0FC003F0000000
0FC003F0000000
0FC003F0000000
00000000000000
00000000000000
00000000000000
00000000000000
00000000000000
00000000000000
00000000000000
00000000000000
00000000000000
00000000000000
00000000000000
00000000000000
ENDCHAR
STARTCHAR U+0051
ENCODING 81
SWIDTH 1000 0
DWIDTH 30 0
BBX 49 60 -9 -12
BITMAP
00000000000000
00000000000000
00000000000000
00000000000000
00000000000000
00000000000000
00000FFFFC0000
00000FFFFC0000
00000FFFFC0000
00001FFFF80000
00001FFFF80000
00001FFFF80000
0001F8007E0000
0001F8007E0000
0001F8007E0000
0003F000FC0000
0003F000FC0000
0003F000FC0000
0007E001F80000
0007E001F80000
0007E001F80000
000FC003F00000
000FC003F00000
000FC003F00000
001F8007E00000
001F8007E00000
001F8007E00000
003F000FC00000
003F000FC00000
003F000FC00000
007E07FF800000
007E07FF800000
007E07FF800000
00FC0FFF000000
00FC0FFF000000
00FC0FFF000000
01F803F0000000
01F803F0000000
01F803F0000000
03F007E0000000
03F007E0000000
03F007E0000000
00FFFFF8000000
00FFFFF8000000
00FFFFF8000000
01FFFFF0000000
01FFFFF0000000
01FFFFF0000000
00000000000000
00000000000000
00000000000000
00000000000000
00000000000000
00000000000000
00000000000000
00000000000000
00000000000000
00000000000000
00000000000000
00000000000000
ENDCHAR
STARTCHAR U+0050
ENCODING 80
SWIDTH 1000 0
DWIDTH 30 0
BBX 49 60 -9 -12
BITMAP
00000000000000
00000000000000
00000000000000
00000000000000
00000000000000
00000000000000
00007FFFFC0000
00007FFFFC0000
00007FFFFC0000
0000FFFFF80000
0000FFFFF80000
0000FFFFF80000
0001F8007E0000
0001F8007E0000
0001F8007E0000
0003F000FC0000
0003F000FC0000
0003F000FC0000
0007E001F80000
0007E001F80000
0007E001F80000
000FC003F00000
000FC003F00000
000FC003F00000
001FFFFF000000
001FFFFF000000
001FFFFF000000
003FFFFE000000
003FFFFE000000
003FFFFE000000
007E0000000000
007E0000000000
007E0000000000
00FC0000000000
00FC0000000000
00FC0000000000
01F80000000000
01F80000000000
01F80000000000
03F00000000000
03F00000000000
03F00000000000
07E00000000000
07E00000000000
07E00000000000
0FC00000000000
0FC00000000000
0FC00000000000
00000000000000
00000000000000
00000000000000
00000000000000
00000000000000
00000000000000
00000000000000
00000000000000
00000000000000
00000000000000
00000000000000
00000000000000
ENDCHAR
STARTCHAR U+004F
ENCODING 79
SWIDTH 1000 0
DWIDTH 30 0
BBX 49 60 -9 -12
BITMAP
00000000000000
00000000000000
00000000000000
00000000000000
00000000000000
00000000000000
00000FFFFC0000
00000FFFFC0000
00000FFFFC0000
00001FFFF80000
00001FFFF80000
00001FFFF80000
0001F8007E0000
0001F8007E0000
0001F8007E0000
0003F000FC0000
0003F000FC0000
0003F000FC0000
0007E001F80000
0007E001F80000
0007E001F80000
000FC003F00000
000FC003F00000
000FC003F00000
001F8007E00000
001F8007E00000
001F8007E00000
003F000FC00000
003F000FC00000
003F000FC00000
007E001F800000
007E001F800000
007E001F800000
00FC003F000000
00FC003F000000
00FC003F000000
01F8007E000000
01F8007E000000
01F8007E000000
03F000FC000000
03F000FC000000
03F000FC000000
00FFFFC0000000
00FFFFC0000000
00FFFFC0000000
01FFFF80000000
01FFFF80000000
01FFFF80000000
00000000000000
00000000000000
00000000000000
00000000000000
00000000000000
00000000000000
00000000000000
00000000000000
00000000000000
00000000000000
00000000000000
00000000000000
ENDCHAR
STARTCHAR U+004E
ENCODING 78
SWIDTH 1000 0
DWIDTH 30 0
BBX 49 60 -9 -12
BITMAP
00000000000000
00000000000000
00000000000000
00000000000000
00000000000000
00000000000000
00007E001F8000
00007E001F8000
00007E001F8000
0000FC003F0000
0000FC003F0000
0000FC003F0000
0001FF007E0000
0001FF007E0000
0001FF007E0000
0003FE00FC0000
0003FE00FC0000
0003FE00FC0000
0007FF81F80000
0007FF81F80000
0007FF81F80000
000FFF03F00000
000FFF03F00000
000FFF03F00000
001F8FC7E00000
001F8FC7E00000
001F8FC7E00000
003F1F8FC00000
003F1F8FC00000
003F1F8FC00000
007E07FF800000
007E07FF800000
007E07FF800000
00FC0FFF000000
00FC0FFF000000
00FC0FFF000000
01F803FE000000
01F803FE000000
01F803FE000000
03F007FC000000
03F007FC000000
03F007FC000000
07E001F8000000
07E001F8000000
07E001F8000000
0FC003F0000000
0FC003F0000000
0FC003F0000000
00000000000000
00000000000000
00000000000000
00000000000000
00000000000000
00000000000000
00000000000000
00000000000000
00000000000000
00000000000000
00000000000000
00000000000000
ENDCHAR
STARTCHAR U+004D
ENCODING 77
SWIDTH 1000 0
DWIDTH 30 0
BBX 49 60 -9 -12
BITMAP
00000000000000
00000000000000
00000000000000
00000000000000
00000000000000
00000000000000
00007E001F8000
00007E001F8000
00007E001F8000
0000FC003F0000
0000FC003F0000
0000FC003F0000
0001FF03FE0000
0001FF03FE0000
0001FF03FE0000
0003FE07FC0000
0003FE07FC0000
0003FE07FC0000
0007FFFFF80000
0007FFFFF80000
0007FFFFF80000
000FFFFFF00000
000FFFFFF00000
000FFFFFF00000
001F8FC7E00000
001F8FC7E00000
001F8FC7E00000
003F1F8FC00000
003F1F8FC00000
003F1F8FC00000
007E001F800000
007E001F800000
007E001F800000
00FC003F000000
00FC003F000000
00FC003F000000
01F8007E000000
01F8007E000000
01F8007E000000
03F000FC000000
03F000FC000000
03F000FC000000
07E001F8000000
07E001F8000000
07E001F8000000
0FC003F0000000
0FC003F0000000
0FC003F0000000
00000000000000
00000000000000
00000000000000
00000000000000
00000000000000
00000000000000
00000000000000
00000000000000
00000000000000
00000000000000
00000000000000
00000000000000
ENDCHAR
STARTCHAR U+004C
ENCODING 76
SWIDTH 1000 0
DWIDTH 30 0
BBX 49 60 -9 -12
BITMAP
00000000000000
00000000000000
00000000000000
00000000000000
00000000000000
00000000000000
00007E00000000
00007E00000000
00007E00000000
0000FC00000000
0000FC00000000
0000FC00000000
0001F800000000
0001F800000000
0001F800000000
0003F000000000
0003F000000000
0003F000000000
0007E000000000
0007E000000000
0007E000000000
000FC000000000
000FC000000000
000FC000000000
001F8000000000
001F8000000000
001F8000000000
003F0000000000
003F0000000000
003F0000000000
007E0000000000
007E0000000000
007E0000000000
00FC0000000000
00FC0000000000
00FC0000000000
01F80000000000
01F80000000000
01F80000000000
03F00000000000
03F00000000000
03F00000000000
07FFFFF8000000
07FFFFF8000000
07FFFFF8000000
0FFFFFF0000000
0FFFFFF0000000
0FFFFFF0000000
00000000000000
00000000000000
00000000000000
00000000000000
00000000000000
00000000000000
00000000000000
00000000000000
00000000000000
00000000000000
00000000000000
00000000000000
ENDCHAR
STARTCHAR U+004B
ENCODING 75
SWIDTH 1000 0
DWIDTH 30 0
BBX 49 60 -9 -12
BITMAP
00000000000000
00000000000000
00000000000000
00000000000000
00000000000000
00000000000000
00007E001F8000
00007E001F8000
00007E001F8000
0000FC003F0000
0000FC003F0000
0000FC003F0000
0001F81FF00000
0001F81FF00000
0001F81FF00000
0003F03FE00000
0003F03FE00000
0003F03FE00000
0007FFF0000000
0007FFF0000000
0007FFF0000000
000FFFE0000000
000FFFE0000000
000FFFE0000000
001FF000000000
001FF000000000
001FF000000000
003FE000000000
003FE000000000
003FE000000000
007FFF00000000
007FFF00000000
007FFF00000000
00FFFE00000000
00FFFE00000000
00FFFE00000000
01F81FF0000000
01F81FF0000000
01F81FF0000000
03F03FE0000000
03F03FE0000000
03F03FE0000000
07E001F8000000
07E001F8000000
07E001F8000000
0FC003F0000000
0FC003F0000000
0FC003F0000000
00000000000000
00000000000000
00000000000000
00000000000000
00000000000000
00000000000000
00000000000000
00000000000000
00000000000000
00000000000000
00000000000000
00000000000000
ENDCHAR
STARTCHAR U+004A
ENCODING 74
SWIDTH 1000 0
DWIDTH 30 0
BBX 49 60 -9 -12
BITMAP
00000000000000
00000000000000
00000000000000
00000000000000
00000000000000
00000000000000
00000007FF8000
00000007FF8000
00000007FF8000
0000000FFF0000
0000000FFF0000
0000000FFF0000
00000003F00000
00000003F00000
00000003F00000
00000007E00000
00000007E00000
00000007E00000
0000000FC00000
0000000FC00000
0000000FC00000
0000001F800000
0000001F800000
0000001F800000
0000003F000000
0000003F000000
0000003F000000
0000007E000000
0000007E000000
0000007E000000
000000FC000000
000000FC000000
000000FC000000
000001F8000000
000001F8000000
000001F8000000
01F803F0000000
01F803F0000000
01F803F0000000
03F007E0000000
03F007E0000000
03F007E0000000
00FFFE00000000
00FFFE00000000
00FFFE00000000
01FFFC00000000
01FFFC00000000
01FFFC00000000
00000000000000
00000000000000
00000000000000
00000000000000
00000000000000
00000000000000
00000000000000
00000000000000
00000000000000
00000000000000
00000000000000
00000000000000
ENDCHAR
STARTCHAR U+0049
ENCODING 73
SWIDTH 1000 0
DWIDTH 30 0
BBX 49 60 -9 -12
BITMAP
00000000000000
00000000000000
00000000000000
00000000000000
00000000000000
00000000000000
00000FFFFC0000
00000FFFFC0000
00000FFFFC0000
00001FFFF80000
00001FFFF80000
00001FFFF80000
000000FC000000
000000FC000000
000000FC000000
000001F8000000
000001F8000000
000001F8000000
000003F0000000
000003F0000000
000003F0000000
000007E0000000
000007E0000000
000007E0000000
00000FC0000000
00000FC0000000
00000FC0000000
00001F80000000
00001F80000000
00001F80000000
00003F00000000
00003F00000000
00003F00000000
00007E00000000
00007E00000000
00007E00000000
0000FC00000000
0000FC00000000
0000FC00000000
0001F800000000
0001F800000000
0001F800000000
00FFFFC0000000
00FFFFC0000000
00FFFFC0000000
01FFFF80000000
01FFFF80000000
01FFFF80000000
00000000000000
00000000000000
00000000000000
00000000000000
00000000000000
00000000000000
00000000000000
00000000000000
00000000000000
00000000000000
00000000000000
00000000000000
ENDCHAR
STARTCHAR U+0048
ENCODING 72
SWIDTH 1000 0
DWIDTH 30 0
BBX 49 60 -9 -12
BITMAP
00000000000000
00000000000000
00000000000000
00000000000000
00000000000000
00000000000000
00007E001F8000
00007E001F8000
00007E001F8000
0000FC003F0000
0000FC003F0000
0000FC003F0000
0001F8007E0000
0001F8007E0000
0001F8007E0000
0003F000FC0000
0003F000FC0000
0003F000FC0000
0007E001F80000
0007E001F80000
0007E001F80000
000FC003F00000
000FC003F00000
000FC003F00000
001FFFFFE00000
001FFFFFE00000
001FFFFFE00000
003FFFFFC00000
003FFFFFC00000
003FFFFFC00000
007E001F800000
007E001F800000
007E001F800000
00FC003F000000
00FC003F000000
00FC003F000000
01F8007E000000
01F8007E000000
01F8007E000000
03F000FC000000
03F000FC000000
03F000FC000000
07E001F8000000
07E001F8000000
07E001F8000000
0FC003F0000000
0FC003F0000000
0FC003F0000000
00000000000000
00000000000000
00000000000000
00000000000000
00000000000000
00000000000000
00000000000000
00000000000000
00000000000000
00000000000000
00000000000000
00000000000000
ENDCHAR
STARTCHAR U+0047
ENCODING 71
SWIDTH 1000 0
DWIDTH 30 0
BBX 49 60 -9 -12
BITMAP
00000000000000
00000000000000
00000000000000
00000000000000
00000000000000
00000000000000
000001FFFC0000
000001FFFC0000
000001FFFC0000
000003FFF80000
000003FFF80000
000003FFF80000
00003F007E0000
00003F007E0000
00003F007E0000
00007E00FC0000
00007E00FC0000
00007E00FC0000
0007E000000000
0007E000000000
0007E000000000
000FC000000000
000FC000000000
000FC000000000
001F8000000000
001F8000000000
001F8000000000
003F0000000000
003F0000000000
003F0000000000
007E07FF800000
007E07FF800000
007E07FF800000
00FC0FFF000000
00FC0FFF000000
00FC0FFF000000
003F007E000000
003F007E000000
003F007E000000
007E00FC000000
007E00FC000000
007E00FC000000
001FFFC0000000
001FFFC0000000
001FFFC0000000
003FFF80000000
003FFF80000000
003FFF80000000
00000000000000
00000000000000
00000000000000
00000000000000
00000000000000
00000000000000
00000000000000
00000000000000
00000000000000
00000000000000
00000000000000
00000000000000
ENDCHAR
STARTCHAR U+0046
ENCODING 70
SWIDTH 1000 0
DWIDTH 30 0
BBX 49 60 -9 -12
BITMAP
00000000000000
00000000000000
00000000000000
00000000000000
00000000000000
00000000000000
00007FFFFF8000
00007FFFFF8000
00007FFFFF8000
0000FFFFFF0000
0000FFFFFF0000
0000FFFFFF0000
0001F800000000
0001F800000000
0001F800000000
0003F000000000
0003F000000000
0003F000000000
0007E000000000
0007E000000000
0007E000000000
000FC000000000
000FC000000000
000FC000000000
001FFFF8000000
001FFFF8000000
001FFFF8000000
003FFFF0000000
003FFFF0000000
003FFFF0000000
007E0000000000
007E0000000000
007E0000000000
00FC0000000000
00FC0000000000
00FC0000000000
01F80000000000
01F80000000000
01F80000000000
03F00000000000
03F00000000000
03F00000000000
07E00000000000
07E00000000000
07E00000000000
0FC00000000000
0FC00000000000
0FC00000000000
00000000000000
00000000000000
00000000000000
00000000000000
00000000000000
00000000000000
00000000000000
00000000000000
00000000000000
00000000000000
00000000000000
00000000000000
ENDCHAR
STARTCHAR U+0045
ENCODING 69
SWIDTH 1000 0
DWIDTH 30 0
BBX 49 60 -9 -12
BITMAP
00000000000000
00000000000000
00000000000000
00000000000000
00000000000000
00000000000000
00007FFFFF8000
00007FFFFF8000
00007FFFFF8000
0000FFFFFF0000
0000FFFFFF0000
0000FFFFFF0000
0001F800000000
0001F800000000
0001F800000000
0003F000000000
0003F000000000
0003F000000000
0007E000000000
0007E000000000
0007E000000000
000FC000000000
000FC000000000
000FC000000000
001FFFF8000000
001FFFF8000000
001FFFF8000000
003FFFF0000000
003FFFF0000000
003FFFF0000000
007E0000000000
007E0000000000
007E0000000000
00FC0000000000
00FC0000000000
00FC0000000000
01F80000000000
01F80000000000
01F80000000000
03F00000000000
03F00000000000
03F00000000000
07FFFFF8000000
07FFFFF8000000
07FFFFF8000000
0FFFFFF0000000
0FFFFFF0000000
0FFFFFF0000000
00000000000000
00000000000000
00000000000000
00000000000000
00000000000000
00000000000000
00000000000000
00000000000000
00000000000000
00000000000000
00000000000000
00000000000000
ENDCHAR
STARTCHAR U+0044
ENCODING 68
SWIDTH 1000 0
DWIDTH 30 0
BBX 49 60 -9 -12
BITMAP
00000000000000
00000000000000
00000000000000
00000000000000
00000000000000
00000000000000
00007FFFE00000
00007FFFE00000
00007FFFE00000
0000FFFFC00000
0000FFFFC00000
0000FFFFC00000
00003F03F00000
00003F03F00000
00003F03F00000
00007E07E00000
00007E07E00000
00007E07E00000
0000FC01F80000
0000FC01F80000
0000FC01F80000
0001F803F00000
0001F803F00000
0001F803F00000
0003F007E00000
0003F007E00000
0003F007E00000
0007E00FC00000
0007E00FC00000
0007E00FC00000
000FC01F800000
000FC01F800000
000FC01F800000
001F803F000000
001F803F000000
001F803F000000
003F03F0000000
003F03F0000000
003F03F0000000
007E07E0000000
007E07E0000000
007E07E0000000
07FFFE00000000
07FFFE00000000
07FFFE00000000
0FFFFC00000000
0FFFFC00000000
0FFFFC00000000
00000000000000
00000000000000
00000000000000
00000000000000
00000000000000
00000000000000
00000000000000
00000000000000
00000000000000
00000000000000
00000000000000
00000000000000
ENDCHAR
STARTCHAR U+0043
ENCODING 67
SWIDTH 1000 0
DWIDTH 30 0
BBX 49 60 -9 -12
BITMAP
00000000000000
00000000000000
00000000000000
00000000000000
00000000000000
00000000000000
000001FFFC0000
000001FFFC0000
000001FFFC0000
000003FFF80000
000003FFF80000
000003FFF80000
00003F007E0000
00003F007E0000
00003F007E0000
00007E00FC0000
00007E00FC0000
00007E00FC0000
0007E000000000
0007E000000000
0007E000000000
000FC000000000
000FC000000000
000FC000000000
001F8000000000
001F8000000000
001F8000000000
003F0000000000
003F0000000000
003F0000000000
007E0000000000
007E0000000000
007E0000000000
00FC0000000000
00FC0000000000
00FC0000000000
003F007E000000
003F007E000000
003F007E000000
007E00FC000000
007E00FC000000
007E00FC000000
001FFFC0000000
001FFFC0000000
001FFFC0000000
003FFF80000000
003FFF80000000
003FFF80000000
00000000000000
00000000000000
00000000000000
00000000000000
00000000000000
00000000000000
00000000000000
00000000000000
00000000000000
00000000000000
00000000000000
00000000000000
ENDCHAR
STARTCHAR U+0042
ENCODING 66
SWIDTH 1000 0
DWIDTH 30 0
BBX 49 60 -9 -12
BITMAP
00000000000000
00000000000000
00000000000000
00000000000000
00000000000000
00000000000000
00007FFFFC0000
00007FFFFC0000
00007FFFFC0000
0000FFFFF80000
0000FFFFF80000
0000FFFFF80000
00003F007E0000
00003F007E0000
00003F007E0000
00007E00FC0000
00007E00FC0000
00007E00FC0000
0000FC01F80000
0000FC01F80000
0000FC01F80000
0001F803F00000
0001F803F00000
0001F803F00000
0003FFFF000000
0003FFFF000000
0003FFFF000000
0007FFFE000000
0007FFFE000000
0007FFFE000000
000FC01F800000
000FC01F800000
000FC01F800000
001F803F000000
001F803F000000
001F803F000000
003F007E000000
003F007E000000
003F007E000000
007E00FC000000
007E00FC000000
007E00FC000000
07FFFFC0000000
07FFFFC0000000
07FFFFC0000000
0FFFFF80000000
0FFFFF80000000
0FFFFF80000000
00000000000000
00000000000000
00000000000000
00000000000000
00000000000000
00000000000000
00000000000000
00000000000000
00000000000000
00000000000000
00000000000000
00000000000000
ENDCHAR
STARTCHAR U+0041
ENCODING 65
SWIDTH 1000 0
DWIDTH 30 0
BBX 49 60 -9 -12
BITMAP
00000000000000
00000000000000
00000000000000
00000000000000
00000000000000
00000000000000
0000003F000000
0000003F000000
0000003F000000
0000007E000000
0000007E000000
0000007E000000
000007FF800000
000007FF800000
000007FF800000
00000FFF000000
00000FFF000000
00000FFF000000
0000FC0FC00000
0000FC0FC00000
0000FC0FC00000
0001F81F800000
0001F81F800000
0001F81F800000
001F8007E00000
001F8007E00000
001F8007E00000
003F000FC00000
003F000FC00000
003F000FC00000
007FFFFF800000
007FFFFF800000
007FFFFF800000
00FFFFFF000000
00FFFFFF000000
00FFFFFF000000
01F8007E000000
01F8007E000000
01F8007E000000
03F000FC000000
03F000FC000000
03F000FC000000
07E001F8000000
07E001F8000000
07E001F8000000
0FC003F0000000
0FC003F0000000
0FC003F0000000
00000000000000
00000000000000
00000000000000
00000000000000
00000000000000
00000000000000
00000000000000
00000000000000
00000000000000
00000000000000
00000000000000
00000000000000
ENDCHAR
STARTCHAR U+0040
ENCODING 64
SWIDTH 1000 0
DWIDTH 30 0
BBX 49 60 -9 -12
BITMAP
00000000000000
00000000000000
00000000000000
00000000000000
00000000000000
00000000000000
00000FFFFC0000
00000FFFFC0000
00000FFFFC0000
00001FFFF80000
00001FFFF80000
00001FFFF80000
0001F8007E0000
0001F8007E0000
0001F8007E0000
0003F000FC0000
0003F000FC0000
0003F000FC0000
0007E3FFF80000
0007E3FFF80000
0007E3FFF80000
000FC7FFF00000
000FC7FFF00000
000FC7FFF00000
001FFE3FE00000
001FFE3FE00000
001FFE3FE00000
003FFC7FC00000
003FFC7FC00000
003FFC7FC00000
007E3FFF800000
007E3FFF800000
007E3FFF800000
00FC7FFF000000
00FC7FFF000000
00FC7FFF000000
01F80000000000
01F80000000000
01F80000000000
03F00000000000
03F00000000000
03F00000000000
00FFFFC0000000
00FFFFC0000000
00FFFFC0000000
01FFFF80000000
01FFFF80000000
01FFFF80000000
00000000000000
00000000000000
00000000000000
00000000000000
00000000000000
00000000000000
00000000000000
00000000000000
00000000000000
00000000000000
00000000000000
00000000000000
ENDCHAR
STARTCHAR U+003F
ENCODING 63
SWIDTH 1000 0
DWIDTH 30 0
BBX 49 60 -9 -12
BITMAP
00000000000000
00000000000000
00000000000000
00000000000000
00000000000000
00000000000000
00000FFFFC0000
00000FFFFC0000
00000FFFFC0000
00001FFFF80000
00001FFFF80000
00001FFFF80000
0001F8007E0000
0001F8007E0000
0001F8007E0000
0003F000FC0000
0003F000FC0000
0003F000FC0000
0000007FC00000
0000007FC00000
0000007FC00000
000000FF800000
000000FF800000
000000FF800000
00000FC0000000
00000FC0000000
00000FC0000000
00001F80000000
00001F80000000
00001F80000000
00003F00000000
00003F00000000
00003F00000000
00007E00000000
00007E00000000
00007E00000000
00000000000000
00000000000000
00000000000000
00000000000000
00000000000000
00000000000000
0003F000000000
0003F000000000
0003F000000000
0007E000000000
0007E000000000
0007E000000000
00000000000000
00000000000000
00000000000000
00000000000000
00000000000000
00000000000000
00000000000000
00000000000000
00000000000000
00000000000000
00000000000000
00000000000000
ENDCHAR
STARTCHAR U+003E
ENCODING 62
SWIDTH 1000 0
DWIDTH 30 0
BBX 49 60 -9 -12
BITMAP
00000000000000
00000000000000
00000000000000
00000000000000
00000000000000
00000000000000
00007E00000000
00007E00000000
00007E00000000
0000FC00000000
0000FC00000000
0000FC00000000
000007E0000000
000007E0000000
000007E0000000
00000FC0000000
00000FC0000000
00000FC0000000
0000007E000000
0000007E000000
0000007E000000
000000FC000000
000000FC000000
000000FC000000
00000007E00000
00000007E00000
00000007E00000
0000000FC00000
0000000FC00000
0000001FC00000
000007E0000000
000007E0000000
000007E0000000
00000FC0000000
00000FC0000000
00001FC0000000
0007E000000000
0007E000000000
0007E000000000
000FC000000000
000FC000000000
001FC000000000
07E00000000000
07E00000000000
07E00000000000
0FC00000000000
0FC00000000000
0FC00000000000
00000000000000
00000000000000
00000000000000
00000000000000
00000000000000
00000000000000
00000000000000
00000000000000
00000000000000
00000000000000
00000000000000
00000000000000
ENDCHAR
STARTCHAR U+003D
ENCODING 61
SWIDTH 1000 0
DWIDTH 30 0
BBX 49 60 -9 -12
BITMAP
00000000000000
00000000000000
00000000000000
00000000000000
00000000000000
00000000000000
00000000000000
00000000000000
00000000000000
00000000000000
00000000000000
00000000000000
00000000000000
00000000000000
00000000000000
00000000000000
00000000000000
00000000000000
0007FFFFF80000
0007FFFFF80000
0007FFFFF80000
000FFFFFF00000
000FFFFFF00000
000FFFFFF00000
00000000000000
00000000000000
00000000000000
00000000000000
00000000000000
00000000000000
007FFFFF800000
007FFFFF800000
007FFFFF800000
00FFFFFF000000
00FFFFFF000000
00FFFFFF000000
00000000000000
00000000000000
00000000000000
00000000000000
00000000000000
00000000000000
00000000000000
00000000000000
00000000000000
00000000000000
00000000000000
00000000000000
00000000000000
00000000000000
00000000000000
00000000000000
00000000000000
00000000000000
00000000000000
00000000000000
00000000000000
00000000000000
00000000000000
00000000000000
ENDCHAR
STARTCHAR U+003C
ENCODING 60
SWIDTH 1000 0
DWIDTH 30 0
BBX 49 60 -9 -12
BITMAP
00000000000000
00000000000000
00000000000000
00000000000000
00000000000000
00000000000000
000000001F8000
000000001F8000
000000001F8000
000000003F0000
000000003F0000
000000007F0000
0000001F800000
0000001F800000
0000001F800000
0000003F000000
0000003F000000
0000007F000000
00001F80000000
00001F80000000
00001F80000000
00003F00000000
00003F00000000
00007F00000000
001F8000000000
001F8000000000
001F8000000000
003F0000000000
003F0000000000
003F0000000000
0001F800000000
0001F800000000
0001F800000000
0003F000000000
0003F000000000
0003F000000000
00001F80000000
00001F80000000
00001F80000000
00003F00000000
00003F00000000
00003F00000000
000001F8000000
000001F8000000
000001F8000000
000003F0000000
000003F0000000
000003F0000000
00000000000000
00000000000000
00000000000000
00000000000000
00000000000000
00000000000000
00000000000000
00000000000000
00000000000000
00000000000000
00000000000000
00000000000000
ENDCHAR
STARTCHAR U+003B
ENCODING 59
SWIDTH 1000 0
DWIDTH 30 0
BBX 49 60 -9 -12
BITMAP
00000000000000
00000000000000
00000000000000
00000000000000
00000000000000
00000000000000
00000000000000
00000000000000
00000000000000
00000000000000
00000000000000
00000000000000
000007FC000000
000007FC000000
000007FC000000
00000FF8000000
00000FF8000000
00000FF8000000
00001FF0000000
00001FF0000000
00001FF0000000
00003FE0000000
00003FE0000000
00003FE0000000
00000000000000
00000000000000
00000000000000
00000000000000
00000000000000
00000000000000
00000000000000
00000000000000
00000000000000
00000000000000
00000000000000
00000000000000
0007FC00000000
0007FC00000000
0007FC00000000
000FF800000000
000FF800000000
000FF800000000
001F8000000000
001F8000000000
001F8000000000
003F0000000000
003F0000000000
003F0000000000
03F00000000000
03F00000000000
03F00000000000
07E00000000000
07E00000000000
07E00000000000
00000000000000
00000000000000
00000000000000
00000000000000
00000000000000
00000000000000
ENDCHAR
STARTCHAR U+003A
ENCODING 58
SWIDTH 1000 0
DWIDTH 30 0
BBX 49 60 -9 -12
BITMAP
00000000000000
00000000000000
00000000000000
00000000000000
00000000000000
00000000000000
00000000000000
00000000000000
00000000000000
00000000000000
00000000000000
00000000000000
000007FC000000
000007FC000000
000007FC000000
00000FF8000000
00000FF8000000
00000FF8000000
00001FF0000000
00001FF0000000
00001FF0000000
00003FE0000000
00003FE0000000
00003FE0000000
00000000000000
00000000000000
00000000000000
00000000000000
00000000000000
00000000000000
00000000000000
00000000000000
00000000000000
00000000000000
00000000000000
00000000000000
0007FC00000000
0007FC00000000
0007FC00000000
000FF800000000
000FF800000000
000FF800000000
001FF000000000
001FF000000000
001FF000000000
003FE000000000
003FE000000000
003FE000000000
00000000000000
00000000000000
00000000000000
00000000000000
00000000000000
00000000000000
00000000000000
00000000000000
00000000000000
00000000000000
00000000000000
00000000000000
ENDCHAR
STARTCHAR U+0039
ENCODING 57
SWIDTH 1000 0
DWIDTH 30 0
BBX 49 60 -9 -12
BITMAP
00000000000000
00000000000000
00000000000000
00000000000000
00000000000000
00000000000000
00000FFFFC0000
00000FFFFC0000
00000FFFFC0000
00001FFFF80000
00001FFFF80000
00001FFFF80000
0001F8007E0000
0001F8007E0000
0001F8007E0000
0003F000FC0000
0003F000FC0000
0003F000FC0000
0007E00FF80000
0007E00FF80000
0007E00FF80000
000FC01FF00000
000FC01FF00000
000FC01FF00000
0003FFFFE00000
0003FFFFE00000
0003FFFFE00000
0007FFFFC00000
0007FFFFC00000
0007FFFFC00000
0000001F800000
0000001F800000
0000001F800000
0000003F000000
0000003F000000
0000003F000000
000003F0000000
000003F0000000
000003F0000000
000007E0000000
000007E0000000
000007E0000000
00FFFE00000000
00FFFE00000000
00FFFE00000000
01FFFC00000000
01FFFC00000000
01FFFC00000000
00000000000000
00000000000000
00000000000000
00000000000000
00000000000000
00000000000000
00000000000000
00000000000000
00000000000000
00000000000000
00000000000000
00000000000000
ENDCHAR
STARTCHAR U+0038
ENCODING 56
SWIDTH 1000 0
DWIDTH 30 0
BBX 49 60 -9 -12
BITMAP
00000000000000
00000000000000
00000000000000
00000000000000
00000000000000
00000000000000
00000FFFFC0000
00000FFFFC0000
00000FFFFC0000
00001FFFF80000
00001FFFF80000
00001FFFF80000
0001F8007E0000
0001F8007E0000
0001F8007E0000
0003F000FC0000
0003F000FC0000
0003F000FC0000
0007E001F80000
0007E001F80000
0007E001F80000
000FC003F00000
000FC003F00000
000FC003F00000
0003FFFF000000
0003FFFF000000
0003FFFF000000
0007FFFE000000
0007FFFE000000
0007FFFE000000
007E001F800000
007E001F800000
007E001F800000
00FC003F000000
00FC003F000000
00FC003F000000
01F8007E000000
01F8007E000000
01F8007E000000
03F000FC000000
03F000FC000000
03F000FC000000
00FFFFC0000000
00FFFFC0000000
00FFFFC0000000
01FFFF80000000
01FFFF80000000
01FFFF80000000
00000000000000
00000000000000
00000000000000
00000000000000
00000000000000
00000000000000
00000000000000
00000000000000
00000000000000
00000000000000
00000000000000
00000000000000
ENDCHAR
STARTCHAR U+0037
ENCODING 55
SWIDTH 1000 0
DWIDTH 30 0
BBX 49 60 -9 -12
BITMAP
00000000000000
00000000000000
00000000000000
00000000000000
00000000000000
00000000000000
00007FFFFF8000
00007FFFFF8000
00007FFFFF8000
0000FFFFFF0000
0000FFFFFF0000
0000FFFFFF0000
000000007E0000
000000007E0000
000000007E0000
00000000FC0000
00000000FC0000
00000000FC0000
0000000FC00000
0000000FC00000
0000000FC00000
0000001F800000
0000001F800000
0000001F800000
000001F8000000
000001F8000000
000001F8000000
000003F0000000
000003F0000000
000003F0000000
00003F00000000
00003F00000000
00003F00000000
00007E00000000
00007E00000000
00007E00000000
0007E000000000
0007E000000000
0007E000000000
000FC000000000
000FC000000000
000FC000000000
001F8000000000
001F8000000000
001F8000000000
003F0000000000
003F0000000000
003F0000000000
00000000000000
00000000000000
00000000000000
00000000000000
00000000000000
00000000000000
00000000000000
00000000000000
00000000000000
00000000000000
00000000000000
00000000000000
ENDCHAR
STARTCHAR U+0036
ENCODING 54
SWIDTH 1000 0
DWIDTH 30 0
BBX 49 60 -9 -12
BITMAP
00000000000000
00000000000000
00000000000000
00000000000000
00000000000000
00000000000000
000001FFFC0000
000001FFFC0000
000001FFFC0000
000003FFF80000
000003FFF80000
000003FFF80000
00003F00000000
00003F00000000
00003F00000000
00007E00000000
00007E00000000
00007E00000000
0007E000000000
0007E000000000
0007E000000000
000FC000000000
000FC000000000
000FC000000000
001FFFFF000000
001FFFFF000000
001FFFFF000000
003FFFFE000000
003FFFFE000000
003FFFFE000000
007FC01F800000
007FC01F800000
007FC01F800000
00FF803F000000
00FF803F000000
00FF803F000000
01F8007E000000
01F8007E000000
01F8007E000000
03F000FC000000
03F000FC000000
03F000FC000000
00FFFFC0000000
00FFFFC0000000
00FFFFC0000000
01FFFF80000000
01FFFF80000000
01FFFF80000000
00000000000000
00000000000000
00000000000000
00000000000000
00000000000000
00000000000000
00000000000000
00000000000000
00000000000000
00000000000000
00000000000000
00000000000000
ENDCHAR
STARTCHAR U+0035
ENCODING 53
SWIDTH 1000 0
DWIDTH 30 0
BBX 49 60 -9 -12
BITMAP
00000000000000
00000000000000
00000000000000
00000000000000
00000000000000
00000000000000
00007FFFFF8000
00007FFFFF8000
00007FFFFF8000
0000FFFFFF0000
0000FFFFFF0000
0000FFFFFF0000
0001F800000000
0001F800000000
0001F800000000
0003F000000000
0003F000000000
0003F000000000
0007FFFFC00000
0007FFFFC00000
0007FFFFC00000
000FFFFF800000
000FFFFF800000
000FFFFF800000
001FF007E00000
001FF007E00000
001FF007E00000
003FE00FC00000
003FE00FC00000
003FE00FC00000
0000001F800000
0000001F800000
0000001F800000
0000003F000000
0000003F000000
0000003F000000
01F8007E000000
01F8007E000000
01F8007E000000
03F000FC000000
03F000FC000000
03F000FC000000
00FFFFC0000000
00FFFFC0000000
00FFFFC0000000
01FFFF80000000
01FFFF80000000
01FFFF80000000
00000000000000
00000000000000
00000000000000
00000000000000
00000000000000
00000000000000
00000000000000
00000000000000
00000000000000
00000000000000
00000000000000
00000000000000
ENDCHAR
STARTCHAR U+0034
ENCODING 52
SWIDTH 1000 0
DWIDTH 30 0
BBX 49 60 -9 -12
BITMAP
00000000000000
00000000000000
00000000000000
00000000000000
00000000000000
00000000000000
00000007E00000
00000007E00000
00000007E00000
0000000FC00000
0000000FC00000
0000000FC00000
000000FF800000
000000FF800000
000000FF800000
000001FF000000
000001FF000000
000001FF000000
00001FFE000000
00001FFE000000
00001FFE000000
00003FFC000000
00003FFC000000
00003FFC000000
0003F1F8000000
0003F1F8000000
0003F1F8000000
0007E3F0000000
0007E3F0000000
0007E3F0000000
007FFFFF800000
007FFFFF800000
007FFFFF800000
00FFFFFF000000
00FFFFFF000000
00FFFFFF000000
00001F80000000
00001F80000000
00001F80000000
00003F00000000
00003F00000000
00003F00000000
00007E00000000
00007E00000000
00007E00000000
0000FC00000000
0000FC00000000
0000FC00000000
00000000000000
00000000000000
00000000000000
00000000000000
00000000000000
00000000000000
00000000000000
00000000000000
00000000000000
00000000000000
00000000000000
00000000000000
ENDCHAR
STARTCHAR U+0033
ENCODING 51
SWIDTH 1000 0
DWIDTH 30 0
BBX 49 60 -9 -12
BITMAP
00000000000000
00000000000000
00000000000000
00000000000000
00000000000000
00000000000000
00007FFFFF8000
00007FFFFF8000
00007FFFFF8000
0000FFFFFF0000
0000FFFFFF0000
0000FFFFFF0000
00000003F00000
00000003F00000
00000003F00000
00000007E00000
00000007E00000
00000007E00000
0000007E000000
0000007E000000
0000007E000000
000000FC000000
000000FC000000
000000FC000000
00000FFF000000
00000FFF000000
00000FFF000000
00001FFE000000
00001FFE000000
00001FFE000000
0000001F800000
0000001F800000
0000001F800000
0000003F000000
0000003F000000
0000003F000000
01F8007E000000
01F8007E000000
01F8007E000000
03F000FC000000
03F000FC000000
03F000FC000000
00FFFFC0000000
00FFFFC0000000
00FFFFC0000000
01FFFF80000000
01FFFF80000000
01FFFF80000000
00000000000000
00000000000000
00000000000000
00000000000000
00000000000000
00000000000000
00000000000000
00000000000000
00000000000000
00000000000000
00000000000000
00000000000000
ENDCHAR
STARTCHAR U+0032
ENCODING 50
SWIDTH 1000 0
DWIDTH 30 0
BBX 49 60 -9 -12
BITMAP
00000000000000
00000000000000
00000000000000
00000000000000
00000000000000
00000000000000
00000FFFFC0000
00000FFFFC0000
00000FFFFC0000
00001FFFF80000
00001FFFF80000
00001FFFF80000
0001F8007E0000
0001F8007E0000
0001F8007E0000
0003F000FC0000
0003F000FC0000
0003F000FC0000
00000001F80000
00000001F80000
00000001F80000
00000003F00000
00000003F00000
00000003F00000
00000FFF000000
00000FFF000000
00000FFF000000
00001FFE000000
00001FFE000000
00001FFE000000
000FF800000000
000FF800000000
000FF800000000
001FF000000000
001FF000000000
001FF000000000
01F80000000000
01F80000000000
01F80000000000
03F00000000000
03F00000000000
03F00000000000
07FFFFF8000000
07FFFFF8000000
07FFFFF8000000
0FFFFFF0000000
0FFFFFF0000000
0FFFFFF0000000
00000000000000
00000000000000
00000000000000
00000000000000
00000000000000
00000000000000
00000000000000
00000000000000
00000000000000
00000000000000
00000000000000
00000000000000
ENDCHAR
STARTCHAR U+0031
ENCODING 49
SWIDTH 1000 0
DWIDTH 30 0
BBX 49 60 -9 -12
BITMAP
00000000000000
00000000000000
00000000000000
00000000000000
00000000000000
00000000000000
0000003F000000
0000003F000000
0000003F000000
0000007E000000
0000007E000000
0000007E000000
000007FC000000
000007FC000000
000007FC000000
00000FF8000000
00000FF8000000
00000FF8000000
0000FFF0000000
0000FFF0000000
0000FFF0000000
0001FFE0000000
0001FFE0000000
0001FFE0000000
00000FC0000000
00000FC0000000
00000FC0000000
00001F80000000
00001F80000000
00001F80000000
00003F00000000
00003F00000000
00003F00000000
00007E00000000
00007E00000000
00007E00000000
0000FC00000000
0000FC00000000
0000FC00000000
0001F800000000
0001F800000000
0001F800000000
00FFFFC0000000
00FFFFC0000000
00FFFFC0000000
01FFFF80000000
01FFFF80000000
01FFFF80000000
00000000000000
00000000000000
00000000000000
00000000000000
00000000000000
00000000000000
00000000000000
00000000000000
00000000000000
00000000000000
00000000000000
00000000000000
ENDCHAR
STARTCHAR U+0030
ENCODING 48
SWIDTH 1000 0
DWIDTH 30 0
BBX 49 60 -9 -12
BITMAP
00000000000000
00000000000000
00000000000000
00000000000000
00000000000000
00000000000000
000001FFE00000
000001FFE00000
000001FFE00000
000003FFC00000
000003FFC00000
000003FFC00000
00003F03F00000
00003F03F00000
00003F03F00000
00007E07E00000
00007E07E00000
00007E07E00000
0007E001F80000
0007E001F80000
0007E001F80000
000FC003F00000
000FC003F00000
000FC003F00000
001F8007E00000
001F8007E00000
001F8007E00000
003F000FC00000
003F000FC00000
003F000FC00000
007E001F800000
007E001F800000
007E001F800000
00FC003F000000
00FC003F000000
00FC003F000000
003F03F0000000
003F03F0000000
003F03F0000000
007E07E0000000
007E07E0000000
007E07E0000000
001FFE00000000
001FFE00000000
001FFE00000000
003FFC00000000
003FFC00000000
003FFC00000000
00000000000000
00000000000000
00000000000000
00000000000000
00000000000000
00000000000000
00000000000000
00000000000000
00000000000000
00000000000000
00000000000000
00000000000000
ENDCHAR
STARTCHAR U+002F
ENCODING 47
SWIDTH 1000 0
DWIDTH 30 0
BBX 49 60 -9 -12
BITMAP
00000000000000
00000000000000
00000000000000
00000000000000
00000000000000
00000000000000
000000001F8000
000000001F8000
000000001F8000
000000003F0000
000000003F0000
000000003F0000
00000003F00000
00000003F00000
00000003F00000
00000007E00000
00000007E00000
00000007E00000
0000007E000000
0000007E000000
0000007E000000
000000FC000000
000000FC000000
000000FC000000
00000FC0000000
00000FC0000000
00000FC0000000
00001F80000000
00001F80000000
00001F80000000
0001F800000000
0001F800000000
0001F800000000
0003F000000000
0003F000000000
0003F000000000
003F0000000000
003F0000000000
003F0000000000
007E0000000000
007E0000000000
007E0000000000
07E00000000000
07E00000000000
07E00000000000
0FC00000000000
0FC00000000000
0FC00000000000
00000000000000
00000000000000
00000000000000
00000000000000
00000000000000
00000000000000
00000000000000
00000000000000
00000000000000
00000000000000
00000000000000
00000000000000
ENDCHAR
STARTCHAR U+002E
ENCODING 46
SWIDTH 1000 0
DWIDTH 30 0
BBX 49 60 -9 -12
BITMAP
00000000000000
00000000000000
00000000000000
00000000000000
00000000000000
00000000000000
00000000000000
00000000000000
00000000000000
00000000000000
00000000000000
00000000000000
00000000000000
00000000000000
00000000000000
00000000000000
00000000000000
00000000000000
00000000000000
00000000000000
00000000000000
00000000000000
00000000000000
00000000000000
00000000000000
00000000000000
00000000000000
00000000000000
00000000000000
00000000000000
00000000000000
00000000000000
00000000000000
00000000000000
00000000000000
00000000000000
0007FC00000000
0007FC00000000
0007FC00000000
000FF800000000
000FF800000000
000FF800000000
001FF000000000
001FF000000000
001FF000000000
003FE000000000
003FE000000000
003FE000000000
00000000000000
00000000000000
00000000000000
00000000000000
00000000000000
00000000000000
00000000000000
00000000000000
00000000000000
00000000000000
00000000000000
00000000000000
ENDCHAR
STARTCHAR U+002D
ENCODING 45
SWIDTH 1000 0
DWIDTH 30 0
BBX 49 60 -9 -12
BITMAP
00000000000000
00000000000000
00000000000000
00000000000000
00000000000000
00000000000000
00000000000000
00000000000000
00000000000000
00000000000000
00000000000000
00000000000000
00000000000000
00000000000000
00000000000000
00000000000000
00000000000000
00000000000000
00000000000000
00000000000000
00000000000000
00000000000000
00000000000000
00000000000000
001FFFFFE00000
001FFFFFE00000
001FFFFFE00000
003FFFFFC00000
003FFFFFC00000
003FFFFFC00000
00000000000000
00000000000000
00000000000000
00000000000000
00000000000000
00000000000000
00000000000000
00000000000000
00000000000000
00000000000000
00000000000000
00000000000000
00000000000000
00000000000000
00000000000000
00000000000000
00000000000000
00000000000000
00000000000000
00000000000000
00000000000000
00000000000000
00000000000000
00000000000000
00000000000000
00000000000000
00000000000000
00000000000000
00000000000000
00000000000000
ENDCHAR
STARTCHAR U+002C
ENCODING 44
SWIDTH 1000 0
DWIDTH 30 0
BBX 49 60 -9 -12
BITMAP
00000000000000
00000000000000
00000000000000
00000000000000
00000000000000
00000000000000
00000000000000
00000000000000
00000000000000
00000000000000
00000000000000
00000000000000
00000000000000
00000000000000
00000000000000
00000000000000
00000000000000
00000000000000
00000000000000
00000000000000
00000000000000
00000000000000
00000000000000
00000000000000
00000000000000
00000000000000
00000000000000
00000000000000
00000000000000
00000000000000
00000000000000
00000000000000
00000000000000
00000000000000
00000000000000
00000000000000
0007FC00000000
0007FC00000000
0007FC00000000
000FF800000000
000FF800000000
000FF800000000
001F8000000000
001F8000000000
001F8000000000
003F0000000000
003F0000000000
003F0000000000
03F00000000000
03F00000000000
03F00000000000
07E00000000000
07E00000000000
07E00000000000
00000000000000
00000000000000
00000000000000
00000000000000
00000000000000
00000000000000
ENDCHAR
STARTCHAR U+002B
ENCODING 43
SWIDTH 1000 0
DWIDTH 30 0
BBX 49 60 -9 -12
BITMAP
00000000000000
00000000000000
00000000000000
00000000000000
00000000000000
00000000000000
00000000000000
00000000000000
00000000000000
00000000000000
00000000000000
00000000000000
000000FC000000
000000FC000000
000000FC000000
000001F8000000
000001F8000000
000001F8000000
000003F0000000
000003F0000000
000003F0000000
000007E0000000
000007E0000000
000007E0000000
001FFFFFE00000
001FFFFFE00000
001FFFFFE00000
003FFFFFC00000
003FFFFFC00000
003FFFFFC00000
00003F00000000
00003F00000000
00003F00000000
00007E00000000
00007E00000000
00007E00000000
0000FC00000000
0000FC00000000
0000FC00000000
0001F800000000
0001F800000000
0001F800000000
00000000000000
00000000000000
00000000000000
00000000000000
00000000000000
00000000000000
00000000000000
00000000000000
00000000000000
00000000000000
00000000000000
00000000000000
00000000000000
00000000000000
00000000000000
00000000000000
00000000000000
00000000000000
ENDCHAR
STARTCHAR U+002A
ENCODING 42
SWIDTH 1000 0
DWIDTH 30 0
BBX 49 60 -9 -12
BITMAP
00000000000000
00000000000000
00000000000000
00000000000000
00000000000000
00000000000000
00000000000000
00000000000000
00000000000000
00000000000000
00000000000000
00000000000000
00003F03F00000
00003F03F00000
00003F03F00000
00007E07E00000
00007E07E00000
00007E07E00000
00001FFE000000
00001FFE000000
00001FFE000000
00003FFC000000
00003FFC000000
00003FFC000000
001FFFFFE00000
001FFFFFE00000
001FFFFFE00000
003FFFFFC00000
003FFFFFC00000
003FFFFFC00000
0001FFE0000000
0001FFE0000000
0001FFE0000000
0003FFC0000000
0003FFC0000000
0003FFC0000000
003F03F0000000
003F03F0000000
003F03F0000000
007E07E0000000
007E07E0000000
007E07E0000000
00000000000000
00000000000000
00000000000000
00000000000000
00000000000000
00000000000000
00000000000000
00000000000000
00000000000000
00000000000000
00000000000000
00000000000000
00000000000000
00000000000000
00000000000000
00000000000000
00000000000000
00000000000000
ENDCHAR
STARTCHAR U+0029
ENCODING 41
SWIDTH 1000 0
DWIDTH 30 0
BBX 49 60 -9 -12
BITMAP
00000000000000
00000000000000
00000000000000
00000000000000
00000000000000
00000000000000
000001F8000000
000001F8000000
000001F8000000
000003F0000000
000003F0000000
000003F0000000
000000FC000000
000000FC000000
000000FC000000
000001F8000000
000001F8000000
000001F8000000
0000007E000000
0000007E000000
0000007E000000
000000FC000000
000000FC000000
000000FC000000
000001F8000000
000001F8000000
000001F8000000
000003F0000000
000003F0000000
000003F0000000
000007E0000000
000007E0000000
000007E0000000
00000FC0000000
00000FC0000000
00000FC0000000
0000FC00000000
0000FC00000000
0000FC00000000
0001F800000000
0001F800000000
0001F800000000
001F8000000000
001F8000000000
001F8000000000
003F0000000000
003F0000000000
003F0000000000
00000000000000
00000000000000
00000000000000
00000000000000
00000000000000
00000000000000
00000000000000
00000000000000
00000000000000
00000000000000
00000000000000
00000000000000
ENDCHAR
STARTCHAR U+0028
ENCODING 40
SWIDTH 1000 0
DWIDTH 30 0
BBX 49 60 -9 -12
BITMAP
00000000000000
00000000000000
00000000000000
00000000000000
00000000000000
00000000000000
00000007E00000
00000007E00000
00000007E00000
0000000FC00000
0000000FC00000
0000000FC00000
000000FC000000
000000FC000000
000000FC000000
000001F8000000
000001F8000000
000001F8000000
00001F80000000
00001F80000000
00001F80000000
00003F00000000
00003F00000000
00003F00000000
00007E00000000
00007E00000000
00007E00000000
0000FC00000000
0000FC00000000
0000FC00000000
0001F800000000
0001F800000000
0001F800000000
0003F000000000
0003F000000000
0003F000000000
0000FC00000000
0000FC00000000
0000FC00000000
0001F800000000
0001F800000000
0001F800000000
00007E00000000
00007E00000000
00007E00000000
0000FC00000000
0000FC00000000
0000FC00000000
00000000000000
00000000000000
00000000000000
00000000000000
00000000000000
00000000000000
00000000000000
00000000000000
00000000000000
00000000000000
00000000000000
00000000000000
ENDCHAR
STARTCHAR U+0027
ENCODING 39
SWIDTH 1000 0
DWIDTH 30 0
BBX 49 60 -9 -12
BITMAP
00000000000000
00000000000000
00000000000000
00000000000000
00000000000000
00000000000000
0000003FE00000
0000003FE00000
0000003FE00000
0000007FC00000
0000007FC00000
0000007FC00000
000000FC000000
000000FC000000
000000FC000000
000001F8000000
000001F8000000
000001F8000000
00001F80000000
00001F80000000
00001F80000000
00003F00000000
00003F00000000
00003F00000000
00000000000000
00000000000000
00000000000000
00000000000000
00000000000000
00000000000000
00000000000000
00000000000000
00000000000000
00000000000000
00000000000000
00000000000000
00000000000000
00000000000000
00000000000000
00000000000000
00000000000000
00000000000000
00000000000000
00000000000000
00000000000000
00000000000000
00000000000000
00000000000000
00000000000000
00000000000000
00000000000000
00000000000000
00000000000000
00000000000000
00000000000000
00000000000000
00000000000000
00000000000000
00000000000000
00000000000000
ENDCHAR
STARTCHAR U+0026
ENCODING 38
SWIDTH 1000 0
DWIDTH 30 0
BBX 49 60 -9 -12
BITMAP
00000000000000
00000000000000
00000000000000
00000000000000
00000000000000
00000000000000
00000FFF000000
00000FFF000000
00000FFF000000
00001FFE000000
00001FFE000000
00001FFE000000
0001F81F800000
0001F81F800000
0001F81F800000
0003F03F000000
0003F03F000000
0003F03F000000
0007E07E000000
0007E07E000000
0007E07E000000
000FC0FC000000
000FC0FC000000
000FC0FC000000
0003FFC0000000
0003FFC0000000
0003FFC0000000
0007FF80000000
0007FF80000000
0007FF80000000
007E07FF800000
007E07FF800000
007E07FF800000
00FC0FFF000000
00FC0FFF000000
00FC0FFF000000
01F803F0000000
01F803F0000000
01F803F0000000
03F007E0000000
03F007E0000000
03F007E0000000
00FFFFF8000000
00FFFFF8000000
00FFFFF8000000
01FFFFF0000000
01FFFFF0000000
01FFFFF0000000
00000000000000
00000000000000
00000000000000
00000000000000
00000000000000
00000000000000
00000000000000
00000000000000
00000000000000
00000000000000
00000000000000
00000000000000
ENDCHAR
STARTCHAR U+0025
ENCODING 37
SWIDTH 1000 0
DWIDTH 30 0
BBX 49 60 -9 -12
BITMAP
00000000000000
00000000000000
00000000000000
00000000000000
00000000000000
00000000000000
00000FC01F8000
00000FC01F8000
00000FC01F8000
00001F803F0000
00001F803F0000
00001F803F0000
0001FFE3F00000
0001FFE3F00000
0001FFE3F00000
0003FFC7E00000
0003FFC7E00000
0003FFC7E00000
0000FC7E000000
0000FC7E000000
0000FC7E000000
0001F8FC000000
0001F8FC000000
0001F8FC000000
00000FC0000000
00000FC0000000
00000FC0000000
00001F80000000
00001F80000000
00001F80000000
0001F8FC000000
0001F8FC000000
0001F8FC000000
0003F1F8000000
0003F1F8000000
0003F1F8000000
003F1FFE000000
003F1FFE000000
003F1FFE000000
007E3FFC000000
007E3FFC000000
007E3FFC000000
07E00FC0000000
07E00FC0000000
07E00FC0000000
0FC01F80000000
0FC01F80000000
0FC01F80000000
00000000000000
00000000000000
00000000000000
00000000000000
00000000000000
00000000000000
00000000000000
00000000000000
00000000000000
00000000000000
00000000000000
00000000000000
ENDCHAR
STARTCHAR U+0024
ENCODING 36
SWIDTH 1000 0
DWIDTH 30 0
BBX 49 60 -9 -12
BITMAP
00000000000000
00000000000000
00000000000000
00000000000000
00000000000000
00000000000000
0000003F000000
0000003F000000
0000003F000000
0000007E000000
0000007E000000
0000007E000000
00003FFFF00000
00003FFFF00000
00003FFFF00000
00007FFFE00000
00007FFFE00000
00007FFFE00000
0007E3F0000000
0007E3F0000000
0007E3F0000000
000FC7E0000000
000FC7E0000000
000FC7E0000000
0003FFFF000000
0003FFFF000000
0003FFFF000000
0007FFFE000000
0007FFFE000000
0007FFFE000000
00003F1F800000
00003F1F800000
00003F1F800000
00007E3F000000
00007E3F000000
00007E3F000000
003FFFF0000000
003FFFF0000000
003FFFF0000000
007FFFE0000000
007FFFE0000000
007FFFE0000000
0003F000000000
0003F000000000
0003F000000000
0007E000000000
0007E000000000
0007E000000000
00000000000000
00000000000000
00000000000000
00000000000000
00000000000000
00000000000000
00000000000000
00000000000000
00000000000000
00000000000000
00000000000000
00000000000000
ENDCHAR
ENDFONT
